<!DOCTYPE svg PUBLIC "-//W3C//DTD SVG 20010904//EN" "http://www.w3.org/TR/2001/REC-SVG-20010904/DTD/svg10.dtd">
<svg version="1.0" xmlns="http://www.w3.org/2000/svg" width="400px" height="400px" viewBox="0 0 4000 4000" preserveAspectRatio="xMidYMid meet">
<g id="layer101" fill="#034166" stroke="none">
<path d="M1565 2873 c-66 -18 -105 -79 -105 -163 l0 -50 50 0 50 0 0 40 c0 41 26 80 53 80 30 0 57 -31 57 -66 0 -49 -12 -67 -100 -160 -91 -96 -116 -147 -107 -228 8 -75 30 -114 80 -137 53 -24 101 -24 155 1 49 22 81 79 82 143 l0 37 -50 0 c-49 0 -50 -1 -50 -30 0 -34 -30 -70 -58 -70 -26 0 -52 31 -52 63 0 47 21 81 100 162 43 44 85 98 94 119 36 87 9 208 -55 241 -33 17 -112 27 -144 18z"/>
<path d="M1890 2873 c-32 -12 -50 -37 -50 -70 0 -30 3 -34 22 -31 13 2 24 11 26 23 6 30 19 40 37 25 24 -20 18 -36 -35 -95 -44 -49 -50 -60 -50 -99 0 -36 5 -48 26 -65 49 -39 113 -15 117 44 2 24 -2 31 -20 33 -16 2 -22 -3 -25 -20 -5 -34 -42 -31 -46 4 -2 20 7 35 37 65 22 21 45 51 51 68 13 33 6 88 -13 103 -17 13 -59 21 -77 15z"/>
<path d="M2075 2872 c-49 -10 -55 -27 -55 -163 0 -127 0 -128 27 -149 53 -41 123 -3 123 67 0 30 -3 34 -22 31 -17 -2 -24 -12 -28 -33 -4 -22 -11 -30 -25 -30 -19 0 -20 7 -20 115 0 108 1 115 20 115 16 0 21 -8 23 -37 3 -33 7 -38 28 -38 21 0 24 4 24 38 0 63 -37 95 -95 84z"/>
<path d="M2453 2869 c-40 -12 -53 -51 -53 -159 0 -102 13 -145 49 -159 35 -15 77 -5 96 22 23 33 21 248 -2 275 -23 26 -50 32 -90 21z m51 -55 c9 -24 7 -197 -3 -213 -5 -8 -16 -11 -25 -8 -13 5 -16 25 -16 115 0 60 3 112 7 115 11 12 31 7 37 -9z"/>
<path d="M3178 2869 c-28 -11 -56 -68 -43 -89 9 -15 45 -12 45 3 0 7 6 22 14 32 12 17 16 17 30 6 23 -19 12 -47 -40 -103 -38 -41 -44 -53 -44 -92 0 -66 44 -99 103 -77 28 11 52 54 43 78 -9 23 -43 15 -50 -13 -9 -34 -40 -28 -44 8 -2 20 7 37 42 72 67 69 72 153 11 176 -30 12 -31 12 -67 -1z"/>
<path d="M710 2525 l0 -345 55 0 54 0 3 148 3 147 58 3 57 3 0 -151 0 -150 60 0 60 0 0 345 0 346 -57 -3 -58 -3 0 -143 0 -142 -62 0 -63 0 0 145 0 145 -55 0 -55 0 0 -345z"/>
<path d="M1128 2526 l-3 -346 148 0 147 0 0 50 0 50 -89 0 c-49 0 -91 4 -93 10 -1 5 -2 50 0 100 l3 90 64 0 63 0 4 51 c1 28 1 53 -1 55 -2 2 -33 4 -67 4 l-63 0 -3 138 -3 137 -52 3 -52 3 -3 -345z"/>
<path d="M2200 2710 l0 -160 30 0 30 0 0 70 c0 68 1 70 25 70 24 0 25 -2 25 -70 l0 -70 30 0 30 0 0 160 0 160 -30 0 -30 0 0 -70 c0 -68 -1 -70 -25 -70 -24 0 -25 2 -25 70 l0 70 -30 0 -30 0 0 -160z"/>
<path d="M2599 2788 c-1 -46 -2 -118 -3 -160 l-1 -78 28 0 27 0 0 139 0 139 40 -5 c38 -5 40 -4 40 21 0 25 -1 26 -65 26 l-65 0 -1 -82z"/>
<path d="M2750 2848 c1 -13 11 -84 23 -158 l22 -135 37 -3 c32 -3 38 0 42 20 9 42 34 192 41 246 7 50 6 52 -18 52 -19 0 -26 -6 -30 -30 -6 -25 -11 -30 -36 -30 -25 0 -30 4 -33 28 -2 19 -9 28 -25 30 -18 3 -23 -1 -23 -20z m96 -124 c-3 -26 -6 -61 -7 -78 0 -27 -1 -28 -9 -10 -4 11 -11 46 -15 77 -7 55 -6 57 15 57 21 0 22 -3 16 -46z"/>
<path d="M2950 2710 l0 -160 59 0 c67 0 90 15 92 58 2 46 -3 77 -13 90 -7 8 -7 16 -1 25 6 6 13 42 16 80 l5 67 -29 0 c-27 0 -28 -1 -31 -62 -3 -55 -5 -63 -23 -63 -18 0 -20 8 -23 63 -3 58 -4 62 -27 62 l-25 0 0 -160z m95 -70 c0 -38 -3 -45 -20 -45 -17 0 -20 8 -23 48 -3 46 -2 48 20 45 20 -3 23 -9 23 -48z"/>
<path d="M1989 2481 c-23 -18 -24 -25 -24 -144 0 -146 10 -167 76 -167 44 0 79 35 79 81 0 24 -4 29 -24 29 -19 0 -25 -6 -28 -27 -2 -20 -9 -29 -25 -31 -23 -3 -23 -2 -23 113 0 115 0 116 23 113 18 -2 23 -10 25 -41 3 -33 6 -38 25 -35 17 2 23 11 25 39 6 74 -72 117 -129 70z"/>
<path d="M2157 2493 c-4 -3 -7 -78 -7 -165 l0 -158 25 0 c24 0 25 2 25 70 l0 70 30 0 30 0 0 -70 c0 -68 1 -70 25 -70 l25 0 0 165 0 165 -25 0 c-24 0 -25 -2 -25 -70 l0 -70 -30 0 -30 0 0 70 c0 61 -2 70 -18 70 -10 0 -22 -3 -25 -7z"/>
<path d="M2354 2486 c-3 -7 -4 -81 -2 -162 l3 -149 28 -3 27 -3 0 165 0 166 -25 0 c-14 0 -28 -6 -31 -14z"/>
<path d="M2460 2473 c-20 -25 -21 -37 -18 -144 4 -136 15 -159 78 -159 44 0 66 21 75 73 7 35 6 37 -18 37 -19 0 -26 -6 -30 -30 -5 -21 -12 -30 -25 -30 -15 0 -21 10 -26 46 -8 59 -8 132 0 162 11 38 48 25 54 -18 4 -27 10 -35 25 -35 17 0 20 6 18 44 -3 56 -25 81 -74 81 -29 0 -42 -6 -59 -27z"/>
<path d="M2620 2489 c0 -14 38 -262 46 -296 4 -19 11 -23 42 -23 l38 0 23 153 c13 83 26 158 28 165 4 8 -5 12 -26 12 -28 0 -31 -3 -31 -30 0 -28 -3 -30 -34 -30 -30 0 -35 3 -38 28 -2 19 -9 28 -25 30 -14 2 -23 -2 -23 -9z m106 -116 c-2 -10 -8 -43 -12 -73 -7 -54 -7 -54 -14 -20 -21 101 -21 110 6 110 19 0 24 -4 20 -17z"/>
<path d="M2840 2478 c-18 -19 -20 -35 -20 -145 0 -110 2 -125 20 -143 12 -12 33 -20 55 -20 46 0 75 29 75 75 0 31 -3 35 -25 35 -21 0 -25 -5 -25 -31 0 -26 -3 -30 -22 -27 -22 3 -23 7 -23 113 0 106 1 110 23 113 20 3 22 -1 22 -42 0 -25 -4 -46 -10 -46 -5 0 -10 -11 -10 -25 0 -22 4 -25 35 -25 l35 0 0 75 c0 62 -4 79 -20 95 -27 27 -83 27 -110 -2z"/>
<path d="M3030 2480 c-18 -18 -20 -33 -20 -149 0 -123 1 -131 22 -145 31 -22 84 -20 108 4 18 18 20 33 20 145 0 115 -2 126 -22 145 -28 26 -82 26 -108 0z m75 -145 c0 -106 -1 -110 -22 -113 -23 -3 -23 -2 -23 113 0 115 0 116 23 113 21 -3 22 -7 22 -113z"/>
<path d="M1533 1967 c-278 -79 -423 -126 -423 -134 0 -7 6 -13 13 -13 8 0 19 -11 25 -25 l12 -26 128 6 c143 6 153 -1 17 -13 l-90 -8 48 -11 c81 -18 408 16 542 58 72 22 140 69 170 117 11 17 22 31 25 31 3 0 14 -14 25 -31 65 -103 213 -150 552 -177 97 -8 132 -7 165 4 l43 13 -55 2 c-30 1 -102 8 -160 15 l-105 14 85 -5 c47 -2 131 -7 187 -10 l102 -7 12 27 c7 14 18 26 26 26 7 0 13 6 13 13 0 17 -840 257 -895 256 -22 0 -230 -55 -462 -122z m252 -137 c-3 -5 -14 -10 -23 -9 -14 0 -13 2 3 9 27 11 27 11 20 0z m-48 -16 c-3 -3 -12 -4 -19 -1 -8 3 -5 6 6 6 11 1 17 -2 13 -5z m550 0 c-3 -3 -12 -4 -19 -1 -8 3 -5 6 6 6 11 1 17 -2 13 -5z m-599 -11 c-10 -2 -26 -2 -35 0 -10 3 -2 5 17 5 19 0 27 -2 18 -5z m659 1 c-3 -3 -12 -4 -19 -1 -8 3 -5 6 6 6 11 1 17 -2 13 -5z m-739 -11 c-10 -2 -28 -2 -40 0 -13 2 -5 4 17 4 22 1 32 -1 23 -4z m830 0 c-10 -2 -26 -2 -35 0 -10 3 -2 5 17 5 19 0 27 -2 18 -5z m-925 -10 c-13 -2 -35 -2 -50 0 -16 2 -5 4 22 4 28 0 40 -2 28 -4z"/>
<path d="M2035 1714 c8 -127 9 -187 4 -464 -4 -195 10 -363 35 -429 12 -31 14 -47 6 -56 -8 -9 -8 -15 0 -20 14 -9 30 3 30 23 0 12 3 13 12 4 9 -9 9 -18 -1 -38 -14 -31 -8 -42 14 -24 8 7 15 27 15 44 0 24 3 27 10 16 5 -8 10 -32 10 -52 0 -63 20 -55 21 9 1 53 2 55 9 20 8 -45 17 -56 26 -33 4 10 -2 53 -13 97 -10 43 -18 79 -16 79 2 0 15 -7 29 -16 13 -9 27 -14 31 -11 9 9 -64 95 -87 102 -35 11 -36 38 -11 292 14 144 67 235 174 297 44 26 163 56 223 56 47 0 90 24 109 60 20 39 20 40 -22 40 -59 0 -320 29 -408 45 -44 9 -105 28 -135 43 -30 15 -59 29 -64 31 -5 2 -6 -45 -1 -115z"/>
<path d="M2335 1464 c-22 -8 -52 -27 -68 -42 -27 -25 -29 -31 -25 -89 3 -44 10 -71 26 -92 12 -17 22 -36 22 -44 0 -7 13 -26 30 -42 l29 -28 12 48 c9 34 26 62 58 95 25 26 52 49 60 52 12 4 12 8 -2 28 -9 14 -17 29 -17 35 0 5 9 -5 20 -23 11 -18 20 -34 20 -36 0 -2 -17 -15 -38 -29 -43 -28 -82 -98 -82 -145 0 -22 10 -37 42 -62 l41 -33 29 31 c40 46 34 28 -22 -63 -26 -44 -47 -81 -45 -83 6 -6 212 107 226 125 20 23 128 207 124 211 -2 2 -25 -8 -52 -22 l-49 -24 -28 34 c-15 19 -33 52 -41 75 -22 60 -50 95 -98 118 -50 24 -114 26 -172 5z"/>
</g>
<g id="layer102" fill="#ce0506" stroke="none">
<path d="M1480 708 c0 -32 -3 -37 -30 -43 -37 -8 -38 -18 -4 -34 23 -10 25 -16 20 -46 -8 -40 -5 -41 30 -19 23 16 26 16 49 -6 l24 -22 3 33 c2 27 9 34 38 44 l35 12 -33 17 c-30 16 -32 20 -26 53 l7 36 -31 -19 c-31 -18 -32 -18 -57 6 l-25 23 0 -35z"/>
<path d="M2493 718 c-23 -22 -23 -22 -54 -4 l-32 19 7 -36 c6 -33 4 -37 -26 -54 l-33 -17 38 -10 c33 -9 37 -13 37 -43 0 -39 5 -41 30 -11 17 21 18 21 43 5 36 -23 39 -22 31 17 -5 32 -3 36 28 52 18 9 29 18 23 20 -5 1 -22 5 -37 8 -22 5 -27 12 -30 41 l-3 36 -22 -23z"/>
<path d="M1831 592 c-24 -34 -34 -36 -85 -16 -15 6 -15 3 1 -30 l17 -36 -35 -30 -34 -29 41 -1 c45 0 54 -10 54 -58 l1 -27 28 35 29 35 36 -18 c41 -19 41 -19 19 27 -16 35 -16 36 11 57 30 24 22 39 -21 39 -22 0 -27 9 -35 65 -3 17 -6 15 -27 -13z"/>
<path d="M2140 595 c0 -41 -9 -51 -53 -59 l-38 -7 28 -21 c15 -12 30 -23 32 -25 3 -2 -3 -20 -13 -39 -19 -41 -24 -39 44 -18 15 5 24 -1 37 -25 23 -40 31 -39 35 7 3 35 5 37 41 40 44 4 46 9 10 38 l-28 22 18 37 c17 36 17 37 0 31 -34 -14 -73 -19 -73 -10 0 5 -9 20 -20 34 l-20 25 0 -30z"/>
</g>
<g id="layer103" fill="#d13d3d" stroke="none">
</g>
<g id="layer104" fill="#2ba7d9" stroke="none">
<path d="M1855 3630 c-337 -40 -669 -240 -858 -517 l-42 -61 -152 -4 c-168 -3 -183 -9 -231 -78 -22 -33 -22 -35 -22 -430 0 -395 0 -397 22 -430 43 -62 70 -74 174 -80 l96 -5 27 -71 c49 -125 117 -233 229 -362 30 -35 70 -75 89 -89 30 -23 36 -24 49 -11 13 13 6 23 -55 87 -38 40 -93 106 -121 147 -47 68 -128 226 -145 282 l-6 22 323 0 323 0 100 29 100 30 -533 0 c-343 1 -540 5 -552 11 -41 22 -42 39 -41 427 1 206 5 381 8 389 17 45 -18 44 1363 44 1436 0 1347 4 1369 -63 7 -21 11 -153 10 -377 -1 -364 -5 -396 -47 -419 -14 -8 -192 -11 -554 -12 l-533 0 100 -30 100 -29 323 0 323 0 -6 -22 c-4 -13 -26 -64 -50 -114 -74 -159 -178 -295 -300 -393 -41 -33 -82 -64 -91 -69 -13 -7 -14 -13 -4 -31 l11 -22 37 27 c218 162 353 328 439 539 l32 80 95 5 c102 5 128 17 170 74 20 26 21 43 26 404 3 207 1 395 -3 417 -9 43 -45 88 -89 111 -19 10 -67 14 -170 14 l-143 1 -45 67 c-61 90 -208 236 -302 301 -141 95 -297 162 -457 196 -88 18 -292 26 -386 15z m368 -131 c170 -34 334 -108 475 -214 61 -46 222 -210 222 -226 0 -5 -414 -9 -920 -9 -506 0 -920 4 -920 9 0 16 161 180 222 226 139 104 303 179 468 214 133 27 319 28 453 0z"/>
<path d="M2591 2694 c0 -11 3 -14 6 -6 3 7 2 16 -1 19 -3 4 -6 -2 -5 -13z"/>
<path d="M2220 1830 c0 -7 3 -10 7 -7 3 4 3 10 0 14 -4 3 -7 0 -7 -7z"/>
<path d="M1925 1809 c-55 -35 -153 -58 -339 -79 -102 -11 -203 -20 -225 -20 -46 0 -47 0 -26 -40 19 -37 62 -60 112 -60 62 0 172 -28 217 -54 107 -63 162 -154 177 -294 26 -238 24 -286 -11 -297 -23 -7 -96 -93 -87 -102 4 -3 18 2 33 11 30 21 40 16 25 -13 -13 -24 -31 -142 -23 -155 2 -5 11 2 18 15 13 24 13 24 14 -8 0 -46 20 -52 21 -6 0 21 4 47 9 58 7 17 9 15 9 -11 1 -17 8 -37 16 -44 21 -17 29 -7 15 19 -7 15 -8 27 -1 39 10 16 10 16 11 0 0 -20 16 -32 30 -23 8 5 8 11 0 20 -8 9 -5 27 9 66 31 88 42 300 31 639 -2 69 0 178 4 243 5 68 5 117 0 116 -5 0 -22 -9 -39 -20z m-118 -1051 c-3 -8 -6 -5 -6 6 -1 11 2 17 5 13 3 -3 4 -12 1 -19z"/>
<path d="M2245 1820 c4 -6 11 -8 16 -5 14 9 11 15 -7 15 -8 0 -12 -5 -9 -10z"/>
<path d="M2290 1810 c0 -5 7 -10 16 -10 8 0 12 5 9 10 -3 6 -10 10 -16 10 -5 0 -9 -4 -9 -10z"/>
<path d="M2350 1800 c0 -5 9 -10 21 -10 11 0 17 5 14 10 -3 6 -13 10 -21 10 -8 0 -14 -4 -14 -10z"/>
<path d="M1525 1790 c3 -5 13 -10 21 -10 8 0 12 5 9 10 -3 6 -13 10 -21 10 -8 0 -12 -4 -9 -10z"/>
<path d="M2440 1790 c-12 -8 -11 -10 7 -10 12 0 25 5 28 10 8 13 -15 13 -35 0z"/>
<path d="M1400 1780 c8 -5 29 -9 45 -9 26 0 27 2 10 9 -11 5 -31 9 -45 9 -20 1 -22 -1 -10 -9z"/>
<path d="M2243 1783 c4 -3 10 -3 14 0 3 4 0 7 -7 7 -7 0 -10 -3 -7 -7z"/>
<path d="M2573 1783 c9 -2 23 -2 30 0 6 3 -1 5 -18 5 -16 0 -22 -2 -12 -5z"/>
<path d="M2298 1773 c7 -3 16 -2 19 1 4 3 -2 6 -13 5 -11 0 -14 -3 -6 -6z"/>
<path d="M2358 1763 c7 -3 16 -2 19 1 4 3 -2 6 -13 5 -11 0 -14 -3 -6 -6z"/>
<path d="M2213 1753 c4 -3 10 -3 14 0 3 4 0 7 -7 7 -7 0 -10 -3 -7 -7z"/>
<path d="M2433 1753 c4 -3 10 -3 14 0 3 4 0 7 -7 7 -7 0 -10 -3 -7 -7z"/>
<path d="M1458 1743 c7 -3 16 -2 19 1 4 3 -2 6 -13 5 -11 0 -14 -3 -6 -6z"/>
<path d="M2523 1743 c4 -3 10 -3 14 0 3 4 0 7 -7 7 -7 0 -10 -3 -7 -7z"/>
<path d="M2343 1733 c9 -2 23 -2 30 0 6 3 -1 5 -18 5 -16 0 -22 -2 -12 -5z"/>
<path d="M2433 1723 c9 -2 25 -2 35 0 9 3 1 5 -18 5 -19 0 -27 -2 -17 -5z"/>
<path d="M1407 1552 c5 -21 -19 -44 -67 -62 -59 -22 -90 -58 -90 -103 0 -52 13 -73 60 -97 43 -22 47 -29 28 -48 -9 -9 -23 -5 -60 15 -26 14 -50 24 -52 22 -2 -2 27 -53 63 -113 l66 -110 108 -59 c60 -32 110 -57 113 -54 3 3 -12 33 -34 68 -59 97 -69 121 -33 79 l29 -35 39 31 c45 37 51 61 28 120 -16 43 -77 104 -103 104 -9 0 -8 6 4 25 9 14 19 23 22 21 3 -3 0 -12 -7 -19 -8 -11 -3 -19 24 -39 49 -34 84 -85 91 -130 l6 -38 26 21 c29 23 78 115 88 164 3 18 3 48 -1 65 -6 27 -16 36 -63 58 -114 52 -214 34 -269 -49 -14 -22 -32 -39 -39 -39 -29 0 -12 37 36 81 56 51 64 85 30 119 -25 25 -50 26 -43 2z m130 -179 c-4 -3 -7 0 -7 7 0 7 3 10 7 7 3 -4 3 -10 0 -14z"/>
<path d="M2476 1351 c-3 -4 1 -16 8 -26 10 -14 15 -15 21 -5 5 9 4 11 -3 6 -11 -6 -16 6 -13 27 1 10 -7 9 -13 -2z"/>
<path d="M2409 1274 c-7 -9 -6 -12 6 -10 22 3 40 23 20 23 -8 0 -20 -6 -26 -13z"/>
</g>


</svg>