<svg width="235" height="231" viewBox="0 0 235 231" fill="none" xmlns="http://www.w3.org/2000/svg">
<path d="M57.0476 83.4087C44.8428 89.9567 10.275 106.472 15.2364 126.865C20.1978 147.258 40.5317 152.786 45.4993 161.87C50.467 170.954 49.2941 172.241 59.8129 177.987C70.3316 183.732 102.233 181.9 114.906 175.293C127.58 168.686 159.054 148.85 166.513 147.295C173.972 145.74 212.245 137.419 217.716 113.405C222.832 90.9802 216.687 72.892 179.334 56.8901C141.981 40.8881 104.011 53.0027 78.3042 67.9684C54.36 81.9089 57.0476 83.4087 57.0476 83.4087Z" fill="#F3F7FF"/>
<path d="M123.593 96.0593C123.593 95.2835 150.794 34.2879 161.932 26.6504L157.01 42.8379L160.38 41.5435C160.38 41.5435 149.499 70.2887 147.686 72.8774C145.873 75.4662 123.593 96.0593 123.593 96.0593Z" fill="#3E337A" stroke="#3B3375" stroke-miterlimit="10"/>
<path d="M96.6489 0.490234C97.051 1.52733 119.447 34.031 115.692 64.2031C115.692 64.2031 104.031 52.0314 99.6284 34.031C95.2255 16.0306 101.184 29.5007 101.96 29.758C102.737 30.0152 96.6489 0.490234 96.6489 0.490234Z" fill="#3E337A" stroke="#3B3375" stroke-miterlimit="10"/>
<path d="M117.349 118.104C118.254 117.585 119.291 115.125 118.382 106.969C117.474 98.813 114.498 94.2948 112.809 91.5734C111.121 88.8521 107.631 83.1561 108.149 80.5674C108.149 80.5674 105.17 93.3864 106.851 99.3436C108.531 105.301 110.22 109.188 109.183 109.445C108.145 109.702 105.298 107.242 105.162 108.151C105.025 109.059 107.574 113.22 109.303 114.755C111.949 117.087 117.349 118.104 117.349 118.104Z" fill="#3E337A" stroke="#3B3375" stroke-miterlimit="10"/>
<path d="M106.375 130.504C107.135 126.083 107.135 122.328 94.5701 117.038C93.404 116.889 90.5492 118.718 90.5492 118.718C88.238 117.095 85.4768 116.235 82.6522 116.258C78.1207 116.391 67.6263 121.05 66.2029 126.621L106.375 130.504Z" fill="#3E337A" stroke="#3B3375" stroke-miterlimit="10"/>
<path d="M99.2076 87.2358C94.0287 93.7116 86.2564 87.8829 84.053 86.5886L84.246 86.3193C88.5885 78.6818 91.0614 77.1221 92.0867 75.466L92.4686 74.9353C93.3814 74.1595 104.39 80.764 99.2076 87.2358Z" fill="white" stroke="#3B3375" stroke-linejoin="round"/>
<path d="M92.6689 74.7913C92.521 74.9524 92.3927 75.1305 92.287 75.3219L84.4463 86.1753C81.7684 88.8846 78.415 91.3366 74.3941 92.5305C68.3066 94.3434 71.8047 96.6748 71.8047 97.0647C71.8047 97.4546 65.3271 106.129 64.4184 106.129C63.5097 106.129 58.2142 85.9461 61.3424 82.0429C64.4706 78.1398 73.1316 70.5183 74.945 71.0369C76.7584 71.5554 77.9244 77.38 85.3067 76.0857L92.6689 74.7913Z" fill="#3E337A" stroke="#3B3375" stroke-linecap="round" stroke-linejoin="round"/>
<path d="M131.306 130.999C136.485 137.475 144.257 131.647 146.46 130.352L146.267 130.083C141.921 122.445 139.432 120.886 138.427 119.23L138.045 118.699C137.124 117.923 126.115 124.536 131.306 130.999Z" fill="white" stroke="#3B3375" stroke-linejoin="round"/>
<path d="M137.832 118.554C137.98 118.715 138.108 118.893 138.214 119.085L146.055 129.938C148.733 132.647 152.086 135.099 156.107 136.293C162.195 138.106 158.697 140.437 158.697 140.827C158.697 141.217 165.174 149.892 166.083 149.892C166.992 149.892 172.299 129.689 169.191 125.806C166.083 121.922 157.402 114.281 155.588 114.8C153.775 115.318 152.609 121.143 145.227 119.848L137.832 118.554Z" fill="#3E337A" stroke="#3B3375" stroke-linecap="round" stroke-linejoin="round"/>
<path d="M106.376 130.505C107.784 131.953 109.018 133.561 110.051 135.296L106.376 130.505Z" fill="#3E337A"/>
<path d="M106.376 130.505C107.784 131.953 109.018 133.561 110.051 135.296" stroke="#3B3375" stroke-miterlimit="10"/>
<path d="M99.207 87.2363C102.673 92.1726 113.553 122.67 113.943 135.296" stroke="#3B3375" stroke-miterlimit="10"/>
<path d="M115.692 64.2031C117.244 68.4761 121.132 79.1606 121.321 83.8235C121.51 88.4864 122.487 135.276 122.487 135.276" stroke="#3B3375" stroke-miterlimit="10"/>
<path d="M117.348 118.104C118.993 122.847 118.615 122.461 117.348 127.51C116.081 132.558 117.348 135.28 117.348 135.28" stroke="#3B3375" stroke-miterlimit="10"/>
<path d="M133.374 132.9C131.625 134.13 131.625 135.312 131.625 135.312" stroke="#3B3375" stroke-miterlimit="10"/>
<path d="M123.593 96.0596L124.112 135.296" stroke="#3B3375" stroke-miterlimit="10"/>
<path d="M154.94 40.3096L127.542 90.2347" stroke="white" stroke-linecap="round" stroke-linejoin="round"/>
<path d="M151.052 54.1016L145.246 57.9726" stroke="white" stroke-linecap="round" stroke-linejoin="round"/>
<path d="M138.182 67.8936L137.442 72.1987" stroke="white" stroke-linecap="round" stroke-linejoin="round"/>
<path d="M99.9548 10.1377L113.167 57.0159" stroke="white" stroke-linecap="round" stroke-linejoin="round"/>
<path d="M112.324 44.7793L111.576 51.3757" stroke="white" stroke-linecap="round" stroke-linejoin="round"/>
<path d="M104.685 35.6504L107.974 38.5848" stroke="white" stroke-linecap="round" stroke-linejoin="round"/>
<path d="M104.684 21.7949L104.467 26.1564" stroke="white" stroke-linecap="round" stroke-linejoin="round"/>
<path d="M80.5912 78.7109C74.5036 81.2996 66.0839 84.6682 65.5652 96.0641C65.0466 107.46 65.5652 101.76 65.5652 101.76" stroke="white" stroke-linecap="round" stroke-linejoin="round"/>
<path d="M72.4282 87.2363C72.0262 84.9209 71.8533 83.3652 71.8533 83.3652" stroke="white" stroke-linecap="round" stroke-linejoin="round"/>
<path d="M63.7517 90.9421L67.0649 89.3584" stroke="white" stroke-linecap="round" stroke-linejoin="round"/>
<path d="M116.786 116.255C114.136 111.339 110.123 96.5783 110.059 94.1182" stroke="white" stroke-linecap="round" stroke-linejoin="round"/>
<path d="M109.086 98.001L111.74 101.739" stroke="white" stroke-linecap="round" stroke-linejoin="round"/>
<path d="M114.526 106.129V110.784" stroke="white" stroke-linecap="round" stroke-linejoin="round"/>
<path d="M148.851 120.664C152.872 121.697 161.802 126.489 162.711 128.434C163.62 130.38 165.69 138.922 165.69 140.863" stroke="white" stroke-linecap="round" stroke-linejoin="round"/>
<path d="M166.858 135.297L163.955 132.334" stroke="white" stroke-linecap="round" stroke-linejoin="round"/>
<path d="M155.716 127.783L154.94 123.152" stroke="white" stroke-linecap="round" stroke-linejoin="round"/>
<path d="M96.0907 154.334V153.932C96.0866 154.08 96.0866 154.209 96.0907 154.334Z" stroke="#3B3375" stroke-miterlimit="10"/>
<path d="M140.552 135.296V154.333H96.0896C96.0896 154.209 96.0896 154.08 96.0896 153.931V135.296H140.552Z" fill="#F09956" stroke="#3B3375" stroke-miterlimit="10"/>
<path d="M140.555 154.334C140.568 158.342 139.471 162.275 137.385 165.698C135.299 169.12 132.306 171.899 128.738 173.725C125.497 175.401 121.9 176.271 118.251 176.262C114.637 176.269 111.077 175.385 107.885 173.689C104.366 171.813 101.414 169.028 99.3371 165.624C97.2601 162.22 96.1341 158.321 96.0762 154.334H118.316H140.555Z" fill="white" stroke="#3B3375" stroke-miterlimit="10"/>
<path d="M128.753 173.725V180.49H107.901V173.688C111.092 175.385 114.652 176.268 118.267 176.261C121.915 176.271 125.512 175.401 128.753 173.725Z" fill="#3E337A" stroke="#3B3375" stroke-miterlimit="10"/>
<path d="M94.4502 180.49H145.483" stroke="#3B3375" stroke-miterlimit="10" stroke-linecap="round"/>
</svg>
