<svg width="52" height="52" viewBox="0 0 52 52" fill="none" xmlns="http://www.w3.org/2000/svg">
<circle cx="26" cy="26" r="26" fill="#F3F7FF"/>
<path d="M32.1165 31.5616C32.6995 31.5616 33.2975 31.4389 33.7772 31.0939C34.1041 30.859 34.3623 30.6113 34.5838 30.2727C34.7495 30.0208 34.8764 29.7203 34.9302 29.4219C35.0162 28.9478 34.9947 28.4737 34.9947 27.9933C34.9947 26.9477 35.0012 25.9001 34.9947 24.8524C34.9926 24.3233 34.8398 23.7624 34.5193 23.3285C34.2805 23.0068 34.0289 22.7529 33.6847 22.5349C33.4308 22.374 33.1318 22.2513 32.835 22.1962C32.5682 22.1476 32.2972 22.1179 32.0262 22.1327C31.6024 22.1539 31.2496 22.2534 30.8688 22.4269C30.5935 22.5518 30.3375 22.7465 30.131 22.9645C29.8492 23.2608 29.6707 23.5698 29.5222 23.9423C29.3265 24.4312 29.3631 24.9773 29.3631 25.4937C29.3631 26.1202 29.3631 26.7488 29.3631 27.3752C29.3631 27.8451 29.3631 28.315 29.3631 28.7848C29.3631 28.8356 29.3631 28.8843 29.3652 28.9351C29.3889 29.352 29.4878 29.697 29.6642 30.0737C29.7911 30.3447 29.989 30.5965 30.2106 30.7997C30.5096 31.0748 30.8258 31.2526 31.2044 31.3987C31.4927 31.5151 31.811 31.5595 32.1165 31.5616C32.3897 31.5637 32.6844 31.441 32.878 31.2526C33.0651 31.0685 33.205 30.768 33.1921 30.5034C33.1662 29.9256 32.7188 29.4494 32.1165 29.4452C32.0369 29.4452 31.9595 29.4388 31.8799 29.4282C31.9745 29.4409 32.0713 29.4536 32.166 29.4663C32.0218 29.4452 31.8842 29.4071 31.7508 29.352C31.8369 29.388 31.9229 29.424 32.0068 29.4579C31.8756 29.4028 31.7551 29.333 31.6411 29.2483C31.7142 29.3034 31.7852 29.3584 31.8584 29.4134C31.7401 29.3224 31.6346 29.2187 31.5421 29.1023C31.5981 29.1742 31.654 29.2441 31.7099 29.3161C31.6239 29.2039 31.5529 29.0854 31.497 28.9563C31.5335 29.0409 31.5701 29.1256 31.6045 29.2081C31.5486 29.0769 31.5099 28.9414 31.4884 28.7996C31.5013 28.8928 31.5142 28.988 31.5271 29.0811C31.5013 28.8928 31.5099 28.7002 31.5099 28.5097C31.5099 28.1816 31.5099 27.8557 31.5099 27.5276C31.5099 26.7742 31.5099 26.0228 31.5099 25.2694C31.5099 25.0492 31.497 24.8249 31.5271 24.6069C31.5142 24.7 31.5013 24.7953 31.4884 24.8884C31.5099 24.7466 31.5486 24.6111 31.6045 24.4799C31.568 24.5646 31.5314 24.6492 31.497 24.7318C31.5529 24.6027 31.6239 24.4841 31.7099 24.372C31.654 24.4439 31.5981 24.5138 31.5421 24.5857C31.6346 24.4693 31.7401 24.3656 31.8584 24.2746C31.7852 24.3296 31.7142 24.3847 31.6411 24.4397C31.7551 24.355 31.8756 24.2852 32.0068 24.2302C31.9207 24.2661 31.8347 24.3021 31.7508 24.336C31.8842 24.281 32.0218 24.2429 32.166 24.2217C32.0713 24.2344 31.9745 24.2471 31.8799 24.2598C32.0756 24.2344 32.2821 24.2344 32.4779 24.2598C32.3832 24.2471 32.2864 24.2344 32.1918 24.2217C32.3359 24.2429 32.4736 24.281 32.607 24.336C32.5209 24.3 32.4349 24.264 32.351 24.2302C32.4822 24.2852 32.6027 24.355 32.7167 24.4397C32.6435 24.3847 32.5725 24.3296 32.4994 24.2746C32.6177 24.3656 32.7231 24.4693 32.8156 24.5857C32.7597 24.5138 32.7038 24.4439 32.6478 24.372C32.7339 24.4841 32.8049 24.6027 32.8608 24.7318C32.8242 24.6471 32.7877 24.5624 32.7532 24.4799C32.8092 24.6111 32.8479 24.7466 32.8694 24.8884C32.8565 24.7953 32.8436 24.7 32.8307 24.6069C32.8565 24.7953 32.8479 24.9879 32.8479 25.1783C32.8479 25.5064 32.8479 25.8323 32.8479 26.1604C32.8479 26.9139 32.8479 27.6652 32.8479 28.4187C32.8479 28.6388 32.8608 28.8631 32.8307 29.0811C32.8436 28.988 32.8565 28.8928 32.8694 28.7996C32.8479 28.9414 32.8092 29.0769 32.7532 29.2081C32.7898 29.1235 32.8264 29.0388 32.8608 28.9563C32.8049 29.0854 32.7339 29.2039 32.6478 29.3161C32.7038 29.2441 32.7597 29.1742 32.8156 29.1023C32.7231 29.2187 32.6177 29.3224 32.4994 29.4134C32.5725 29.3584 32.6435 29.3034 32.7167 29.2483C32.6027 29.333 32.4822 29.4028 32.351 29.4579C32.437 29.4219 32.5231 29.3859 32.607 29.352C32.4736 29.4071 32.3359 29.4452 32.1918 29.4663C32.2864 29.4536 32.3832 29.4409 32.4779 29.4282C32.3574 29.443 32.237 29.4452 32.1165 29.4452C31.8412 29.4452 31.5508 29.5637 31.355 29.7542C31.1679 29.9383 31.028 30.2388 31.0409 30.5034C31.0538 30.7764 31.1442 31.06 31.355 31.2526C31.5658 31.441 31.8261 31.5616 32.1165 31.5616Z" fill="#604BE8"/>
<path d="M19.7561 31.5616C20.3391 31.5616 20.9371 31.4389 21.4168 31.0939C21.7438 30.859 22.0019 30.6113 22.2235 30.2727C22.3891 30.0208 22.516 29.7203 22.5698 29.4219C22.6559 28.9478 22.6344 28.4737 22.6344 27.9933C22.6344 26.9477 22.6408 25.9001 22.6344 24.8524C22.6322 24.3233 22.4795 23.7624 22.159 23.3285C21.9202 23.0068 21.6685 22.7529 21.3243 22.5349C21.0705 22.374 20.7715 22.2513 20.4746 22.1962C20.2079 22.1476 19.9368 22.1179 19.6658 22.1327C19.242 22.1539 18.8892 22.2534 18.5085 22.4269C18.2332 22.5518 17.9772 22.7465 17.7707 22.9645C17.4889 23.2608 17.3103 23.5698 17.1619 23.9423C16.9661 24.4312 17.0027 24.9773 17.0027 25.4937C17.0027 26.1202 17.0027 26.7488 17.0027 27.3752C17.0027 27.8451 17.0027 28.315 17.0027 28.7848C17.0027 28.8356 17.0027 28.8843 17.0049 28.9351C17.0285 29.352 17.1275 29.697 17.3039 30.0737C17.4308 30.3447 17.6287 30.5965 17.8502 30.7997C18.1493 31.0748 18.4655 31.2526 18.8441 31.3987C19.1302 31.5151 19.4507 31.5595 19.7561 31.5616C20.0293 31.5637 20.324 31.441 20.5176 31.2526C20.7048 31.0685 20.8446 30.768 20.8317 30.5034C20.8059 29.9256 20.3585 29.4494 19.7561 29.4452C19.6766 29.4452 19.5991 29.4388 19.5195 29.4282C19.6142 29.4409 19.711 29.4536 19.8056 29.4663C19.6615 29.4452 19.5238 29.4071 19.3905 29.352C19.4765 29.388 19.5625 29.424 19.6464 29.4579C19.5152 29.4028 19.3948 29.333 19.2807 29.2483C19.3539 29.3034 19.4249 29.3584 19.498 29.4134C19.3797 29.3224 19.2743 29.2187 19.1818 29.1023C19.2377 29.1742 19.2937 29.2441 19.3496 29.3161C19.2635 29.2039 19.1926 29.0854 19.1366 28.9563C19.1732 29.0409 19.2098 29.1256 19.2442 29.2081C19.1883 29.0769 19.1495 28.9414 19.128 28.7996C19.1409 28.8928 19.1538 28.988 19.1667 29.0811C19.1409 28.8928 19.1495 28.7002 19.1495 28.5097C19.1495 28.1816 19.1495 27.8557 19.1495 27.5276C19.1495 26.7742 19.1495 26.0228 19.1495 25.2694C19.1495 25.0492 19.1366 24.8249 19.1667 24.6069C19.1538 24.7 19.1409 24.7953 19.128 24.8884C19.1495 24.7466 19.1883 24.6111 19.2442 24.4799C19.2076 24.5646 19.171 24.6492 19.1366 24.7318C19.1926 24.6027 19.2635 24.4841 19.3496 24.372C19.2937 24.4439 19.2377 24.5138 19.1818 24.5857C19.2743 24.4693 19.3797 24.3656 19.498 24.2746C19.4249 24.3296 19.3539 24.3847 19.2807 24.4397C19.3948 24.355 19.5152 24.2852 19.6464 24.2302C19.5604 24.2661 19.4744 24.3021 19.3905 24.336C19.5238 24.281 19.6615 24.2429 19.8056 24.2217C19.711 24.2344 19.6142 24.2471 19.5195 24.2598C19.7153 24.2344 19.9218 24.2344 20.1175 24.2598C20.0229 24.2471 19.9261 24.2344 19.8314 24.2217C19.9756 24.2429 20.1132 24.281 20.2466 24.336C20.1606 24.3 20.0745 24.264 19.9906 24.2302C20.1218 24.2852 20.2423 24.355 20.3563 24.4397C20.2832 24.3847 20.2122 24.3296 20.139 24.2746C20.2574 24.3656 20.3628 24.4693 20.4553 24.5857C20.3993 24.5138 20.3434 24.4439 20.2875 24.372C20.3735 24.4841 20.4445 24.6027 20.5004 24.7318C20.4639 24.6471 20.4273 24.5624 20.3929 24.4799C20.4488 24.6111 20.4875 24.7466 20.509 24.8884C20.4961 24.7953 20.4832 24.7 20.4703 24.6069C20.4961 24.7953 20.4875 24.9879 20.4875 25.1783C20.4875 25.5064 20.4875 25.8323 20.4875 26.1604C20.4875 26.9139 20.4875 27.6652 20.4875 28.4187C20.4875 28.6388 20.5004 28.8631 20.4703 29.0811C20.4832 28.988 20.4961 28.8928 20.509 28.7996C20.4875 28.9414 20.4488 29.0769 20.3929 29.2081C20.4295 29.1235 20.466 29.0388 20.5004 28.9563C20.4445 29.0854 20.3735 29.2039 20.2875 29.3161C20.3434 29.2441 20.3993 29.1742 20.4553 29.1023C20.3628 29.2187 20.2574 29.3224 20.139 29.4134C20.2122 29.3584 20.2832 29.3034 20.3563 29.2483C20.2423 29.333 20.1218 29.4028 19.9906 29.4579C20.0767 29.4219 20.1627 29.3859 20.2466 29.352C20.1132 29.4071 19.9756 29.4452 19.8314 29.4663C19.9261 29.4536 20.0229 29.4409 20.1175 29.4282C19.9971 29.443 19.8766 29.4452 19.7561 29.4452C19.4808 29.4452 19.1904 29.5637 18.9946 29.7542C18.8075 29.9383 18.6677 30.2388 18.6806 30.5034C18.6935 30.7764 18.7838 31.06 18.9946 31.2526C19.2055 31.441 19.4636 31.5616 19.7561 31.5616Z" fill="#604BE8"/>
<path d="M19.1536 28.7912C19.1536 28.1393 19.1536 27.4874 19.1536 26.8355C19.1536 25.9318 19.1536 25.0281 19.1536 24.1243C19.1536 23.6883 19.1643 23.2545 19.2224 22.8227C19.2095 22.9158 19.1966 23.0111 19.1837 23.1042C19.2783 22.4227 19.4633 21.756 19.7344 21.1211C19.6978 21.2057 19.6612 21.2904 19.6268 21.3729C19.8957 20.7528 20.242 20.1686 20.6615 19.6353C20.6056 19.7072 20.5497 19.7771 20.4937 19.849C20.911 19.3199 21.395 18.8437 21.9328 18.4331C21.8597 18.4882 21.7887 18.5432 21.7156 18.5982C22.2576 18.1876 22.8514 17.8447 23.4816 17.5802C23.3956 17.6162 23.3095 17.6521 23.2257 17.686C23.871 17.4193 24.5486 17.2373 25.2413 17.1442C25.1466 17.1569 25.0498 17.1696 24.9552 17.1823C25.65 17.0934 26.3534 17.0934 27.0482 17.1823C26.9536 17.1696 26.8568 17.1569 26.7621 17.1442C27.4548 17.2373 28.1324 17.4193 28.7777 17.686C28.6917 17.65 28.6056 17.6141 28.5217 17.5802C29.152 17.8447 29.7457 18.1855 30.2878 18.5982C30.2147 18.5432 30.1437 18.4882 30.0705 18.4331C30.6083 18.8437 31.0923 19.3199 31.5096 19.849C31.4537 19.7771 31.3978 19.7072 31.3419 19.6353C31.7592 20.1686 32.1077 20.7528 32.3765 21.3729C32.34 21.2883 32.3034 21.2036 32.269 21.1211C32.54 21.756 32.725 22.4227 32.8197 23.1042C32.8068 23.0111 32.7939 22.9158 32.781 22.8227C32.8412 23.2714 32.8498 23.7201 32.8498 24.1709C32.8498 24.6598 32.8498 25.1466 32.8498 25.6355C32.8498 26.8525 32.8498 28.0694 32.8498 29.2864C32.8498 29.678 32.867 30.0759 32.8154 30.4653C32.8283 30.3722 32.8412 30.2769 32.8541 30.1838C32.8089 30.5055 32.7229 30.8187 32.596 31.1172C32.6325 31.0325 32.6691 30.9478 32.7035 30.8653C32.5745 31.1658 32.4067 31.4473 32.2023 31.7077C32.2582 31.6357 32.3142 31.5659 32.3701 31.4939C32.1722 31.7436 31.9463 31.9659 31.6925 32.1606C31.7656 32.1056 31.8366 32.0505 31.9098 31.9955C31.6473 32.1944 31.3591 32.3595 31.0536 32.4886C31.1396 32.4527 31.2257 32.4167 31.3096 32.3828C31.0041 32.5077 30.6879 32.5923 30.3609 32.6368C30.4556 32.6241 30.5524 32.6114 30.647 32.5987C30.3136 32.641 29.978 32.6326 29.6425 32.6326C29.2251 32.6326 28.8078 32.6326 28.3905 32.6326C28.2851 32.6326 28.1818 32.6326 28.0764 32.6326C27.8011 32.6326 27.5107 32.7511 27.3149 32.9416C27.1278 33.1257 26.988 33.4262 27.0009 33.6908C27.0138 33.9638 27.1041 34.2474 27.3149 34.44C27.5258 34.6305 27.7839 34.749 28.0764 34.749C28.6056 34.749 29.1326 34.749 29.6618 34.749C29.8619 34.749 30.0619 34.7533 30.262 34.7469C30.589 34.7363 30.9181 34.694 31.2365 34.6242C31.5505 34.5564 31.8431 34.44 32.1399 34.3152C32.639 34.1035 33.0972 33.7882 33.493 33.422C33.8845 33.058 34.2265 32.6135 34.4653 32.1394C34.76 31.551 34.9235 30.9605 34.9837 30.3087C34.9988 30.152 34.9988 29.9954 34.9988 29.8367C34.9988 28.7425 34.9988 27.6483 34.9988 26.554C34.9988 25.6545 35.0009 24.755 34.9988 23.8555C34.9966 22.8566 34.8288 21.8407 34.4782 20.9031C34.2889 20.3951 34.063 19.8956 33.7855 19.4279C33.5102 18.9644 33.1854 18.5284 32.8347 18.1178C32.1808 17.3495 31.3741 16.6934 30.4986 16.1939C29.6167 15.6902 28.6293 15.3198 27.6226 15.1505C27.0654 15.0574 26.5018 14.996 25.9382 15.0002C25.366 15.0044 24.7917 15.07 24.2302 15.1759C23.2214 15.3664 22.2297 15.7537 21.352 16.2807C20.4959 16.795 19.7064 17.4532 19.0761 18.2215C18.7319 18.6405 18.4114 19.0765 18.1447 19.5464C17.8758 20.0184 17.6542 20.5221 17.4735 21.0343C17.1552 21.9359 17.0024 22.9074 17.0024 23.8598C17.0024 24.2238 17.0024 24.5857 17.0024 24.9498C17.0024 26.1456 17.0024 27.3435 17.0024 28.5393C17.0024 28.624 17.0024 28.7065 17.0024 28.7912C17.0024 29.0621 17.1229 29.3478 17.3165 29.5404C17.5037 29.7245 17.8091 29.8621 18.078 29.8494C18.3555 29.8367 18.6438 29.7478 18.8395 29.5404C19.031 29.333 19.1536 29.0769 19.1536 28.7912Z" fill="#604BE8"/>
<path d="M26.9989 33.6867C26.9989 33.7459 26.9946 33.8052 26.986 33.8623C26.9989 33.7692 27.0118 33.674 27.0248 33.5809C27.0075 33.6846 26.9796 33.7862 26.9409 33.8835C26.9774 33.7989 27.014 33.7142 27.0484 33.6316C27.0032 33.7354 26.9452 33.8306 26.8763 33.9216C26.9323 33.8496 26.9882 33.7798 27.0441 33.7078C26.9796 33.7883 26.9064 33.8602 26.8247 33.9237C26.8978 33.8687 26.9688 33.8137 27.042 33.7586C26.9516 33.8264 26.8527 33.8835 26.7473 33.928C26.8333 33.892 26.9193 33.856 27.0032 33.8221C26.9043 33.8623 26.801 33.8899 26.6956 33.9047C26.7903 33.892 26.8871 33.8793 26.9817 33.8666C26.6999 33.9026 26.4052 33.8793 26.1213 33.8793C25.833 33.8793 25.534 33.9026 25.2479 33.8687C25.3426 33.8814 25.4394 33.8941 25.534 33.9068C25.4222 33.8899 25.3168 33.8623 25.2114 33.82C25.2974 33.856 25.3834 33.892 25.4673 33.9258C25.3662 33.8814 25.2737 33.8285 25.1855 33.7629C25.2587 33.8179 25.3297 33.8729 25.4028 33.928C25.3168 33.8602 25.2415 33.7862 25.1726 33.7015C25.2286 33.7735 25.2845 33.8433 25.3404 33.9153C25.2737 33.8285 25.22 33.7375 25.1748 33.638C25.2114 33.7227 25.2479 33.8073 25.2823 33.8899C25.2393 33.7883 25.2114 33.6824 25.1941 33.5724C25.2071 33.6655 25.22 33.7608 25.2329 33.8539C25.2178 33.7375 25.2178 33.6232 25.2329 33.5089C25.22 33.602 25.2071 33.6973 25.1941 33.7904C25.2114 33.6867 25.2393 33.5851 25.278 33.4877C25.2415 33.5724 25.2049 33.657 25.1705 33.7396C25.2157 33.6359 25.2737 33.5406 25.3426 33.4496C25.2866 33.5216 25.2307 33.5914 25.1748 33.6634C25.2393 33.583 25.3125 33.511 25.3942 33.4475C25.3211 33.5025 25.2501 33.5576 25.1769 33.6126C25.2673 33.5449 25.3662 33.4877 25.4716 33.4433C25.3856 33.4793 25.2996 33.5152 25.2157 33.5491C25.3146 33.5089 25.4179 33.4814 25.5233 33.4666C25.4286 33.4793 25.3318 33.492 25.2372 33.5047C25.519 33.4687 25.8137 33.492 26.0976 33.492C26.3859 33.492 26.6849 33.4687 26.971 33.5025C26.8763 33.4898 26.7795 33.4771 26.6849 33.4644C26.7967 33.4814 26.9021 33.5089 27.0075 33.5512C26.9215 33.5152 26.8355 33.4793 26.7516 33.4454C26.8527 33.4898 26.9452 33.5428 27.0334 33.6084C26.9602 33.5533 26.8892 33.4983 26.8161 33.4433C26.9021 33.511 26.9774 33.5851 27.0463 33.6697C26.9903 33.5978 26.9344 33.5279 26.8785 33.456C26.9452 33.5428 26.9989 33.6338 27.0441 33.7332C27.0075 33.6486 26.971 33.5639 26.9366 33.4814C26.9796 33.583 27.0075 33.6888 27.0248 33.7989C27.0118 33.7057 26.9989 33.6105 26.986 33.5174C26.9946 33.5745 26.9968 33.6295 26.9989 33.6867C27.0032 33.9597 27.1173 34.2412 27.313 34.4359C27.5002 34.62 27.8056 34.7576 28.0745 34.7449C28.352 34.7322 28.6403 34.6433 28.836 34.4359C29.0275 34.2306 29.1544 33.9724 29.1501 33.6867C29.1436 33.2655 29.0318 32.821 28.7951 32.4676C28.6854 32.3046 28.5628 32.1417 28.4144 32.0104C28.2617 31.875 28.0874 31.7374 27.9003 31.6464C27.5453 31.4771 27.1947 31.3797 26.7967 31.3755C26.7107 31.3755 26.6268 31.3755 26.5408 31.3755C26.2331 31.3755 25.9234 31.3755 25.6158 31.3755C25.5512 31.3755 25.4845 31.3755 25.42 31.3755C25.0178 31.3797 24.6413 31.4792 24.2864 31.6633C23.9422 31.8432 23.6798 32.1184 23.456 32.4253C23.2237 32.7448 23.1334 33.1237 23.086 33.5068C23.0344 33.9301 23.1506 34.3534 23.3334 34.7322C23.512 35.1047 23.8153 35.3926 24.1552 35.6233C24.8371 36.0889 25.7212 35.9915 26.5085 35.9915C26.6053 35.9915 26.7042 35.9915 26.801 35.9915C27.2054 35.9873 27.5819 35.8878 27.939 35.7037C28.6876 35.3142 29.1436 34.5036 29.1522 33.6824C29.1565 33.4137 29.0296 33.1237 28.8382 32.9332C28.651 32.7491 28.3455 32.6115 28.0767 32.6242C27.4851 32.6538 27.0054 33.0941 26.9989 33.6867Z" fill="#604BE8"/>
</svg>
