<svg width="52" height="52" viewBox="0 0 52 52" fill="none" xmlns="http://www.w3.org/2000/svg">
<circle cx="26" cy="26" r="26" fill="#F3F7FF"/>
<path fill-rule="evenodd" clip-rule="evenodd" d="M18.7648 29.3566H18.7669C17.6567 27.8599 17 26.0066 17 24C17 19.0294 21.0294 15 26 15C30.9706 15 35 19.0294 35 24C35 26.0216 34.2713 27.8207 33.2082 29.3899L26.4986 39L18.7648 29.3566ZM20.3772 28.1704L26.3878 35.6651L31.5524 28.2681C32.5058 26.8609 33 25.4513 33 24C33 20.134 29.866 17 26 17C22.134 17 19 20.134 19 24C19 25.5237 19.4857 26.9686 20.3732 28.165L20.3772 28.1704ZM26 28C23.7909 28 22 26.2091 22 24C22 21.7909 23.7909 20 26 20C28.2091 20 30 21.7909 30 24C30 26.2091 28.2091 28 26 28ZM26 26C27.1046 26 28 25.1046 28 24C28 22.8954 27.1046 22 26 22C24.8954 22 24 22.8954 24 24C24 25.1046 24.8954 26 26 26Z" fill="#604BE8"/>
</svg>
