<svg width="44" height="44" viewBox="0 0 44 44" fill="none" xmlns="http://www.w3.org/2000/svg">
<g clip-path="url(#clip0)">
<path d="M35.2829 20.0667C35.0839 19.8676 34.8561 19.707 34.609 19.5886L35.001 19.1966C35.9581 18.2395 35.9582 16.6819 35.0011 15.7246C34.7993 15.5228 34.5708 15.3635 34.3269 15.2468L34.9608 14.6129C35.9178 13.6556 35.9178 12.0981 34.9608 11.1408C34.5308 10.7109 33.9675 10.4607 33.3624 10.4277C33.3302 9.84551 33.0925 9.27266 32.6488 8.82881C32.1864 8.36637 31.5698 8.11169 30.9127 8.11169C30.2556 8.11175 29.639 8.36643 29.1766 8.82887L28.5428 9.46275C28.4261 9.2189 28.2668 8.99036 28.0651 8.78862C27.1078 7.83137 25.5502 7.83137 24.593 8.78862L21.8719 11.5096C21.7547 11.2638 21.5945 11.0335 21.3912 10.8302C20.4363 9.87526 18.8824 9.8752 17.9274 10.8302L13.428 15.3295C11.8019 16.9554 10.8712 19.1246 10.8071 21.4372C10.7862 22.1913 10.4796 22.9017 9.94393 23.4374L8.68421 24.6971C8.24661 25.1346 8.00077 25.7281 8.00077 26.347L8.00073 32.663C8.00072 34.4671 9.46326 35.9297 11.2674 35.9297H17.3015C17.9203 35.9297 18.5138 35.6839 18.9514 35.2463L20.3522 33.8454C20.8879 33.3098 21.5982 33.0033 22.3524 32.9824C24.665 32.9182 26.834 31.9874 28.4599 30.3615L35.2828 23.5388C36.2399 22.5816 36.24 21.024 35.2829 20.0667ZM30.9128 9.75232C31.1316 9.75232 31.3361 9.83632 31.4887 9.98884C31.8059 10.3061 31.8061 10.8221 31.4897 11.1398L31.4886 11.1408L30.8547 11.7747C30.7381 11.5309 30.5788 11.3023 30.3771 11.1006C30.1752 10.8987 29.9465 10.74 29.7025 10.6233L30.3368 9.98901C30.4894 9.83637 30.6939 9.75232 30.9128 9.75232ZM25.753 9.9487C26.0707 9.63119 26.5874 9.63113 26.9049 9.94865C27.2225 10.2663 27.2224 10.783 26.9049 11.1006L24.1838 13.8216C24.0667 13.5757 23.9065 13.3455 23.7031 13.1421C23.5028 12.9417 23.2759 12.784 23.0339 12.6678L25.753 9.9487ZM14.588 16.4896L19.0874 11.9903C19.2401 11.8376 19.4433 11.7534 19.6593 11.7534C19.8753 11.7534 20.0784 11.8376 20.2311 11.9903C20.5508 12.3099 20.5509 12.8299 20.2316 13.1498L15.7399 17.6415C14.1138 19.2674 13.183 21.4365 13.119 23.7492C13.1058 24.2235 12.9795 24.6804 12.7544 25.0876L11.6319 23.9651C12.1368 23.2384 12.4221 22.3809 12.447 21.4826C12.4994 19.591 13.2598 17.8178 14.588 16.4896ZM9.6414 26.06L10.5241 25.1773L11.676 26.3292L9.6414 28.3638V26.06ZM17.5884 34.2891H11.9747C10.686 34.2891 9.64134 33.2444 9.64134 31.9557V30.684L12.8361 27.4893L18.6121 33.2654L17.5884 34.2891ZM34.1227 22.3787L27.2997 29.2013C25.9716 30.5295 24.1985 31.2898 22.3069 31.3423C21.4087 31.3672 20.5511 31.6525 19.8244 32.1575L13.9439 26.2769C14.4488 25.5502 14.7341 24.6927 14.7589 23.7945C14.8113 21.9029 15.5717 20.1297 16.9 18.8015L21.3912 14.3103L21.3999 14.3016C21.5526 14.1492 21.7554 14.0652 21.9712 14.0652C22.1872 14.0652 22.3903 14.1494 22.543 14.3021C22.8627 14.6217 22.8629 15.1417 22.5435 15.4617L19.6235 18.3817L20.7836 19.5418L28.065 12.2607C28.3826 11.943 28.8994 11.943 29.2169 12.2606C29.5338 12.5775 29.5345 13.0928 29.2189 13.4106L23.4894 19.1401L24.6494 20.3002L32.6498 12.2999C32.8023 12.148 33.0064 12.0643 33.2247 12.0643C33.4435 12.0643 33.6481 12.1483 33.8006 12.3009C34.1181 12.6185 34.1181 13.1353 33.8006 13.4529L25.8014 21.4521L26.9615 22.6122L32.689 16.8846C33.0066 16.5671 33.5234 16.567 33.8409 16.8846C34.1585 17.2022 34.1584 17.719 33.8409 18.0365L27.34 24.5375L28.5 25.6976L32.9708 21.2268C33.1234 21.0742 33.3279 20.9902 33.5468 20.9902C33.7656 20.9902 33.9701 21.0742 34.1227 21.2267C34.4402 21.5444 34.4402 22.0611 34.1227 22.3787Z" fill="#06D6A0"/>
</g>
<defs>
<clipPath id="clip0">
<rect width="28" height="28" fill="white" transform="translate(8.00049 8.00006)"/>
</clipPath>
</defs>
</svg>
