<svg width="30" height="28" viewBox="0 0 30 28" fill="none" xmlns="http://www.w3.org/2000/svg">
<path fill-rule="evenodd" clip-rule="evenodd" d="M5.5756 6.6398C5.11349 6.6398 4.72309 6.98259 4.66332 7.44081L2.38332 24.9208C2.31149 25.4715 2.74024 25.9598 3.2956 25.9598H26.7044C27.2598 25.9598 27.6885 25.4715 27.6167 24.9208L25.3367 7.44081C25.2769 6.98259 24.8865 6.6398 24.4244 6.6398H21.67V4.7998H24.4244C25.8107 4.7998 26.9819 5.82816 27.1612 7.20283L29.4412 24.6828C29.6567 26.3349 28.3705 27.7998 26.7044 27.7998H3.2956C1.62954 27.7998 0.343292 26.3349 0.558779 24.6828L2.83878 7.20283C3.01808 5.82816 4.18929 4.7998 5.5756 4.7998H9.02001V6.6398H5.5756Z" fill="#4B76E6"/>
<path fill-rule="evenodd" clip-rule="evenodd" d="M9.23858 7.63421C9.23858 4.44242 11.9007 1.819 15.2296 1.819C18.5585 1.819 21.2207 4.44242 21.2207 7.63421C21.2207 8.74526 20.9327 9.77651 20.3871 10.5965L15.2296 18.1893L10.0803 10.6083C9.54525 9.73776 9.23858 8.72146 9.23858 7.63421ZM8.71198 11.4743C8.01892 10.3539 7.61938 9.0389 7.61938 7.63421C7.61938 3.50844 11.0467 0.199799 15.2296 0.199799C19.4125 0.199799 22.8399 3.50844 22.8399 7.63421C22.8399 9.01973 22.4808 10.3749 21.7324 11.4975L21.7285 11.5033L15.8993 20.0851C15.5781 20.558 14.8811 20.558 14.5599 20.0851L8.73079 11.5033L8.71198 11.4743Z" fill="#4B76E6"/>
<path fill-rule="evenodd" clip-rule="evenodd" d="M15.2302 10.4006C16.661 10.4006 17.8209 9.2407 17.8209 7.80988C17.8209 6.37907 16.661 5.21916 15.2302 5.21916C13.7994 5.21916 12.6395 6.37907 12.6395 7.80988C12.6395 9.2407 13.7994 10.4006 15.2302 10.4006ZM15.2302 12.0198C17.5553 12.0198 19.4401 10.135 19.4401 7.80988C19.4401 5.48481 17.5553 3.59996 15.2302 3.59996C12.9051 3.59996 11.0203 5.48481 11.0203 7.80988C11.0203 10.135 12.9051 12.0198 15.2302 12.0198Z" fill="#4B76E6"/>
<path fill-rule="evenodd" clip-rule="evenodd" d="M10.249 21.5898H2.12012V19.7498H10.249C10.737 19.7498 11.2051 19.9437 11.5501 20.2887L14.0012 22.7398L27.6501 22.7398V24.5798H14.0012C13.5132 24.5798 13.0452 24.3859 12.7001 24.0409L10.249 21.5898Z" fill="#4B76E6"/>
<path fill-rule="evenodd" clip-rule="evenodd" d="M10.5906 13.5004L8.56008 15.5309C8.21501 15.876 7.747 16.0699 7.259 16.0699H2.58008V14.2299H7.259L9.28954 12.1993L10.5906 13.5004Z" fill="#4B76E6"/>
</svg>
