<svg width="31" height="28" viewBox="0 0 31 28" fill="none" xmlns="http://www.w3.org/2000/svg">
<rect x="1.83756" y="1.6035" width="28.3225" height="18.6158" rx="1.26" stroke="#604BE8" stroke-width="1.68"/>
<path fill-rule="evenodd" clip-rule="evenodd" d="M15.9982 11.9409C17.9476 11.9409 19.5279 10.3606 19.5279 8.41122C19.5279 6.46181 17.9476 4.88151 15.9982 4.88151C14.0488 4.88151 12.4685 6.46181 12.4685 8.41122C12.4685 10.3606 14.0488 11.9409 15.9982 11.9409ZM15.9982 13.4116C18.7599 13.4116 20.9986 11.1729 20.9986 8.41122C20.9986 5.64956 18.7599 3.4108 15.9982 3.4108C13.2366 3.4108 10.9978 5.64956 10.9978 8.41122C10.9978 11.1729 13.2366 13.4116 15.9982 13.4116Z" fill="#604BE8"/>
<path fill-rule="evenodd" clip-rule="evenodd" d="M22.7635 19.5882V18.6307C22.7635 16.8106 21.1271 15.4274 19.3324 15.7304L16.7327 16.1693C16.2465 16.2514 15.7499 16.2514 15.2637 16.1693L12.664 15.7304C10.8693 15.4274 9.23292 16.8106 9.23292 18.6307V19.5882H22.7635ZM12.9089 14.2802C10.2168 13.8257 7.76221 15.9005 7.76221 18.6307V20.7648C7.76221 20.9273 7.8939 21.059 8.05635 21.059H23.94C24.1025 21.059 24.2342 20.9273 24.2342 20.7648V18.6307C24.2342 15.9005 21.7796 13.8257 19.0875 14.2802L16.4879 14.7191C16.1637 14.7738 15.8327 14.7738 15.5085 14.7191L12.9089 14.2802Z" fill="#604BE8"/>
<path d="M11.0231 20.9962C11.1947 20.4816 11.6761 20.1346 12.2185 20.1346H19.7804C20.3228 20.1346 20.8043 20.4816 20.9758 20.9962L22.223 24.738C22.495 25.5539 21.8877 26.3964 21.0277 26.3964H10.9712C10.1112 26.3964 9.50391 25.5539 9.77587 24.738L11.0231 20.9962Z" stroke="#604BE8" stroke-width="1.68"/>
</svg>
