<svg width="60" height="60" viewBox="0 0 60 60" fill="none" xmlns="http://www.w3.org/2000/svg">
<circle cx="30" cy="30" r="30" fill="#FFDEDF"/>
<path fill-rule="evenodd" clip-rule="evenodd" d="M21.8607 31.3198C25.3843 31.3198 28.2407 28.4634 28.2407 24.9398C28.2407 21.4163 25.3843 18.5598 21.8607 18.5598C18.3371 18.5598 15.4807 21.4163 15.4807 24.9398C15.4807 28.4634 18.3371 31.3198 21.8607 31.3198ZM21.8607 33.0798C26.3563 33.0798 30.0007 29.4354 30.0007 24.9398C30.0007 20.4442 26.3563 16.7998 21.8607 16.7998C17.3651 16.7998 13.7207 20.4442 13.7207 24.9398C13.7207 29.4354 17.3651 33.0798 21.8607 33.0798Z" fill="#FF595E"/>
<path fill-rule="evenodd" clip-rule="evenodd" d="M38.1395 41.4397C41.6631 41.4397 44.5195 38.5833 44.5195 35.0597C44.5195 31.5362 41.6631 28.6797 38.1395 28.6797C34.6159 28.6797 31.7595 31.5362 31.7595 35.0597C31.7595 38.5833 34.6159 41.4397 38.1395 41.4397ZM38.1395 43.1997C42.6351 43.1997 46.2795 39.5553 46.2795 35.0597C46.2795 30.5641 42.6351 26.9197 38.1395 26.9197C33.6439 26.9197 29.9995 30.5641 29.9995 35.0597C29.9995 39.5553 33.6439 43.1997 38.1395 43.1997Z" fill="#FF595E"/>
<path fill-rule="evenodd" clip-rule="evenodd" d="M22.0787 31.3196C22.5647 31.3196 22.9587 31.7136 22.9587 32.1996L22.9587 41.8796C22.9587 42.3656 22.5647 42.7596 22.0787 42.7596C21.5927 42.7596 21.1987 42.3656 21.1987 41.8796L21.1987 32.1996C21.1987 31.7136 21.5927 31.3196 22.0787 31.3196Z" fill="#FF595E"/>
<path fill-rule="evenodd" clip-rule="evenodd" d="M16.3589 38.3601C16.3589 37.8741 16.7529 37.4801 17.2389 37.4801L26.9189 37.4801C27.4049 37.4801 27.7989 37.8741 27.7989 38.3601C27.7989 38.8461 27.4049 39.2401 26.9189 39.2401L17.2389 39.2401C16.7529 39.2401 16.3589 38.8461 16.3589 38.3601Z" fill="#FF595E"/>
<path fill-rule="evenodd" clip-rule="evenodd" d="M37.7364 17.4978C38.0801 17.1542 38.6373 17.1542 38.981 17.4978L44.5812 23.0981C44.9249 23.4418 44.9249 23.999 44.5812 24.3426C44.2376 24.6863 43.6804 24.6863 43.3367 24.3426L39.2387 20.2446L39.2387 28.2401L37.4787 28.2401L37.4787 20.2446L33.3807 24.3426C33.037 24.6863 32.4798 24.6863 32.1362 24.3426C31.7925 23.999 31.7925 23.4418 32.1362 23.0981L37.7364 17.4978Z" fill="#FF595E"/>
</svg>
