<svg width="60" height="60" viewBox="0 0 60 60" fill="none" xmlns="http://www.w3.org/2000/svg">
<circle cx="30" cy="30" r="30" fill="#FFF8ED"/>
<path fill-rule="evenodd" clip-rule="evenodd" d="M14.5379 29.9864C15.6691 31.6152 17.6118 33.8641 20.1026 35.7864C22.8547 37.9104 26.1953 39.5746 29.7917 39.6603C33.3667 39.7454 36.7689 38.1285 39.6168 35.9763C42.1938 34.0288 44.2395 31.7005 45.4465 29.9977C44.2755 28.3345 42.2735 26.0524 39.7151 24.1219C36.8835 21.9852 33.4527 20.34 29.7698 20.34C26.0903 20.34 22.7394 21.9824 20.0087 24.1129C17.534 26.0436 15.6324 28.3268 14.5379 29.9864ZM18.8768 22.6621C21.7964 20.3843 25.5372 18.5 29.7698 18.5C33.9988 18.5 37.813 20.3815 40.8234 22.6531C43.837 24.9272 46.1276 27.6532 47.3304 29.4974L47.66 30.0028L47.3278 30.5065C46.0884 32.3856 43.7532 35.1567 40.7262 37.4442C37.7053 39.7272 33.9008 41.5986 29.7479 41.4997C25.6162 41.4014 21.9035 39.5006 18.9784 37.2431C16.0499 34.9829 13.8299 32.3038 12.6664 30.4984L12.3542 30.0139L12.6539 29.5217C13.7796 27.6724 15.9561 24.9409 18.8768 22.6621Z" fill="#FF9F04"/>
<path fill-rule="evenodd" clip-rule="evenodd" d="M30.002 34.6001C32.5425 34.6001 34.602 32.5406 34.602 30.0001C34.602 27.4596 32.5425 25.4001 30.002 25.4001C27.4615 25.4001 25.402 27.4596 25.402 30.0001C25.402 32.5406 27.4615 34.6001 30.002 34.6001ZM30.002 36.4401C33.5587 36.4401 36.442 33.5568 36.442 30.0001C36.442 26.4434 33.5587 23.5601 30.002 23.5601C26.4453 23.5601 23.562 26.4434 23.562 30.0001C23.562 33.5568 26.4453 36.4401 30.002 36.4401Z" fill="#FF9F04"/>
</svg>
