<svg width="34" height="28" viewBox="0 0 34 28" fill="none" xmlns="http://www.w3.org/2000/svg">
<path fill-rule="evenodd" clip-rule="evenodd" d="M5.76391 0.935448C5.92145 0.780677 6.17231 0.774939 6.33702 0.92205C8.05247 2.45413 10.0923 2.78087 11.9634 2.55331C13.7993 2.33003 15.4417 1.5747 16.3741 0.939014C16.4196 0.907984 16.4689 0.8835 16.5214 0.866919C16.627 0.833604 16.7402 0.833604 16.8458 0.866919C16.8983 0.8835 16.9475 0.907984 16.9931 0.938967C17.9247 1.57273 19.6087 2.32941 21.4895 2.55317C23.4079 2.78142 25.49 2.45258 27.2038 0.92205C27.3685 0.774939 27.6193 0.780677 27.7769 0.935448L31.9306 5.01612C32.1082 5.19065 32.0866 5.4834 31.8861 5.63112C31.3765 6.00656 30.7068 6.70538 30.3612 7.5573C30.0246 8.38719 29.9923 9.35949 30.7287 10.3724C31.8278 11.884 32.7831 14.8343 32.6227 17.7219C32.4611 20.6327 31.1539 23.5673 27.629 24.8659C24.5161 26.0128 22.0121 25.8526 20.2267 25.7383C20.0521 25.7272 19.8839 25.7164 19.7232 25.7074C19.271 25.682 18.8892 25.6708 18.5629 25.6957C18.2371 25.7205 17.9934 25.7796 17.8067 25.8771C17.473 26.0513 16.7815 26.3783 16.6836 27.3403C16.585 26.3722 15.9009 26.0461 15.5827 25.8745C15.4053 25.7788 15.1727 25.7202 14.8582 25.6956C14.543 25.6709 14.1728 25.682 13.7313 25.7073C13.5758 25.7163 13.4134 25.7269 13.2442 25.738C11.4968 25.8523 9.02744 26.0138 5.91177 24.8659C2.38693 23.5673 1.07966 20.6327 0.91805 17.7219C0.757724 14.8343 1.71298 11.884 2.81204 10.3724C3.54846 9.35949 3.51623 8.38719 3.17956 7.5573C2.83395 6.70538 2.16425 6.00656 1.65471 5.63112C1.45422 5.4834 1.43258 5.19065 1.61022 5.01612L5.76391 0.935448ZM16.6881 25.8471C16.8686 25.5469 17.1081 25.3176 17.4167 25.1565C17.7427 24.9862 18.1123 24.9114 18.4988 24.882C18.8848 24.8526 19.3142 24.867 19.7706 24.8926C19.9339 24.9017 20.1026 24.9124 20.2768 24.9235C22.054 25.0363 24.3971 25.185 27.3373 24.1018C30.4584 22.9519 31.6433 20.3776 31.7932 17.6775C31.9444 14.9542 31.0305 12.1916 30.0527 10.8467C29.1277 9.57443 29.1647 8.30236 29.5895 7.25514C29.8501 6.61288 30.2551 6.05468 30.6684 5.61892C30.8515 5.42591 30.8602 5.11875 30.6704 4.93232L27.7543 2.06748C27.5878 1.90394 27.326 1.89243 27.1365 2.02862C25.3294 3.32728 23.2533 3.58513 21.3896 3.36339C19.4701 3.13501 17.7413 2.39564 16.6839 1.71802C15.6348 2.39404 13.9469 3.13444 12.0655 3.36326C10.2378 3.58554 8.20164 3.32631 6.4041 2.0295C6.21469 1.89286 5.95261 1.90425 5.786 2.06793L2.87037 4.93232C2.6806 5.11875 2.68928 5.42591 2.87235 5.61892C3.28565 6.05468 3.69071 6.61288 3.95126 7.25514C4.3761 8.30236 4.41309 9.57443 3.48804 10.8467C2.51026 12.1916 1.59635 14.9542 1.74755 17.6775C1.89747 20.3776 3.08241 22.9519 6.20346 24.1018C9.14616 25.1859 11.4552 25.036 13.1927 24.9232C13.3613 24.9123 13.5249 24.9017 13.6828 24.8926C14.1282 24.867 14.5476 24.8525 14.9243 24.882C15.3018 24.9116 15.6635 24.9869 15.9825 25.1591C16.2819 25.3206 16.5135 25.5491 16.6881 25.8471Z" fill="#FF9F04"/>
<path fill-rule="evenodd" clip-rule="evenodd" d="M6.05854 1.29017L5.82442 1.52017C5.97827 1.47047 6.14197 1.46251 6.29869 1.49368C6.21803 1.42821 6.13797 1.3604 6.05854 1.29017ZM27.2417 1.49299C27.3981 1.4621 27.5614 1.47012 27.7149 1.51972L27.4813 1.29017C27.4021 1.36015 27.3222 1.42774 27.2417 1.49299ZM31.2192 4.96239C31.2896 5.16826 31.2834 5.39166 31.2114 5.59302C31.3317 5.4824 31.4498 5.38393 31.5617 5.29882L31.2192 4.96239ZM2.3284 5.59302C2.2564 5.39166 2.25024 5.16826 2.32063 4.96238L1.97817 5.29882C2.09005 5.38392 2.20813 5.4824 2.3284 5.59302ZM5.44106 0.607102C5.77185 0.282129 6.2978 0.270482 6.64296 0.578756C8.23425 1.99996 10.1294 2.31269 11.9074 2.09646C13.6621 1.88306 15.2357 1.1579 16.1145 0.558736C16.1948 0.503985 16.2845 0.458989 16.3825 0.428047C16.5781 0.366286 16.7881 0.366286 16.9837 0.428048C17.0818 0.459004 17.1713 0.50397 17.2514 0.558426C18.1264 1.15372 19.7411 1.88175 21.5434 2.09619C23.3727 2.31384 25.3092 1.99672 26.8969 0.578756C27.242 0.270483 27.768 0.282128 28.0988 0.607102L32.2525 4.68778C32.6334 5.06204 32.5854 5.68666 32.1585 6.00125C31.6978 6.34066 31.0927 6.97656 30.787 7.73002C30.501 8.43498 30.4707 9.23565 31.1003 10.1016C32.2679 11.7076 33.2471 14.7649 33.0815 17.7472C32.9131 20.7808 31.5349 23.9168 27.7876 25.2974C24.5833 26.4778 21.9999 26.3125 20.204 26.1976L20.1968 26.1972L20.1951 26.1971C20.0208 26.1859 19.8551 26.1753 19.697 26.1665C19.2469 26.1412 18.8911 26.1318 18.5973 26.1541C18.3044 26.1764 18.1294 26.227 18.0191 26.2846C18.0108 26.2889 18.0025 26.2933 17.994 26.2977C17.6571 26.4732 17.21 26.7062 17.1407 27.3867H16.2255C16.156 26.7043 15.7203 26.4704 15.3987 26.2979C15.3869 26.2915 15.3753 26.2853 15.3638 26.2791C15.2643 26.2254 15.1022 26.1759 14.8219 26.154C14.5401 26.1319 14.1966 26.1411 13.7573 26.1664C13.6038 26.1752 13.4433 26.1857 13.2738 26.1968L13.2677 26.1972C11.5085 26.3123 8.95958 26.479 5.75228 25.2974C2.00491 23.9168 0.626709 20.7808 0.458283 17.7472C0.292701 14.7649 1.2719 11.7076 2.43951 10.1016C3.06915 9.23565 3.03881 8.43498 2.75282 7.73002C2.44716 6.97656 1.84202 6.34066 1.38137 6.00125C0.954427 5.68667 0.906413 5.06204 1.28738 4.68778L1.60975 5.01592L1.28738 4.68778L5.44106 0.607102ZM16.6843 2.25871C15.5789 2.92115 13.9384 3.5986 12.1205 3.81969C10.2112 4.0519 8.0499 3.78419 6.13449 2.40235C6.12653 2.3966 6.11813 2.39481 6.11203 2.39515C6.10969 2.39529 6.10835 2.3957 6.1079 2.39586L3.19227 5.26025C3.19214 5.26038 3.19205 5.26047 3.19198 5.26055C3.19177 5.26111 3.191 5.26353 3.19105 5.26801C3.19116 5.27852 3.1956 5.29158 3.20563 5.30216C3.64826 5.76884 4.08995 6.37432 4.37704 7.08201C4.85232 8.25355 4.8918 9.69738 3.85962 11.117C2.95036 12.3676 2.06043 15.0232 2.20637 17.6518C2.34942 20.2282 3.46275 22.6018 6.36201 23.6699C9.20925 24.7189 11.4364 24.576 13.1624 24.464L13.1632 24.464C13.3311 24.4531 13.4963 24.4423 13.6559 24.4332C14.1036 24.4074 14.5496 24.3911 14.9597 24.4232C15.3714 24.4555 15.8036 24.5399 16.2005 24.754C16.3841 24.8531 16.5475 24.9726 16.6917 25.1116C16.8419 24.9696 17.0122 24.8483 17.2033 24.7485C17.6057 24.5383 18.044 24.455 18.4634 24.4231C18.8819 24.3913 19.3372 24.4073 19.7959 24.4331C19.9608 24.4423 20.1307 24.4531 20.3041 24.4641L20.3054 24.4642C22.0725 24.5763 24.3334 24.7178 27.1778 23.6699C30.0771 22.6018 31.1904 20.2282 31.3335 17.6518C31.4794 15.0232 30.5895 12.3676 29.6802 11.117C28.648 9.69738 28.6875 8.25355 29.1628 7.08201C29.4499 6.37432 29.8916 5.76884 30.3342 5.30216C30.3442 5.29158 30.3487 5.27852 30.3488 5.26801C30.3488 5.26356 30.3481 5.26113 30.3478 5.26054C30.3478 5.26047 30.3477 5.26037 30.3476 5.26025L27.4315 2.39542C27.431 2.39525 27.4297 2.39483 27.4273 2.39469C27.4211 2.39434 27.4126 2.39614 27.4045 2.40196C25.4783 3.78622 23.2768 4.05102 21.3348 3.81996C19.4827 3.5996 17.8036 2.92362 16.6843 2.25871Z" fill="#FF9F04"/>
<path d="M11.2285 14.1143C11.8357 14.1143 12.3932 14.0481 12.901 13.9156C13.4199 13.7721 13.867 13.5679 14.2424 13.3029C14.6288 13.0379 14.9269 12.7233 15.1366 12.359C15.3464 11.9947 15.4513 11.5917 15.4513 11.1501C15.4513 10.576 15.3077 10.0571 15.0207 9.59346C14.7447 9.11874 14.3417 8.73786 13.8118 8.45082C13.2819 8.16378 12.6416 8.02026 11.8909 8.02026C11.1843 8.02026 10.5605 8.16378 10.0196 8.45082C9.47862 8.72682 9.05358 9.1077 8.74446 9.59346C8.44638 10.0792 8.29734 10.6423 8.29734 11.2826H10.1355C10.1355 10.9735 10.2128 10.6975 10.3673 10.4546C10.5329 10.2117 10.7482 10.024 11.0132 9.89154C11.2781 9.74802 11.5762 9.67626 11.9074 9.67626C12.2607 9.67626 12.5533 9.7425 12.7851 9.87498C13.0169 10.0075 13.1881 10.1951 13.2985 10.438C13.4199 10.6699 13.4806 10.9403 13.4806 11.2495C13.4806 11.4923 13.4254 11.7242 13.315 11.945C13.2157 12.1658 13.0666 12.3645 12.8679 12.5411C12.6802 12.7067 12.4484 12.8392 12.1724 12.9386C11.8964 13.0269 11.5817 13.0711 11.2285 13.0711V14.1143ZM11.8081 19.9931C12.6029 19.9931 13.2985 19.8551 13.8946 19.5791C14.4908 19.3031 14.9545 18.9223 15.2857 18.4365C15.6169 17.9397 15.7825 17.3601 15.7825 16.6977C15.7825 16.1126 15.6665 15.6158 15.4347 15.2073C15.2029 14.7878 14.8772 14.4511 14.4577 14.1971C14.0492 13.9322 13.5689 13.739 13.0169 13.6175C12.4649 13.4851 11.8688 13.4188 11.2285 13.4188V14.5449C11.6259 14.5449 11.9792 14.5891 12.2883 14.6774C12.6085 14.7547 12.8789 14.8761 13.0997 15.0417C13.3316 15.2073 13.5082 15.4115 13.6297 15.6544C13.7511 15.8973 13.8118 16.1733 13.8118 16.4824C13.8118 16.8688 13.729 17.2 13.5634 17.476C13.3978 17.741 13.166 17.9452 12.8679 18.0887C12.5809 18.2323 12.2386 18.304 11.8412 18.304C11.4548 18.304 11.1015 18.2323 10.7813 18.0887C10.4722 17.9342 10.2238 17.7189 10.0361 17.4429C9.8595 17.1669 9.77118 16.8467 9.77118 16.4824H7.80054C7.80054 16.9571 7.89438 17.4098 8.08206 17.8403C8.26974 18.2599 8.5347 18.6352 8.87694 18.9664C9.23022 19.2866 9.64974 19.5405 10.1355 19.7282C10.6323 19.9048 11.1898 19.9931 11.8081 19.9931Z" fill="#FF9F04"/>
<path d="M19.1801 13.9984C19.1801 13.3691 19.2408 12.8006 19.3623 12.2927C19.4837 11.7739 19.6548 11.3267 19.8756 10.9514C20.0964 10.576 20.3669 10.289 20.6871 10.0903C21.0072 9.8805 21.366 9.77562 21.7635 9.77562C22.0836 9.77562 22.3762 9.84186 22.6411 9.97434C22.9171 10.1068 23.16 10.3 23.3698 10.5539C23.5795 10.7968 23.7562 11.0894 23.8997 11.4316C24.0543 11.7739 24.1702 12.1658 24.2475 12.6074C24.3247 13.0379 24.3634 13.5016 24.3634 13.9984C24.3634 14.6277 24.3027 15.2018 24.1812 15.7207C24.0598 16.2285 23.8831 16.6701 23.6513 17.0455C23.4305 17.4208 23.16 17.7134 22.8399 17.9231C22.5197 18.1219 22.1609 18.2212 21.7635 18.2212C21.4433 18.2212 21.1507 18.155 20.8858 18.0225C20.6208 17.89 20.3835 17.7023 20.1737 17.4595C19.9639 17.2055 19.7818 16.9075 19.6272 16.5652C19.4837 16.223 19.3733 15.8366 19.296 15.406C19.2187 14.9644 19.1801 14.4952 19.1801 13.9984ZM17.2591 13.9984C17.2591 14.716 17.3254 15.3839 17.4579 16.0022C17.6014 16.6094 17.8056 17.1614 18.0706 17.6582C18.3355 18.1439 18.6502 18.5635 19.0145 18.9167C19.3899 19.259 19.8039 19.5239 20.2565 19.7116C20.7202 19.8883 21.2225 19.9766 21.7635 19.9766C22.4479 19.9766 23.0662 19.8386 23.6182 19.5626C24.1702 19.2755 24.6449 18.8671 25.0423 18.3371C25.4398 17.8072 25.7434 17.1779 25.9531 16.4493C26.1739 15.7096 26.2843 14.8927 26.2843 13.9984C26.2843 13.2808 26.2126 12.6184 26.0691 12.0112C25.9366 11.393 25.7379 10.841 25.4729 10.3552C25.2079 9.85842 24.8878 9.4389 24.5124 9.09666C24.1481 8.74338 23.7341 8.47842 23.2704 8.30178C22.8067 8.1141 22.3044 8.02026 21.7635 8.02026C21.09 8.02026 20.4773 8.16378 19.9253 8.45082C19.3733 8.72682 18.8986 9.12978 18.5011 9.6597C18.1037 10.1896 17.7946 10.8244 17.5738 11.5641C17.364 12.2927 17.2591 13.1042 17.2591 13.9984Z" fill="#FF9F04"/>
</svg>
