<svg width="21" height="33" viewBox="0 0 21 33" fill="none" xmlns="http://www.w3.org/2000/svg">
<path fill-rule="evenodd" clip-rule="evenodd" d="M12.9597 7.37148H8.09966C7.50319 7.37148 7.01966 7.85501 7.01966 8.45148V14.1215C7.01966 16.06 8.59114 17.6315 10.5297 17.6315C12.4682 17.6315 14.0397 16.06 14.0397 14.1215V8.45148C14.0397 7.85501 13.5561 7.37148 12.9597 7.37148ZM8.09966 5.75148C6.60849 5.75148 5.39966 6.96031 5.39966 8.45148V14.1215C5.39966 16.9547 7.69644 19.2515 10.5297 19.2515C13.3629 19.2515 15.6597 16.9547 15.6597 14.1215V8.45148C15.6597 6.96031 14.4508 5.75148 12.9597 5.75148H8.09966Z" fill="#4B76E6"/>
<path fill-rule="evenodd" clip-rule="evenodd" d="M10.9208 1.66312C10.835 1.60781 10.7254 1.60555 10.6375 1.65728L3.64935 5.76796C3.46988 5.87353 3.4724 6.13392 3.65387 6.236L6.33767 7.74564L5.54345 9.15759L2.85965 7.64796C1.58931 6.93339 1.57169 5.11061 2.82797 4.37162L9.81613 0.260945C10.4317 -0.101172 11.1989 -0.0853501 11.799 0.30184L18.1049 4.37012C19.3006 5.14159 19.2471 6.9079 18.0068 7.60556L15.2477 9.15759L14.4534 7.74564L17.2126 6.19361C17.3898 6.09394 17.3974 5.84161 17.2266 5.7314L10.9208 1.66312Z" fill="#4B76E6"/>
<path fill-rule="evenodd" clip-rule="evenodd" d="M16.4692 14.1214V6.83139H18.0892V14.1214C18.0892 14.5687 17.7266 14.9314 17.2792 14.9314C16.8319 14.9314 16.4692 14.5687 16.4692 14.1214Z" fill="#4B76E6"/>
<path fill-rule="evenodd" clip-rule="evenodd" d="M15.12 21.4114H5.4C3.31236 21.4114 1.62 23.1038 1.62 25.1914V30.5914H18.9V25.1914C18.9 23.1038 17.2076 21.4114 15.12 21.4114ZM5.4 19.7914C2.41766 19.7914 0 22.2091 0 25.1914V32.2114H20.52V25.1914C20.52 22.2091 18.1023 19.7914 15.12 19.7914H5.4Z" fill="#4B76E6"/>
<path fill-rule="evenodd" clip-rule="evenodd" d="M1.85718 22.7947L3.00269 21.6492L10.2599 28.9064L17.5172 21.6492L18.6627 22.7947L10.2599 31.1975L1.85718 22.7947Z" fill="#4B76E6"/>
</svg>
