<svg width="40" height="40" viewBox="0 0 40 40" fill="none" xmlns="http://www.w3.org/2000/svg">
<path fill-rule="evenodd" clip-rule="evenodd" d="M2 31.2857C2 30.8123 2.38376 30.4286 2.85714 30.4286L37.1429 30.4286C37.6162 30.4286 38 30.8123 38 31.2857C38 31.7591 37.6162 32.1429 37.1429 32.1429L2.85714 32.1429C2.38376 32.1429 2 31.7591 2 31.2857Z" fill="#FF595E"/>
<path fill-rule="evenodd" clip-rule="evenodd" d="M13.7021 10.7136C13.7021 7.40193 16.5006 4.68 20 4.68C23.4994 4.68 26.2979 7.40193 26.2979 10.7136C26.2979 11.8663 25.9952 12.9363 25.4216 13.787L20 21.665L14.5869 13.7993C14.0245 12.8961 13.7021 11.8416 13.7021 10.7136ZM13.1485 14.6979C12.42 13.5354 12 12.171 12 10.7136C12 6.43288 15.6029 3 20 3C24.3971 3 28 6.43288 28 10.7136C28 12.1511 27.6225 13.5572 26.8358 14.7219L26.8317 14.728L20.704 23.632C20.3663 24.1227 19.6337 24.1227 19.296 23.632L13.1683 14.728L13.1485 14.6979Z" fill="#FF595E"/>
<path fill-rule="evenodd" clip-rule="evenodd" d="M20 13.4615C21.3595 13.4615 22.4615 12.3595 22.4615 11C22.4615 9.64053 21.3595 8.53846 20 8.53846C18.6405 8.53846 17.5385 9.64053 17.5385 11C17.5385 12.3595 18.6405 13.4615 20 13.4615ZM20 15C22.2091 15 24 13.2091 24 11C24 8.79086 22.2091 7 20 7C17.7909 7 16 8.79086 16 11C16 13.2091 17.7909 15 20 15Z" fill="#FF595E"/>
<path fill-rule="evenodd" clip-rule="evenodd" d="M6.28582 19.2857V31.2857H4.57153V18.8571C4.57153 18.1471 5.14717 17.5714 5.85725 17.5714H10.8207C11.1444 17.5714 11.4561 17.6935 11.6938 17.9133L14.4446 20.4578C14.7077 20.7012 14.8572 21.0433 14.8572 21.4017V31.2857H13.143V21.589L10.6529 19.2857H6.28582Z" fill="#FF595E"/>
<path fill-rule="evenodd" clip-rule="evenodd" d="M34.1429 19.2857V31.2857H35.8572V18.8571C35.8572 18.1471 35.2815 17.5714 34.5715 17.5714H29.608C29.2843 17.5714 28.9726 17.6935 28.735 17.9133L25.9841 20.4578C25.721 20.7012 25.5715 21.0433 25.5715 21.4017V31.2857H27.2857V21.589L29.7758 19.2857H34.1429Z" fill="#FF595E"/>
<path d="M8.42847 27.8571C8.42847 27.6205 8.62034 27.4286 8.85704 27.4286H10.1428C10.3794 27.4286 10.5713 27.6205 10.5713 27.8571V30.8571H8.42847V27.8571Z" fill="#FF595E"/>
<path d="M8.42847 21.8571C8.42847 21.6205 8.62034 21.4286 8.85704 21.4286H10.1428C10.3794 21.4286 10.5713 21.6205 10.5713 21.8571V23.5714C10.5713 23.8081 10.3794 24 10.1428 24H8.85704C8.62034 24 8.42847 23.8081 8.42847 23.5714V21.8571Z" fill="#FF595E"/>
<path d="M29.8572 21.8571C29.8572 21.6205 30.0491 21.4286 30.2857 21.4286H31.5715C31.8082 21.4286 32 21.6205 32 21.8571V23.5714C32 23.8081 31.8082 24 31.5715 24H30.2857C30.0491 24 29.8572 23.8081 29.8572 23.5714V21.8571Z" fill="#FF595E"/>
<path d="M29.8572 27.8571C29.8572 27.6205 30.0491 27.4286 30.2857 27.4286H31.5715C31.8082 27.4286 32 27.6205 32 27.8571V30.8571H29.8572V27.8571Z" fill="#FF595E"/>
</svg>
