<svg width="34" height="24" viewBox="0 0 34 24" fill="none" xmlns="http://www.w3.org/2000/svg">
<path fill-rule="evenodd" clip-rule="evenodd" d="M24.5987 4.65699L2.55869 2.55022V21.3599H24.5987V4.65699ZM0.658691 2.13217V23.2599H26.4987V4.31158C26.4987 3.52813 25.9032 2.87302 25.1233 2.79847L2.32333 0.619063C1.43078 0.533746 0.658691 1.23555 0.658691 2.13217Z" fill="#604BE8"/>
<path fill-rule="evenodd" clip-rule="evenodd" d="M31.8191 9.44695L26.4991 8.44945V21.3601H31.8191V9.44695ZM24.5991 23.2601H33.7191V9.13158C33.7191 8.40014 33.1982 7.77241 32.4792 7.63762L24.5991 6.1601V23.2601Z" fill="#604BE8"/>
<path d="M4.07983 6.5401C4.07983 6.33023 4.24997 6.1601 4.45983 6.1601H6.73983C6.9497 6.1601 7.11983 6.33023 7.11983 6.5401V8.8201C7.11983 9.02997 6.9497 9.2001 6.73983 9.2001H4.45983C4.24997 9.2001 4.07983 9.02997 4.07983 8.8201V6.5401Z" fill="#604BE8"/>
<path d="M4.07983 11.8604C4.07983 11.6505 4.24997 11.4804 4.45983 11.4804H6.73983C6.9497 11.4804 7.11983 11.6505 7.11983 11.8604V14.1404C7.11983 14.3502 6.9497 14.5204 6.73983 14.5204H4.45983C4.24997 14.5204 4.07983 14.3502 4.07983 14.1404V11.8604Z" fill="#604BE8"/>
<path d="M9.39966 6.5401C9.39966 6.33023 9.56979 6.1601 9.77966 6.1601H12.0597C12.2695 6.1601 12.4397 6.33023 12.4397 6.5401V8.8201C12.4397 9.02997 12.2695 9.2001 12.0597 9.2001H9.77966C9.56979 9.2001 9.39966 9.02997 9.39966 8.8201V6.5401Z" fill="#604BE8"/>
<path d="M14.7192 6.5401C14.7192 6.33023 14.8894 6.1601 15.0992 6.1601H17.3792C17.5891 6.1601 17.7592 6.33023 17.7592 6.5401V8.8201C17.7592 9.02997 17.5891 9.2001 17.3792 9.2001H15.0992C14.8894 9.2001 14.7192 9.02997 14.7192 8.8201V6.5401Z" fill="#604BE8"/>
<path d="M20.0391 6.5401C20.0391 6.33023 20.2092 6.1601 20.4191 6.1601H22.6991C22.9089 6.1601 23.0791 6.33023 23.0791 6.5401V8.8201C23.0791 9.02997 22.9089 9.2001 22.6991 9.2001H20.4191C20.2092 9.2001 20.0391 9.02997 20.0391 8.8201V6.5401Z" fill="#604BE8"/>
<path d="M20.0391 11.8604C20.0391 11.6505 20.2092 11.4804 20.4191 11.4804H22.6991C22.9089 11.4804 23.0791 11.6505 23.0791 11.8604V14.1404C23.0791 14.3502 22.9089 14.5204 22.6991 14.5204H20.4191C20.2092 14.5204 20.0391 14.3502 20.0391 14.1404V11.8604Z" fill="#604BE8"/>
<path d="M27.6399 11.1002C27.6399 10.8903 27.81 10.7202 28.0199 10.7202H30.2999C30.5098 10.7202 30.6799 10.8903 30.6799 11.1002V13.3802C30.6799 13.59 30.5098 13.7602 30.2999 13.7602H28.0199C27.81 13.7602 27.6399 13.59 27.6399 13.3802V11.1002Z" fill="#604BE8"/>
</svg>
