<svg width="24" height="24" viewBox="0 0 24 24" fill="none" xmlns="http://www.w3.org/2000/svg">
<path d="M2.93082 3.00806C1.13486 4.81047 0.146941 7.20851 0.149246 9.75988C0.151414 12.3113 1.14369 14.7109 2.94272 16.5167C5.34217 18.9248 8.86824 19.875 12.1452 18.9965C13.1799 18.7191 14.1586 18.265 15.04 17.6609L21.0999 23.743L23.5901 21.2436L17.5312 15.1626C18.6063 13.5886 19.1855 11.728 19.1838 9.77672C19.1815 7.22536 18.1892 4.82583 16.3901 3.01996C13.9908 0.611838 10.4646 -0.338405 7.18781 0.540126C5.58276 0.970447 4.11069 1.82378 2.93082 3.00806ZM13.9 5.51933C15.0327 6.65625 15.6574 8.16723 15.6589 9.77365C15.6603 11.3801 15.0383 12.8899 13.9075 14.0248C13.1642 14.7708 12.2383 15.308 11.2299 15.5784C9.16526 16.1319 6.94402 15.5337 5.43304 14.0173C4.30025 12.8803 3.67559 11.3695 3.67426 9.76292C3.67283 8.15649 4.29487 6.64669 5.42561 5.51163C6.16876 4.76579 7.09475 4.22856 8.10315 3.9582C10.1679 3.40464 12.389 4.00286 13.9 5.51933Z" fill="#969DB6"/>
</svg>
