<svg width="170" height="111" viewBox="0 0 170 111" fill="none" xmlns="http://www.w3.org/2000/svg">
<path d="M58.3763 21.8747C57.5406 21.0025 58.0239 19.1826 59.4557 17.81C60.8875 16.4374 62.7256 16.0318 63.5613 16.904C64.397 17.7763 63.9137 19.5961 62.4819 20.9687C61.0501 22.3414 59.212 22.747 58.3763 21.8747Z" fill="#3E337A"/>
<path d="M58.8561 21.4082C57.405 23.2728 50.8591 48.9517 62.7752 85.3264" stroke="#3E337A" stroke-width="0.928976" stroke-miterlimit="10"/>
<path d="M39.8331 39.7754C38.0432 44.534 30.6446 46.158 22.8212 43.7663C23.0133 43.5765 23.2194 43.3355 23.3929 43.1118C24.7435 41.2552 24.6581 38.939 23.2101 37.9174C21.7807 36.9297 19.496 37.6222 18.164 39.5127C17.7418 40.1312 17.4549 40.7652 17.3033 41.4145C15.1374 40.1631 13.2616 38.6697 11.8856 37.085C12.9384 36.3054 13.4184 35.175 12.936 34.2949C12.4493 33.3297 10.985 32.9727 9.49022 33.3318C8.77755 31.5686 8.63443 29.7643 9.27472 28.1548C9.39252 27.8297 9.5616 27.5209 9.73069 27.2122C9.80053 27.2624 9.88891 27.3465 9.92602 27.4142C11.6381 28.9948 13.7691 29.5651 14.7335 28.7013C15.698 27.8376 15.0747 25.8518 13.4139 24.2876C13.3953 24.2537 13.3441 24.2373 13.3255 24.2035C14.7559 23.5726 16.4514 23.194 18.3466 23.1026C18.3695 23.2216 18.4066 23.2893 18.4296 23.4083C19.2885 26.0557 21.2516 27.94 22.8489 27.6137C24.1288 27.3254 24.7178 25.6996 24.4448 23.6583C25.6199 23.9506 26.8136 24.2768 27.9975 24.7393C29.1628 25.1681 30.2485 25.6829 31.2688 26.2327C31.0757 26.7292 31.055 27.3087 31.1882 27.9375C31.5092 29.6033 32.9332 30.8126 34.3712 30.6587C35.0902 30.5818 35.675 30.1827 36.0317 29.599C39.409 32.829 41.0155 36.6088 39.8331 39.7754Z" fill="#3E337A"/>
<path d="M19.0651 31.6754C19.9094 31.7504 30.7278 32.5917 38.7509 37.598" stroke="white" stroke-width="0.928976" stroke-miterlimit="10" stroke-linecap="round" stroke-linejoin="round"/>
<path d="M21.6543 29.2774C22.548 30.4736 24.3267 32.7008 24.3267 32.7008" stroke="white" stroke-width="0.928976" stroke-miterlimit="10" stroke-linecap="round" stroke-linejoin="round"/>
<path d="M26.1142 36.2271C29.6282 33.8113 29.8378 33.6455 29.8378 33.6455" stroke="white" stroke-width="0.928976" stroke-miterlimit="10" stroke-linecap="round" stroke-linejoin="round"/>
<path d="M30.5018 30.6602C30.6184 30.9387 32.1907 34.3612 32.1907 34.3612" stroke="white" stroke-width="0.928976" stroke-miterlimit="10" stroke-linecap="round" stroke-linejoin="round"/>
<path d="M32.8849 38.3408C33.5461 37.8246 36.4639 35.8857 36.4639 35.8857" stroke="white" stroke-width="0.928976" stroke-miterlimit="10" stroke-linecap="round" stroke-linejoin="round"/>
<path d="M39.5579 37.3474C58.3175 46.1914 67.9432 67.7755 70.9213 77.9803" stroke="#3E337A" stroke-width="0.928976" stroke-miterlimit="10"/>
<path d="M157.249 20.7253C155.904 20.2557 155.001 19.4173 154.83 18.309C154.631 16.8679 155.766 15.3895 157.613 14.3779C157.399 13.4371 157 12.5412 156.498 11.7096C155.796 10.6523 154.9 9.78591 153.838 9.11692C153.14 10.9071 151.861 12.0547 150.812 11.7744C149.709 11.4811 149.231 9.67679 149.683 7.62003C147.58 7.29567 145.239 7.44779 142.78 8.04646C143.216 10.6711 142.576 13.009 141.077 13.57C139.605 14.1375 137.785 12.8428 136.568 10.5652C135.792 11.0025 135.043 11.4462 134.299 11.9801C132.75 13.0629 131.314 14.2618 130.088 15.5404C130.125 15.7273 130.163 15.9141 130.173 16.0945C130.608 19.1637 129.581 21.8834 127.916 22.1973C127.22 22.3275 126.498 22.0068 125.891 21.3576C123.749 25.5901 123.447 29.9362 125.518 33.1295C127.583 36.3507 131.624 37.7315 136.29 37.2748C135.565 35.9748 135.443 34.4629 136.098 33.1665C137.26 30.9237 140.38 30.2162 143.076 31.572C144.268 32.1831 145.157 33.0774 145.696 34.0958C146.376 33.695 147.057 33.2942 147.698 32.8245C152.537 29.5033 155.894 25.0273 157.249 20.7253ZM147.981 24.1449C146.461 23.5742 145.476 22.3899 145.818 21.5227C146.16 20.6555 147.667 20.393 149.214 20.9702C150.734 21.5408 151.719 22.7251 151.377 23.5923C151.035 24.4595 149.501 24.7156 147.981 24.1449Z" fill="#3E337A"/>
<path d="M144.293 17.6205C139.694 18.9224 128.732 26.9423 125.195 30.4532" stroke="white" stroke-width="0.928976" stroke-miterlimit="10" stroke-linecap="round" stroke-linejoin="round"/>
<path d="M140.888 22.6476C140.888 22.6476 139.897 21.8413 137.535 21.2539" stroke="white" stroke-width="0.928976" stroke-miterlimit="10" stroke-linecap="round" stroke-linejoin="round"/>
<path d="M135.139 17.9272C135.091 20.1897 133.375 23.9049 133.375 23.9049" stroke="white" stroke-width="0.928976" stroke-miterlimit="10" stroke-linecap="round" stroke-linejoin="round"/>
<path d="M133.863 28.0891C131.301 27.0968 128.791 27.1787 128.791 27.1787" stroke="white" stroke-width="0.928976" stroke-miterlimit="10" stroke-linecap="round" stroke-linejoin="round"/>
<path d="M134.153 50.9389C135.274 50.2835 136.273 49.5395 137.09 48.722C136.108 48.0697 135.623 47.0594 135.999 46.1662C136.419 45.1046 137.938 44.5746 139.463 44.91C139.667 44.1245 139.667 43.3498 139.456 42.6138C138.478 39.3998 133.558 38.3999 128.442 40.3631C128.191 41.8822 127.272 43.0924 126.422 43.038C125.913 43.0053 125.532 42.5864 125.353 41.9475C122.05 44.1361 120.145 47.2557 120.903 49.7617C121.796 52.7469 126.09 53.8348 130.774 52.4239C130.405 51.7396 130.41 51.0555 130.894 50.6349C131.578 49.9944 133.011 50.129 134.153 50.9389ZM132.556 43.1364C132.011 42.7973 132.131 41.783 132.793 40.8986C133.454 40.0141 134.435 39.5636 134.953 39.8963C135.498 40.2354 135.378 41.2497 134.716 42.1341C134.047 43.0466 133.094 43.5036 132.556 43.1364Z" fill="#3E337A"/>
<path d="M133.307 44.5478C132.967 44.5261 126.741 45.3375 121.421 49.6604" stroke="white" stroke-width="0.928976" stroke-miterlimit="10" stroke-linecap="round" stroke-linejoin="round"/>
<path d="M127.419 48.0621C126.829 47.8845 123.807 47.9131 123.807 47.9131" stroke="white" stroke-width="0.928976" stroke-miterlimit="10" stroke-linecap="round" stroke-linejoin="round"/>
<path d="M129.443 43.5765C129.219 43.9919 127.357 46.2473 127.357 46.2473" stroke="white" stroke-width="0.928976" stroke-miterlimit="10" stroke-linecap="round" stroke-linejoin="round"/>
<path d="M132.6 45.8352C131.009 45.1465 131.009 45.1465 131.009 45.1465" stroke="white" stroke-width="0.928976" stroke-miterlimit="10" stroke-linecap="round" stroke-linejoin="round"/>
<path d="M124.842 30.6601C121.277 32.5581 108.932 47.1816 109.336 63.0917" stroke="#3E337A" stroke-width="0.928976" stroke-miterlimit="10"/>
<path d="M121.296 49.9723C121.296 49.9723 115.746 52.1108 116.567 59.9059" stroke="#3E337A" stroke-width="0.928976" stroke-miterlimit="10"/>
<path d="M120.139 70.7856C120.139 91.4169 103.438 108.136 82.8422 108.136C62.2469 108.136 45.5456 91.4169 45.5456 70.7856C45.5456 50.1543 62.2469 33.4347 82.8422 33.4347C103.438 33.4347 120.139 50.1543 120.139 70.7856Z" fill="#F19857" stroke="white" stroke-width="4.64488"/>
<path d="M143.672 88.3527C143.815 87.9325 144.409 87.9325 144.552 88.3527L146.33 93.5884C146.394 93.7768 146.571 93.9036 146.77 93.9036L152.479 93.9036C152.934 93.9036 153.117 94.4898 152.744 94.7494L148.161 97.935C147.991 98.0532 147.92 98.2696 147.986 98.4657L149.745 103.644C149.889 104.069 149.408 104.431 149.04 104.175L144.377 100.934C144.218 100.823 144.006 100.823 143.847 100.934L139.184 104.175C138.816 104.431 138.335 104.069 138.479 103.644L140.238 98.4657C140.304 98.2696 140.233 98.0532 140.063 97.935L135.48 94.7494C135.107 94.4898 135.291 93.9036 135.746 93.9036L141.454 93.9036C141.653 93.9036 141.83 93.7768 141.894 93.5884L143.672 88.3527Z" fill="white"/>
<path d="M8.56252 54.1136C8.70145 53.6854 9.30721 53.6854 9.44614 54.1136L10.9217 58.6612C10.9839 58.8526 11.1622 58.9823 11.3635 58.9823H16.14C16.5898 58.9823 16.777 59.5578 16.4132 59.8224L12.5479 62.6346C12.3854 62.7528 12.3173 62.9623 12.3794 63.1535L13.8555 67.7029C13.9944 68.131 13.5044 68.4866 13.1405 68.2219L9.27759 65.4115C9.11469 65.293 8.89396 65.293 8.73106 65.4115L4.86819 68.2219C4.50429 68.4866 4.01422 68.131 4.15311 67.7029L5.62927 63.1535C5.69132 62.9623 5.6233 62.7528 5.46073 62.6346L1.59541 59.8224C1.23168 59.5578 1.41886 58.9823 1.86867 58.9823H6.64512C6.84641 58.9823 7.0248 58.8526 7.08693 58.6612L8.56252 54.1136Z" fill="white" fill-opacity="0.4"/>
<path opacity="0.2" d="M163.795 36.8022C163.934 36.374 164.54 36.374 164.679 36.8022L165.427 39.1071C165.489 39.2986 165.667 39.4283 165.869 39.4283L168.29 39.4283C168.74 39.4283 168.927 40.0037 168.563 40.2684L166.603 41.6946C166.441 41.8129 166.373 42.0223 166.435 42.2135L167.183 44.5204C167.322 44.9484 166.832 45.3041 166.468 45.0393L164.51 43.615C164.348 43.4965 164.127 43.4965 163.964 43.615L162.006 45.0393C161.642 45.3041 161.152 44.9484 161.291 44.5204L162.04 42.2135C162.102 42.0223 162.034 41.8129 161.871 41.6946L159.911 40.2684C159.547 40.0037 159.734 39.4283 160.184 39.4283L162.606 39.4283C162.807 39.4283 162.985 39.2986 163.048 39.1071L163.795 36.8022Z" fill="white"/>
<path d="M24.7689 85.853C24.9078 85.4248 25.5136 85.4248 25.6526 85.853L25.9152 86.6625C25.9773 86.854 26.1557 86.9836 26.357 86.9836H27.2083C27.6581 86.9836 27.8453 87.5591 27.4816 87.8237L26.7917 88.3257C26.6291 88.444 26.5611 88.6534 26.6232 88.8446L26.8864 89.656C27.0253 90.0841 26.5352 90.4397 26.1713 90.175L25.484 89.6749C25.3211 89.5563 25.1004 89.5563 24.9375 89.6749L24.2502 90.175C23.8863 90.4397 23.3962 90.0841 23.5351 89.656L23.7983 88.8446C23.8604 88.6534 23.7923 88.444 23.6298 88.3257L22.9398 87.8237C22.5761 87.5591 22.7633 86.9836 23.2131 86.9836H24.0645C24.2658 86.9836 24.4442 86.854 24.5063 86.6625L24.7689 85.853Z" fill="white"/>
<path d="M64.8312 67.369L79.4096 81.6058L101.569 59.9658" stroke="white" stroke-width="7.43181" stroke-linecap="round"/>
<path d="M77.797 31.4291C77.797 28.8638 79.8766 26.7842 82.4419 26.7842H85.398C87.9633 26.7842 90.0429 28.8638 90.0429 31.4291V32.5555H77.797V31.4291Z" fill="white"/>
</svg>
