<svg width="130" height="130" viewBox="0 0 130 130" fill="none" xmlns="http://www.w3.org/2000/svg">
<path fill-rule="evenodd" clip-rule="evenodd" d="M65 130C82.2391 130 98.7721 123.152 110.962 110.962C123.152 98.7721 130 82.2391 130 65C130 47.7609 123.152 31.2279 110.962 19.0381C98.7721 6.8482 82.2391 0 65 0C47.7609 0 31.2279 6.8482 19.0381 19.0381C6.8482 31.2279 0 47.7609 0 65C0 82.2391 6.8482 98.7721 19.0381 110.962C31.2279 123.152 47.7609 130 65 130ZM54.4944 43.0056C52.962 41.5256 50.9096 40.7066 48.7792 40.7251C46.6489 40.7437 44.611 41.5982 43.1046 43.1046C41.5982 44.611 40.7437 46.6489 40.7251 48.7792C40.7066 50.9096 41.5256 52.962 43.0056 54.4944L53.5113 65L43.0056 75.5056C42.2296 76.2551 41.6106 77.1517 41.1848 78.143C40.759 79.1342 40.5348 80.2004 40.5255 81.2792C40.5161 82.3581 40.7217 83.428 41.1302 84.4265C41.5387 85.425 42.142 86.3322 42.9049 87.0951C43.6678 87.858 44.575 88.4613 45.5735 88.8698C46.572 89.2783 47.6419 89.4839 48.7208 89.4745C49.7996 89.4652 50.8658 89.241 51.857 88.8152C52.8483 88.3894 53.7449 87.7704 54.4944 86.9944L65 76.4887L75.5056 86.9944C77.038 88.4744 79.0904 89.2934 81.2208 89.2748C83.3511 89.2563 85.389 88.4018 86.8954 86.8954C88.4018 85.389 89.2563 83.3511 89.2748 81.2208C89.2934 79.0904 88.4744 77.038 86.9944 75.5056L76.4887 65L86.9944 54.4944C88.4744 52.962 89.2934 50.9096 89.2748 48.7792C89.2563 46.6489 88.4018 44.611 86.8954 43.1046C85.389 41.5982 83.3511 40.7437 81.2208 40.7251C79.0904 40.7066 77.038 41.5256 75.5056 43.0056L65 53.5113L54.4944 43.0056Z" fill="url(#paint0_linear)"/>
<defs>
<linearGradient id="paint0_linear" x1="65" y1="0" x2="65" y2="130" gradientUnits="userSpaceOnUse">
<stop stop-color="#F19857"/>
<stop offset="1" stop-color="#FF595E"/>
</linearGradient>
</defs>
</svg>
