<!DOCTYPE svg PUBLIC "-//W3C//DTD SVG 20010904//EN" "http://www.w3.org/TR/2001/REC-SVG-20010904/DTD/svg10.dtd">
<svg version="1.0" xmlns="http://www.w3.org/2000/svg" width="900px" height="500px" viewBox="0 0 9000 5000" preserveAspectRatio="xMidYMid meet">
<g id="layer101" fill="#0c2340" stroke="none">
<path d="M2439 2589 c-112 -128 -216 -246 -231 -263 l-27 -31 -1 202 c0 240 8 272 68 273 13 0 22 6 22 15 0 12 -19 15 -110 15 -83 0 -110 -3 -110 -13 0 -7 14 -17 32 -22 22 -7 35 -18 39 -35 4 -14 7 -129 8 -256 1 -217 0 -233 -19 -257 -11 -14 -34 -28 -50 -32 -17 -4 -30 -13 -30 -21 0 -11 19 -14 93 -14 l92 1 80 99 c44 54 134 157 200 229 l120 131 3 -186 c3 -208 -3 -235 -52 -244 -16 -3 -31 -11 -34 -17 -3 -10 24 -13 112 -13 118 0 144 9 82 30 -19 6 -38 19 -42 28 -4 9 -10 149 -13 311 -4 198 -10 296 -17 298 -6 2 -103 -101 -215 -228z"/>
<path d="M3102 2810 c-111 -16 -209 -89 -256 -189 -30 -66 -30 -216 1 -283 32 -71 103 -141 174 -173 57 -25 69 -27 163 -23 115 5 167 24 230 85 134 130 132 374 -3 496 -55 50 -107 74 -182 87 -35 5 -66 9 -69 9 -3 -1 -29 -5 -58 -9z m154 -49 c81 -37 124 -127 124 -262 0 -216 -120 -359 -268 -319 -57 15 -105 59 -132 122 -31 71 -34 205 -6 296 44 144 167 215 282 163z"/>
<path d="M4783 2800 c-67 -15 -119 -71 -193 -205 -39 -71 -54 -85 -92 -85 l-28 0 0 113 c0 122 7 143 49 149 14 2 26 9 29 16 3 9 -29 12 -137 12 -90 0 -141 -4 -141 -10 0 -6 13 -13 30 -16 16 -4 35 -12 41 -20 15 -19 25 -500 10 -537 -7 -19 -20 -29 -41 -34 -17 -3 -29 -11 -27 -17 3 -7 58 -11 178 -11 166 0 176 1 224 25 65 33 95 77 95 143 0 63 -28 111 -82 138 l-39 20 33 59 c67 119 137 210 176 228 49 22 49 22 32 32 -17 11 -71 11 -117 0z m-167 -362 c52 -52 50 -156 -4 -210 -29 -30 -79 -46 -119 -40 -23 3 -23 6 -23 144 l0 140 60 -4 c48 -3 66 -10 86 -30z"/>
<path d="M5982 2803 c-75 -3 -102 -7 -99 -16 2 -7 16 -13 31 -15 18 -2 30 -12 37 -29 5 -14 8 -134 7 -282 l-3 -256 -32 -15 c-68 -32 -33 -40 172 -40 275 0 382 46 451 194 19 40 24 68 23 126 0 118 -42 203 -127 262 -92 63 -207 81 -460 71z m286 -48 c101 -30 160 -116 170 -248 13 -183 -85 -310 -243 -317 -131 -6 -125 -18 -125 253 0 126 5 239 11 260 17 63 85 82 187 52z"/>
<path d="M7680 2783 c-11 -31 -77 -182 -161 -367 l-54 -118 -8 53 c-4 29 -6 132 -5 229 l3 175 35 11 c69 23 47 34 -69 34 -113 0 -138 -10 -77 -30 19 -6 37 -18 40 -27 10 -25 26 -246 29 -396 2 -127 0 -140 -17 -153 -11 -8 -30 -14 -43 -14 -14 0 -23 -6 -23 -15 0 -13 16 -15 102 -13 l102 3 11 45 c12 46 157 357 186 401 17 24 18 22 113 -175 53 -110 101 -216 108 -238 l11 -38 99 0 c73 0 99 3 96 12 -3 7 -18 16 -35 20 -55 14 -55 15 -52 296 4 273 7 287 51 294 12 2 23 9 26 16 3 9 -27 12 -128 12 -101 0 -131 -3 -128 -12 3 -7 13 -15 24 -17 43 -8 44 -13 43 -255 l0 -231 -71 145 c-39 80 -94 197 -123 260 -29 63 -58 116 -64 118 -6 2 -16 -9 -21 -25z"/>
<path d="M3720 2791 c0 -11 25 -21 55 -21 52 0 53 -12 48 -404 l-3 -178 -72 4 c-69 4 -72 5 -108 46 -39 43 -65 55 -56 25 3 -10 12 -45 21 -77 17 -69 23 -77 36 -53 9 15 32 17 247 17 206 0 241 -2 261 -17 l24 -16 -6 63 c-4 35 -7 74 -7 86 0 15 -6 24 -15 24 -8 0 -15 -9 -15 -19 0 -11 -11 -33 -24 -48 -22 -26 -30 -28 -93 -28 l-68 0 0 279 c0 303 -3 288 58 301 15 3 27 10 27 15 0 6 -60 10 -155 10 -85 0 -155 -4 -155 -9z"/>
<path d="M4982 2788 c3 -7 21 -16 41 -19 21 -3 41 -9 45 -13 4 -4 8 -123 10 -264 2 -277 -1 -301 -47 -312 -14 -3 -26 -11 -28 -17 -3 -9 54 -13 225 -15 l230 -3 6 64 c9 81 -5 98 -33 43 -26 -51 -39 -58 -127 -67 -112 -11 -114 -9 -114 135 l0 120 71 0 c83 0 105 -10 114 -50 4 -16 13 -30 21 -30 11 0 14 21 14 105 0 85 -3 105 -15 105 -8 0 -17 -14 -21 -36 -8 -44 -35 -56 -118 -52 l-61 3 -3 113 c-3 108 -2 113 22 137 22 22 33 25 103 25 95 0 140 -19 168 -72 28 -53 50 -51 41 3 -4 23 -13 56 -21 75 l-14 34 -256 0 c-201 0 -256 -3 -253 -12z"/>
<path d="M6580 2790 c0 -6 13 -13 29 -16 17 -4 38 -15 47 -25 15 -16 192 -456 215 -535 9 -31 62 -78 81 -72 6 2 55 134 109 292 54 159 105 299 114 312 9 15 25 24 40 24 16 0 25 6 25 15 0 13 -21 15 -126 15 -96 0 -125 -3 -122 -12 3 -7 14 -14 26 -16 13 -2 22 -11 22 -21 0 -15 -33 -120 -55 -173 -6 -15 -21 -18 -100 -18 l-93 0 -32 96 c-18 53 -28 99 -24 104 5 5 20 10 33 12 14 1 26 9 29 16 3 9 -23 12 -107 12 -69 0 -111 -4 -111 -10z m376 -283 c8 -7 -55 -207 -65 -207 -10 0 -80 203 -74 213 6 10 128 5 139 -6z"/>
<path d="M8260 2791 c0 -12 25 -21 56 -21 17 0 27 -8 34 -26 13 -33 13 -495 0 -529 -6 -15 -22 -30 -40 -36 -16 -6 -30 -15 -30 -20 0 -4 103 -10 229 -11 l229 -3 6 50 c8 72 7 95 -5 95 -5 0 -17 -16 -25 -35 -19 -47 -47 -62 -130 -70 -113 -11 -115 -8 -112 133 l3 117 67 3 c80 3 103 -7 111 -48 4 -18 13 -30 22 -30 12 0 15 18 15 105 0 87 -3 105 -15 105 -9 0 -18 -12 -21 -30 -9 -44 -28 -54 -107 -54 l-72 -1 0 123 c0 151 1 152 119 152 98 0 142 -19 171 -72 40 -75 58 -36 27 57 l-17 50 -257 3 c-150 1 -258 -1 -258 -7z"/>
<path d="M2163 1891 c-61 -28 -67 -47 -73 -206 -5 -133 -6 -140 -28 -151 -13 -6 -23 -15 -23 -19 1 -12 181 -11 181 1 0 6 -13 14 -30 18 l-30 6 0 120 c0 140 12 180 61 205 38 20 92 15 122 -12 35 -31 47 -77 47 -175 0 -117 -5 -134 -41 -147 -16 -5 -29 -12 -29 -15 0 -4 36 -6 80 -6 47 0 80 4 80 10 0 6 -9 10 -19 10 -11 0 -23 6 -28 13 -4 6 -10 68 -13 137 -8 178 -35 217 -160 226 -41 4 -66 0 -97 -15z"/>
<path d="M3956 1797 c-98 -223 -116 -255 -150 -268 l-31 -13 48 -4 c26 -2 68 -1 95 1 38 3 43 5 25 11 -13 5 -23 15 -23 23 0 23 104 253 111 245 12 -14 99 -223 99 -238 0 -9 -9 -18 -20 -21 -44 -12 -16 -23 55 -23 43 0 75 4 75 10 0 6 -8 10 -18 10 -11 0 -26 8 -35 18 -13 14 -139 285 -160 345 -4 9 -10 17 -14 17 -4 0 -30 -51 -57 -113z"/>
<path d="M5654 1896 c-31 -14 -44 -38 -44 -84 0 -31 13 -25 42 18 13 19 36 41 52 49 39 18 88 4 100 -30 17 -48 0 -75 -75 -124 -84 -54 -107 -94 -88 -152 17 -54 60 -75 141 -71 37 2 70 6 73 10 4 3 9 25 12 47 7 49 -9 55 -31 12 -16 -31 -66 -54 -94 -44 -30 11 -52 35 -52 58 0 25 27 52 92 88 25 15 56 39 67 53 26 33 28 100 5 133 -33 47 -134 66 -200 37z"/>
<path d="M2945 1750 c-76 -82 -143 -147 -148 -143 -14 9 -3 229 13 248 7 8 23 15 36 15 13 0 24 5 24 10 0 6 -35 10 -85 10 -50 0 -85 -4 -85 -10 0 -5 9 -10 20 -10 34 0 41 -32 38 -182 l-3 -143 -33 -15 c-18 -9 -30 -19 -26 -23 11 -11 124 -8 124 3 0 14 240 260 253 260 13 0 -1 -210 -15 -227 -6 -7 -22 -13 -35 -13 -14 0 -23 -5 -21 -11 4 -12 158 -19 158 -6 0 4 -11 12 -24 16 -32 13 -36 33 -36 214 0 86 -4 157 -8 157 -5 0 -71 -67 -147 -150z"/>
<path d="M3394 1888 c-3 -4 7 -10 21 -14 14 -3 30 -14 35 -24 13 -25 13 -276 0 -301 -6 -10 -20 -19 -30 -19 -11 0 -20 -6 -20 -12 0 -10 24 -13 90 -11 50 1 91 5 93 10 1 4 -8 9 -21 11 -37 5 -43 33 -40 184 l3 143 28 13 c15 7 27 17 27 21 0 11 -180 9 -186 -1z"/>
<path d="M4420 1891 c0 -5 13 -14 30 -19 38 -14 41 -29 38 -192 -3 -129 -4 -135 -25 -145 -52 -22 -21 -30 122 -30 159 0 155 -2 155 68 0 34 -17 36 -26 2 -8 -34 -32 -45 -97 -45 -62 0 -67 6 -67 75 0 66 6 75 54 75 48 0 61 -7 70 -37 14 -44 26 -22 26 47 0 71 -13 91 -30 46 -6 -18 -19 -26 -50 -31 -61 -10 -73 4 -68 83 5 74 12 82 86 82 64 0 87 -11 108 -51 23 -45 37 -23 21 31 l-13 45 -167 3 c-98 1 -167 -1 -167 -7z"/>
<path d="M5004 1888 c-3 -4 2 -10 10 -13 9 -3 23 -7 31 -10 13 -4 15 -31 15 -164 l0 -161 -25 -6 c-46 -11 -26 -21 57 -27 167 -11 243 21 243 104 0 36 -6 46 -39 75 l-39 33 18 28 c39 60 98 123 121 129 45 11 26 27 -26 22 -58 -6 -90 -31 -146 -115 -56 -84 -94 -84 -94 1 0 56 13 82 44 88 11 1 21 8 23 13 4 13 -186 16 -193 3z m230 -209 c20 -16 26 -29 26 -60 0 -56 -36 -91 -88 -87 l-37 3 -3 83 -3 82 39 0 c25 0 49 -8 66 -21z"/>
<path d="M6123 1886 c2 -6 12 -13 23 -15 10 -2 22 -8 26 -15 4 -6 8 -76 8 -156 0 -151 -5 -170 -42 -170 -10 0 -18 -6 -18 -12 0 -10 24 -13 90 -11 50 1 91 5 93 10 1 4 -8 9 -21 11 -34 5 -42 39 -42 181 0 132 6 156 43 163 10 1 19 8 20 13 1 6 -35 10 -91 11 -61 0 -91 -3 -89 -10z"/>
<path d="M6620 1892 c0 -4 15 -12 33 -17 l32 -10 3 -167 2 -168 -34 0 c-50 0 -85 16 -98 45 -20 43 -37 32 -26 -17 16 -71 17 -73 30 -60 17 17 329 16 347 0 11 -11 13 -6 7 27 -3 22 -6 48 -6 58 0 27 -14 20 -27 -12 -9 -25 -18 -30 -58 -36 -26 -4 -51 -3 -56 2 -5 5 -8 77 -7 169 l3 159 33 10 c58 17 34 25 -73 25 -58 0 -105 -4 -105 -8z"/>
<path d="M7220 1883 c0 -7 11 -13 25 -13 58 0 55 -81 -7 -205 -53 -105 -75 -135 -99 -135 -10 0 -19 -6 -19 -12 0 -9 23 -13 80 -13 57 0 80 4 80 13 0 6 -7 12 -15 12 -8 0 -15 5 -15 10 0 14 68 147 78 154 7 4 92 -140 92 -157 0 -2 -10 -7 -22 -10 -39 -11 -8 -22 58 -22 44 0 64 4 64 13 0 6 -8 12 -18 12 -24 0 -37 16 -97 114 -41 65 -50 89 -53 138 -5 65 7 88 44 88 13 0 24 6 24 13 0 9 -27 12 -100 12 -73 0 -100 -3 -100 -12z"/>
<path d="M7939 1873 c-70 -36 -103 -92 -103 -173 0 -130 111 -223 248 -206 75 9 130 46 162 111 33 69 30 131 -10 200 -55 92 -188 123 -297 68z m177 -9 c70 -33 95 -156 53 -255 -26 -59 -69 -89 -129 -89 -36 0 -48 6 -80 38 -46 46 -59 106 -41 188 25 112 107 161 197 118z"/>
<path d="M8435 1891 c-9 -8 7 -21 26 -21 30 0 39 -39 39 -170 0 -124 -9 -170 -35 -170 -8 0 -15 -6 -15 -12 0 -10 36 -13 145 -13 l145 0 0 48 c0 53 -13 61 -28 17 -12 -33 -37 -43 -103 -38 l-44 3 -3 73 -3 73 58 -3 c49 -3 60 -6 68 -25 17 -39 25 -25 25 42 0 67 -8 81 -25 43 -8 -19 -19 -23 -67 -26 l-58 -3 0 69 c0 73 10 92 47 92 13 0 23 6 23 13 0 9 -26 12 -96 12 -52 0 -97 -2 -99 -4z"/>
</g>
<g id="layer102" fill="#af9243" stroke="none">
<path d="M895 3449 c-307 -195 -539 -472 -634 -761 -61 -183 -64 -216 -68 -715 l-5 -463 801 0 801 0 0 413 c0 229 -5 450 -11 497 -45 367 -224 673 -534 915 -91 72 -238 165 -257 164 -7 0 -49 -23 -93 -50z m150 -104 c30 -19 55 -39 55 -44 0 -14 -58 -31 -107 -31 -52 0 -121 26 -107 40 9 9 95 67 102 69 2 1 27 -15 57 -34z m-162 -162 c46 -25 170 -24 217 2 21 11 56 19 87 19 52 1 54 0 120 -66 37 -37 65 -69 63 -72 -3 -2 -23 3 -45 11 -22 8 -65 20 -96 26 -51 9 -63 8 -128 -16 -89 -33 -127 -33 -216 -2 -86 30 -111 30 -200 1 -38 -13 -72 -22 -74 -20 -7 7 111 124 134 135 28 12 99 3 138 -18z m4 -211 l43 -17 0 -59 c0 -51 2 -57 15 -46 10 8 32 11 60 8 l45 -6 0 49 c0 47 2 49 40 69 68 34 115 36 204 5 60 -21 91 -26 126 -22 l47 6 43 -74 c61 -107 107 -219 137 -332 24 -93 26 -117 36 -504 6 -223 7 -413 4 -422 -6 -16 -64 -17 -697 -17 l-692 0 4 418 c4 411 5 418 30 513 32 119 75 222 136 329 l48 84 55 -3 c36 -1 72 4 105 17 88 35 132 36 211 4z"/>
<path d="M940 2810 c-8 -5 -104 -10 -217 -10 l-203 0 0 -250 c0 -243 1 -250 20 -250 16 0 20 -7 20 -31 0 -29 2 -31 28 -23 22 7 214 13 407 12 211 0 375 -5 398 -12 25 -8 27 -6 27 23 0 24 4 31 20 31 19 0 20 7 20 250 l0 250 -204 0 c-126 0 -207 4 -211 10 -8 13 -85 13 -105 0z m20 -514 c-7 -7 -76 -11 -190 -11 l-180 0 0 217 c0 162 3 219 13 225 6 4 87 8 179 8 91 0 170 4 175 8 4 5 9 -92 11 -214 1 -148 -1 -226 -8 -233z m245 440 c84 4 140 2 158 -5 l27 -11 0 -217 0 -218 -178 0 c-97 0 -183 4 -189 8 -10 6 -13 64 -13 232 l0 224 33 -10 c18 -6 87 -7 162 -3z"/>
<path d="M762 2618 c-7 -7 -11 -28 -11 -47 1 -20 3 -27 6 -16 2 11 6 31 9 44 4 17 10 22 24 18 11 -3 18 -1 14 4 -7 13 -28 11 -42 -3z"/>
<path d="M716 2594 c5 -20 2 -31 -12 -42 -18 -14 -18 -14 -1 -8 10 3 21 6 23 6 9 0 3 59 -6 65 -7 4 -8 -3 -4 -21z"/>
<path d="M848 2580 c-2 -24 1 -40 7 -40 6 0 9 16 7 40 -2 22 -5 40 -7 40 -2 0 -5 -18 -7 -40z"/>
<path d="M656 2445 c-18 -43 -19 -45 -8 -45 9 0 34 71 27 78 -2 2 -11 -13 -19 -33z"/>
<path d="M743 2440 c0 -25 2 -35 4 -22 2 12 2 32 0 45 -2 12 -4 2 -4 -23z"/>
<path d="M800 2440 c0 -22 3 -40 8 -40 4 0 6 18 4 40 -2 22 -6 40 -8 40 -2 0 -4 -18 -4 -40z"/>
<path d="M886 2452 c-9 -18 -14 -38 -10 -44 4 -6 13 3 21 22 19 46 10 63 -11 22z"/>
<path d="M1148 2591 c-11 -48 -10 -51 12 -51 24 0 38 26 22 42 -8 8 -9 5 -5 -11 3 -11 1 -21 -5 -21 -6 0 -12 17 -14 38 l-3 37 -7 -34z"/>
<path d="M1215 2580 c0 -22 3 -40 8 -40 4 0 7 18 7 40 0 22 -3 40 -7 40 -5 0 -8 -18 -8 -40z"/>
<path d="M1307 2594 c-21 -29 -16 -55 10 -53 17 1 17 2 1 6 -22 6 -23 19 -2 31 9 5 14 16 13 25 -3 12 -8 10 -22 -9z"/>
<path d="M1086 2590 c-10 -11 -16 -26 -13 -35 7 -16 32 -20 41 -6 4 5 -3 7 -14 4 -23 -6 -28 15 -6 23 15 6 31 34 18 33 -4 0 -15 -9 -26 -19z"/>
<path d="M1129 2443 c3 -27 7 -39 9 -28 2 11 9 23 16 27 8 6 7 8 -1 8 -20 0 -15 28 5 33 11 3 9 5 -8 6 -24 1 -25 -1 -21 -46z"/>
<path d="M1298 2479 c-23 -13 -23 -52 -1 -70 15 -13 15 -12 3 8 -12 18 -11 25 3 47 19 29 19 30 -5 15z"/>
<path d="M1052 2468 c-27 -27 -2 -74 35 -65 15 4 14 5 -3 6 -27 1 -38 26 -24 52 12 22 9 24 -8 7z"/>
<path d="M1202 2443 c-2 -36 1 -43 17 -43 19 0 51 24 51 39 0 4 -6 15 -13 24 -11 16 -12 14 -12 -15 0 -23 -5 -34 -17 -36 -13 -2 -18 6 -21 35 l-4 38 -1 -42z"/>
<path d="M1338 2449 c3 -20 0 -34 -9 -40 -10 -6 -10 -9 -2 -9 21 0 35 37 23 60 -15 28 -17 25 -12 -11z"/>
<path d="M963 2227 c-31 -9 -32 -12 -35 -66 l-3 -56 -134 -3 c-127 -2 -135 -1 -176 23 -24 14 -46 25 -49 25 -3 0 -6 -47 -6 -104 l0 -105 42 24 c40 23 53 25 186 25 l142 0 0 -104 c0 -93 -3 -108 -26 -150 l-26 -46 111 0 c61 0 111 3 111 8 0 4 -12 25 -25 47 -22 36 -25 51 -25 143 l0 102 145 0 c127 0 149 -2 177 -20 18 -11 36 -20 41 -20 4 0 7 45 7 100 0 55 -2 100 -4 100 -2 0 -24 -11 -49 -25 -43 -24 -52 -25 -179 -23 l-133 3 -3 55 c-3 50 -6 57 -30 66 -17 6 -39 7 -59 1z"/>
<path d="M471 1907 c-8 -26 -16 -47 -20 -47 -3 1 -25 5 -48 9 l-42 8 29 -35 29 -35 -32 -41 c-20 -25 -26 -38 -15 -34 9 4 32 10 50 13 33 6 34 6 49 -42 l15 -48 13 40 c18 55 22 57 70 46 l41 -9 -29 36 -29 37 31 39 c25 31 27 37 11 33 -68 -21 -73 -20 -84 9 -25 70 -26 70 -39 21z m29 -53 c0 -9 10 -14 27 -14 25 0 25 -1 10 -18 -15 -17 -15 -19 0 -35 16 -16 16 -17 -6 -17 -13 0 -29 -8 -36 -17 -11 -15 -13 -15 -19 4 -5 15 -12 19 -27 16 -19 -5 -20 -4 -9 16 9 17 9 26 -1 37 -9 11 -7 14 11 14 13 0 24 8 27 20 6 22 23 18 23 -6z"/>
</g>


</svg>