<svg width="60" height="60" viewBox="0 0 60 60" fill="none" xmlns="http://www.w3.org/2000/svg">
<circle cx="30" cy="30" r="30" fill="#DBFFED"/>
<path fill-rule="evenodd" clip-rule="evenodd" d="M28.9414 40.7903C29.6524 41.4323 30.7219 41.4231 31.4222 40.7689L40.6272 32.1695C40.6402 32.157 40.653 32.1444 40.6658 32.1318C40.682 32.1159 40.698 32.0999 40.714 32.0839C41.2266 31.5703 41.6684 30.9836 42.0232 30.3404C42.6452 29.2129 43 27.9118 43 26.5262C43 22.2218 39.5763 18.7324 35.3529 18.7324C33.2688 18.7324 31.3793 19.5822 30 20.9603C28.6207 19.5822 26.7312 18.7324 24.6471 18.7324C20.4237 18.7324 17 22.2218 17 26.5262C17 27.8214 17.31 29.0428 17.8585 30.1176C18.1895 30.7662 18.6074 31.3614 19.0964 31.8872C19.1117 31.9036 19.127 31.9199 19.1424 31.9361C19.1551 31.9496 19.1678 31.9629 19.1806 31.9763L28.9414 40.7903ZM21.0135 31.0995L20.5471 30.6137C19.5335 29.5577 18.9118 28.1179 18.9118 26.5262C18.9118 23.2979 21.4795 20.6809 24.6471 20.6809C26.2108 20.6809 27.6252 21.3161 28.6617 22.3517L30 23.6889L31.3383 22.3517C32.3748 21.3161 33.7892 20.6809 35.3529 20.6809C38.5205 20.6809 41.0882 23.2979 41.0882 26.5262C41.0882 28.1916 40.4073 29.6918 39.3085 30.7589L37.5296 32.4863L31.3958 38.1695C30.697 38.8169 29.6351 38.8259 28.9259 38.1904L21.0135 31.0995Z" fill="#06D6A0"/>
</svg>
