<svg width="60" height="60" viewBox="0 0 60 60" fill="none" xmlns="http://www.w3.org/2000/svg">
<circle cx="30" cy="30" r="30" fill="#E7E4FC"/>
<path fill-rule="evenodd" clip-rule="evenodd" d="M30 40.8333C35.9831 40.8333 40.8333 35.9831 40.8333 30C40.8333 24.0169 35.9831 19.1667 30 19.1667C24.0169 19.1667 19.1667 24.0169 19.1667 30C19.1667 35.9831 24.0169 40.8333 30 40.8333ZM30 43C37.1797 43 43 37.1797 43 30C43 22.8203 37.1797 17 30 17C22.8203 17 17 22.8203 17 30C17 37.1797 22.8203 43 30 43Z" fill="#604BE8"/>
<path fill-rule="evenodd" clip-rule="evenodd" d="M37.9161 24.9013C38.3392 25.3244 38.3392 26.0103 37.9161 26.4333L28.0501 36.2994L23.1674 31.4167C22.7443 30.9936 22.7443 30.3077 23.1674 29.8846C23.5905 29.4615 24.2764 29.4615 24.6995 29.8846L28.0501 33.2352L36.3841 24.9013C36.8071 24.4782 37.4931 24.4782 37.9161 24.9013Z" fill="#604BE8"/>
</svg>
