<svg width="374" height="60" viewBox="0 0 374 60" fill="none" xmlns="http://www.w3.org/2000/svg">
<mask id="mask0" mask-type="alpha" maskUnits="userSpaceOnUse" x="0" y="0" width="374" height="60">
<path d="M374 60L0 60L3.95265e-06 15C4.68031e-06 6.71572 6.71573 4.28193e-06 15 5.00276e-06L359 3.49345e-05C367.284 3.56553e-05 374 6.71576 374 15L374 60Z" fill="#C4C4C4"/>
</mask>
<g mask="url(#mask0)">
<g opacity="0.1">
<path d="M323.185 45.8693L328.178 22.5065L349.298 9.78633L344.384 32.7821L323.185 45.8693Z" fill="white"/>
<path d="M364.888 39.8793L343.814 53.0515L339.508 73.2916L360.556 60.2414L364.888 39.8793Z" fill="white"/>
<path opacity="0.6" d="M346.49 52.7052L323.185 44.3625L341.584 33.068L364.888 41.4107L346.49 52.7052Z" fill="white"/>
<path opacity="0.6" d="M357.847 60.5646L339.508 71.684L364.865 80.7278L382.607 69.3956L357.847 60.5646Z" fill="white"/>
</g>
<g opacity="0.1">
<path d="M44.5934 1.95043L52.6068 4.65634L58.3518 10.1068L50.4643 7.44336L44.5934 1.95043Z" fill="white"/>
<path d="M48.8703 14.9488L42.9464 9.39344L35.9692 7.02204L41.8511 12.5632L48.8703 14.9488Z" fill="white"/>
<path opacity="0.6" d="M42.8043 8.22364L44.1182 1.95046L50.6606 8.67568L49.3466 14.9489L42.8043 8.22364Z" fill="white"/>
<path opacity="0.6" d="M41.9908 13.7534L35.4672 7.02203L34.0281 13.8851L40.5856 20.4551L41.9908 13.7534Z" fill="white"/>
</g>
<g opacity="0.1">
<path d="M192.493 53.2007L195.609 38.6184L208.791 30.6789L205.724 45.0321L192.493 53.2007Z" fill="white"/>
<path d="M218.522 49.462L205.369 57.6837L202.681 70.3169L215.819 62.1713L218.522 49.462Z" fill="white"/>
<path opacity="0.6" d="M207.038 57.4675L192.493 52.2603L203.977 45.2106L218.522 50.4178L207.038 57.4675Z" fill="white"/>
<path opacity="0.6" d="M214.127 62.3731L202.681 69.3135L218.508 74.9583L229.582 67.8851L214.127 62.3731Z" fill="white"/>
</g>
</g>
</svg>
