<svg width="178" height="120" viewBox="0 0 178 120" fill="none" xmlns="http://www.w3.org/2000/svg">
<g opacity="0.4">
<rect x="138.053" y="7.8154" width="1.39492" height="11.2201" rx="0.697461" transform="rotate(-90 138.053 7.8154)" fill="#E0E5F0"/>
<rect x="144.365" y="12.6978" width="1.40251" height="11.1594" rx="0.701253" transform="rotate(180 144.365 12.6978)" fill="#E0E5F0"/>
<rect x="11.2051" width="3.10155" height="24.6783" rx="1.55078" fill="#E0E5F0"/>
<rect x="0.351562" y="13.8816" width="3.08478" height="24.8124" rx="1.54239" transform="rotate(-90 0.351562 13.8816)" fill="#E0E5F0"/>
<rect x="168.842" y="61.6888" width="1.89106" height="15.0466" rx="0.945528" fill="#E0E5F0"/>
<rect x="162.224" y="70.1526" width="1.88083" height="15.1284" rx="0.940415" transform="rotate(-90 162.224 70.1526)" fill="#E0E5F0"/>
<path d="M122.254 83.3636C110.508 103.597 84.4948 110.53 64.1511 98.848C43.8074 87.1661 36.8372 61.2934 48.5826 41.0597C60.328 20.826 86.3414 13.8935 106.685 25.5754C127.029 37.2573 133.999 63.13 122.254 83.3636ZM57.2311 46.0259C48.2434 61.509 53.5771 81.3071 69.1443 90.2462C84.7116 99.1854 104.617 93.8805 113.605 78.3974C122.593 62.9144 117.259 43.1163 101.692 34.1771C86.1246 25.238 66.2189 30.5429 57.2311 46.0259Z" fill="#C3CDE4"/>
<rect width="12.4762" height="39.6617" rx="6.23811" transform="matrix(0.70902 -0.705188 0.70902 0.705188 105.437 88.429)" fill="#C3CDE4"/>
</g>
</svg>
