<svg width="60" height="60" viewBox="0 0 60 60" fill="none" xmlns="http://www.w3.org/2000/svg">
<circle cx="30" cy="30" r="30" fill="#E8EEFF"/>
<path d="M41.5137 30.5564C41.8988 30.1266 42.1333 29.5593 42.1333 28.9386C42.1333 27.6007 41.0446 26.512 39.7067 26.512H34.9968C35.4632 25.0964 35.6622 23.2182 35.6622 22.413V21.6047C35.6622 19.8208 34.2105 18.3691 32.4267 18.3691H31.6178C31.2468 18.3691 30.9232 18.6215 30.8332 18.9817L30.3926 20.7446C29.7751 23.2133 27.8149 25.9371 25.7862 26.4321C25.4309 25.5327 24.5535 24.8942 23.5289 24.8942H18.6756C18.229 24.8942 17.8667 25.2566 17.8667 25.7031V40.2631C17.8667 40.7096 18.229 41.072 18.6756 41.072H23.5289C24.4936 41.072 25.3284 40.5063 25.7194 39.6888L28.4987 40.6152C29.4074 40.9183 30.3543 41.072 31.3126 41.072H38.0889C39.4268 41.072 40.5156 39.9832 40.5156 38.6453C40.5156 38.3298 40.4552 38.0278 40.3451 37.7512C41.3741 37.4702 42.1333 36.5271 42.1333 35.4097C42.1333 34.789 41.8988 34.2217 41.5137 33.792C41.8988 33.3622 42.1333 32.7949 42.1333 32.1742C42.1333 31.5535 41.8988 30.9862 41.5137 30.5564ZM24.3378 38.6453C24.3378 39.0913 23.9749 39.4542 23.5289 39.4542H19.4844V26.512H23.5289C23.9749 26.512 24.3378 26.8749 24.3378 27.3208V38.6453ZM38.0889 31.3653H39.7067C40.1526 31.3653 40.5156 31.7282 40.5156 32.1742C40.5156 32.6201 40.1526 32.9831 39.7067 32.9831H38.0889C37.6424 32.9831 37.28 33.3454 37.28 33.792C37.28 34.2385 37.6424 34.6008 38.0889 34.6008H39.7067C40.1526 34.6008 40.5156 34.9638 40.5156 35.4097C40.5156 35.8557 40.1526 36.2186 39.7067 36.2186H38.0889C37.6424 36.2186 37.28 36.581 37.28 37.0275C37.28 37.474 37.6424 37.8364 38.0889 37.8364C38.5349 37.8364 38.8978 38.1993 38.8978 38.6453C38.8978 39.0913 38.5349 39.4542 38.0889 39.4542H31.3126C30.5285 39.4542 29.7536 39.3285 29.0099 39.0805L25.9556 38.0623V28.0532C27.2244 27.8121 28.4663 27.0086 29.5875 25.6934C30.6822 24.4088 31.5698 22.7059 31.9618 21.1372L32.2492 19.9869H32.4267C33.3186 19.9869 34.0444 20.7128 34.0444 21.6047V22.413C34.0444 23.4991 33.7047 25.5823 33.2701 26.512H31.6178C31.1713 26.512 30.8089 26.8743 30.8089 27.3208C30.8089 27.7674 31.1713 28.1297 31.6178 28.1297H39.7067C40.1526 28.1297 40.5156 28.4927 40.5156 28.9386C40.5156 29.3846 40.1526 29.7475 39.7067 29.7475H38.0889C37.6424 29.7475 37.28 30.1099 37.28 30.5564C37.28 31.0029 37.6424 31.3653 38.0889 31.3653Z" fill="#4B76E6"/>
</svg>
