<svg width="490" height="130" viewBox="0 0 490 130" fill="none" xmlns="http://www.w3.org/2000/svg">

<path d="M334 130H15C6.71573 130 0 123.285 0 115V15.0002C0 6.71597 6.71573 0.000244141 15 0.000244141H489.5C379.5 29 409.612 59.2856 419.5 88.5C430.5 121 333 84.5 334 130Z" fill="#604BE8"/>

<g mask="url(#mask0)">
<g opacity="0.1">
<path d="M374.303 3.91705L379.486 -14.7829L393.793 -27.4162L388.691 -9.00997L374.303 3.91705Z" fill="white"/>
<path d="M405.43 -4.82826L390.997 8.20181L386.486 24.4615L400.892 11.5294L405.43 -4.82826Z" fill="white"/>
<path opacity="0.6" d="M390.623 8.26925L374.303 4.15771L389.11 -9.18239L405.429 -5.07086L390.623 8.26925Z" fill="white"/>
<path opacity="0.6" d="M401.271 11.4636L386.486 24.7174L404.289 29.2048L418.655 15.8453L401.271 11.4636Z" fill="white"/>
</g>
<g opacity="0.1">
<path d="M14.3203 7.87585L19.5035 -10.8241L33.8103 -23.4574L28.7085 -5.05116L14.3203 7.87585Z" fill="white"/>
<path d="M45.4473 -0.869452L31.0147 12.1606L26.5039 28.4203L40.9093 15.4882L45.4473 -0.869452Z" fill="white"/>
<path opacity="0.6" d="M30.6402 12.228L14.3203 8.11652L29.1272 -5.2236L45.447 -1.11207L30.6402 12.228Z" fill="white"/>
<path opacity="0.6" d="M41.289 15.4223L26.5039 28.6762L44.3062 33.1636L58.6725 19.8041L41.289 15.4223Z" fill="white"/>
</g>
<g opacity="0.1">
<path d="M291.303 115.917L296.486 97.217L310.793 84.5837L305.691 102.99L291.303 115.917Z" fill="white"/>
<path d="M322.43 107.172L307.997 120.202L303.486 136.461L317.892 123.529L322.43 107.172Z" fill="white"/>
<path opacity="0.6" d="M307.623 120.269L291.303 116.158L306.11 102.818L322.429 106.929L307.623 120.269Z" fill="white"/>
<path opacity="0.6" d="M318.271 123.464L303.486 136.717L321.289 141.205L335.655 127.845L318.271 123.464Z" fill="white"/>
</g>
</g>
</svg>
