<svg width="60" height="60" viewBox="0 0 60 60" fill="none" xmlns="http://www.w3.org/2000/svg">
<circle cx="30" cy="30" r="30" fill="#FFF8ED"/>
<path fill-rule="evenodd" clip-rule="evenodd" d="M30 40.8333C35.9831 40.8333 40.8333 35.9831 40.8333 30C40.8333 24.0169 35.9831 19.1667 30 19.1667C24.0169 19.1667 19.1667 24.0169 19.1667 30C19.1667 35.9831 24.0169 40.8333 30 40.8333ZM30 43C37.1797 43 43 37.1797 43 30C43 22.8203 37.1797 17 30 17C22.8203 17 17 22.8203 17 30C17 37.1797 22.8203 43 30 43Z" fill="#FF9F04"/>
<path fill-rule="evenodd" clip-rule="evenodd" d="M29.5667 21.5508C30.165 21.5508 30.65 22.0358 30.65 22.6341V29.5674H37.15C37.7483 29.5674 38.2333 30.0525 38.2333 30.6508C38.2333 31.2491 37.7483 31.7341 37.15 31.7341H30C29.1624 31.7341 28.4833 31.0551 28.4833 30.2174V22.6341C28.4833 22.0358 28.9684 21.5508 29.5667 21.5508Z" fill="#FF9F04"/>
</svg>
