<svg width="725" height="325" viewBox="0 25 725 325" fill="none" xmlns="http://www.w3.org/2000/svg">
<path d="M116.431 150.775C94.2081 155.985 32.1312 167.511 31.3425 202.095C30.5538 236.679 60.5751 254.166 64.6145 270.749C68.6539 287.333 66.2383 288.88 80.5388 302.52C94.8393 316.16 146.415 326.869 169.409 321.764C192.403 316.66 250.969 298.526 263.509 299.237C276.048 299.948 340.532 303.05 359.476 267.158C377.176 233.644 375.098 202.223 322.441 160.793C269.783 119.363 204.162 122.43 156.855 135.274C112.791 147.239 116.431 150.775 116.431 150.775Z" fill="#F3F7FF"/>
<path d="M628.464 227.072C646.798 222.809 698.017 213.401 698.61 184.856C699.202 156.311 674.393 141.827 671.03 128.132C667.668 114.437 669.659 113.164 657.832 101.881C646.005 90.5979 603.416 81.6709 584.445 85.8453C565.474 90.0197 517.164 104.888 506.812 104.28C496.461 103.672 443.23 101.002 427.654 130.595C413.101 158.229 414.87 184.167 458.404 218.453C501.938 252.739 556.097 250.319 595.124 239.798C631.475 229.997 628.464 227.072 628.464 227.072Z" fill="#F3F7FF"/>
<path d="M99.2308 135.26C94.7382 147.613 75.5857 152.696 55.3101 147.554C55.8421 147.022 56.3151 146.431 56.7288 145.781C60.1574 140.816 59.9209 134.905 56.1968 132.541C52.4727 130.177 46.6206 132.246 43.1921 137.21C42.0689 138.806 41.3596 140.52 41.0049 142.175C35.3301 139.22 30.542 135.674 26.877 131.773C29.5962 129.586 30.7784 126.69 29.5962 124.503C28.2957 122.08 24.5125 121.37 20.6702 122.493C18.7786 118.06 18.4239 113.509 19.9608 109.313C20.2564 108.426 20.6702 107.658 21.084 106.83C21.2613 107.008 21.4386 107.185 21.616 107.303C25.9903 111.145 31.5469 112.327 34.0296 109.963C36.5123 107.599 34.9163 102.634 30.542 98.7922C30.4829 98.7331 30.4238 98.674 30.3647 98.6149C34.0888 96.8417 38.4631 95.6596 43.3103 95.1868C43.3694 95.4232 43.4876 95.7187 43.5468 95.9551C45.8521 102.634 50.9949 107.244 55.0146 106.18C58.3249 105.353 59.8618 101.038 59.0933 95.896C62.1672 96.428 65.2411 97.1963 68.374 98.2011C71.3888 99.2059 74.2261 100.329 76.8862 101.629C76.4133 102.93 76.3542 104.466 76.6498 106.003C77.5365 110.199 81.2605 113.155 84.9846 112.623C86.8171 112.327 88.2949 111.263 89.2407 109.727C98.0485 117.528 102.245 126.985 99.2308 135.26Z" fill="#3E337A"/>
<path d="M109.511 103.931C110.738 101.699 108.762 98.259 105.1 96.2471C101.437 94.2353 97.4736 94.4135 96.2474 96.6452C95.0213 98.8769 96.9966 102.317 100.659 104.329C104.322 106.341 108.285 106.162 109.511 103.931Z" fill="#3E337A"/>
<path d="M45.4971 117.588C47.6842 117.706 75.7036 118.533 96.5113 130.295" stroke="white" stroke-width="1.13514" stroke-miterlimit="10" stroke-linecap="round" stroke-linejoin="round"/>
<path d="M60.1592 104.053C62.5237 107.126 67.0754 112.741 67.0754 112.741" stroke="white" stroke-width="1.13514" stroke-miterlimit="10" stroke-linecap="round" stroke-linejoin="round"/>
<path d="M63.7041 128.167C72.8074 121.902 73.3394 121.548 73.3394 121.548" stroke="white" stroke-width="1.13514" stroke-miterlimit="10" stroke-linecap="round" stroke-linejoin="round"/>
<path d="M75.1123 113.628C75.4079 114.337 79.4866 123.203 79.4866 123.203" stroke="white" stroke-width="1.13514" stroke-miterlimit="10" stroke-linecap="round" stroke-linejoin="round"/>
<path d="M81.2588 133.664C82.973 132.364 90.4803 127.281 90.4803 127.281" stroke="white" stroke-width="1.13514" stroke-miterlimit="10" stroke-linecap="round" stroke-linejoin="round"/>
<path d="M108.099 103.284C112.059 106.299 139.31 155.178 134.877 236.034" stroke="#3E337A" stroke-width="1.13514" stroke-miterlimit="10"/>
<path d="M86.1064 131.714C97.8699 136.147 128.076 141.407 134.283 230.656" stroke="#3E337A" stroke-width="1.13514" stroke-miterlimit="10"/>
<path d="M480.271 247.4H666.959V209.632H623.051L617.831 214.545H540.76L591.731 142.08V229.591L587.432 232.968V287.01H633.183V72.072H602.785L480.271 247.4Z" fill="#F19857"/>
<path d="M73 247.4H259.689V209.632H215.78L210.56 214.545H133.49L184.461 142.08V229.591L180.162 232.968V287.01H225.913V72.072H195.515L73 247.4Z" fill="white"/>
<path d="M333.498 150.044L333.498 150.041C335.535 141.043 338.382 133.393 342.032 127.08C345.678 120.776 350.225 115.911 355.67 112.468C361.111 109.028 367.051 107.309 373.5 107.309C378.743 107.309 383.574 108.423 387.999 110.644C392.428 112.868 396.361 116.106 399.797 120.368L399.805 120.378L399.814 120.388C403.451 124.446 406.49 129.426 408.926 135.337L408.928 135.343C411.363 141.047 413.194 147.68 414.416 155.247L414.417 155.255L414.419 155.262C415.843 162.618 416.557 170.697 416.557 179.5C416.557 190.352 415.537 200.272 413.502 209.265C411.467 218.053 408.519 225.598 404.667 231.909L404.667 231.909L404.661 231.92C401.016 238.224 396.468 243.089 391.024 246.532L391.016 246.536C385.784 249.972 379.949 251.691 373.5 251.691C368.045 251.691 363.11 250.677 358.686 248.659C354.26 246.436 350.33 243.2 346.896 238.94C343.453 234.669 340.511 229.68 338.073 223.968C335.635 218.052 333.702 211.414 332.276 204.054C331.055 196.488 330.443 188.304 330.443 179.5C330.443 168.648 331.463 158.83 333.498 150.044ZM290.5 217.496L290.5 217.498C293.167 229.034 296.965 239.446 301.895 248.729L301.895 248.729L301.902 248.741C307.039 257.82 313.207 265.564 320.409 271.969L320.415 271.974C327.614 278.171 335.637 283.025 344.482 286.537L344.482 286.537L344.495 286.541C353.551 289.848 363.221 291.5 373.5 291.5C386.654 291.5 398.589 288.92 409.297 283.751C420.206 278.584 429.469 271.142 437.081 261.431L437.085 261.427C444.694 251.515 450.446 239.649 454.346 225.841C458.451 212.03 460.5 196.581 460.5 179.5C460.5 165.712 459.168 153.046 456.5 141.506C454.038 129.968 450.24 119.655 445.101 110.573C440.17 101.289 434.103 93.5414 426.897 87.3386C419.899 80.9323 411.871 76.0754 402.818 72.7689C393.961 69.2538 384.186 67.5 373.5 67.5C360.549 67.5 348.715 70.0809 338.008 75.25C327.301 80.4189 318.141 87.9647 310.53 97.8787C302.922 107.584 296.966 119.345 292.657 133.149L292.655 133.156C288.55 146.968 286.5 162.417 286.5 179.5C286.5 193.085 287.832 205.751 290.5 217.496Z" fill="#3B3375" stroke="#3B3375"/>
<path fill-rule="evenodd" clip-rule="evenodd" d="M71.3008 248.4L195.213 71.0721H227.132V208.632H260.908V248.4H227.132V288.01H179.381V248.4H71.3008ZM180.381 247.4V287.01H226.132V247.4H259.908V209.632H226.132V72.0721H195.734L73.2195 247.4H180.381ZM184.68 214.545V142.08L133.709 214.545H184.68ZM135.635 213.545H183.68V145.24L135.635 213.545ZM333.989 150.285L333.988 150.29C331.961 159.005 330.943 168.753 330.943 179.541C330.943 188.291 331.553 196.42 332.77 203.93C334.191 211.235 336.117 217.815 338.541 223.675C340.965 229.33 343.887 234.263 347.301 238.48C350.696 242.674 354.573 245.851 358.929 248.032C363.284 250.009 368.151 251.006 373.545 251.006C379.907 251.006 385.652 249.319 390.807 245.949L390.814 245.944L390.821 245.94C396.195 242.556 400.693 237.769 404.307 231.545L404.313 231.535L404.319 231.525C408.141 225.289 411.073 217.82 413.101 209.102C415.129 200.18 416.146 190.328 416.146 179.541C416.146 170.792 415.434 162.771 414.016 155.475L414.013 155.459L414.01 155.444C412.792 147.933 410.969 141.361 408.551 135.719L408.546 135.708C406.126 129.859 403.112 124.945 399.515 120.949L399.498 120.929L399.481 120.909C396.082 116.71 392.2 113.53 387.836 111.348C383.479 109.17 378.721 108.076 373.545 108.076C367.182 108.076 361.328 109.763 355.961 113.142C350.587 116.526 346.09 121.313 342.476 127.537C338.853 133.776 336.019 141.353 333.989 150.285ZM337.619 224.064C335.163 218.128 333.218 211.475 331.785 204.105C330.557 196.531 329.943 188.343 329.943 179.541C329.943 168.692 330.967 158.866 333.014 150.064C335.061 141.057 337.927 133.381 341.611 127.035C345.296 120.689 349.902 115.776 355.429 112.296C360.956 108.816 366.994 107.076 373.545 107.076C378.867 107.076 383.78 108.202 388.283 110.454C392.787 112.706 396.779 115.981 400.259 120.28C403.943 124.374 407.014 129.389 409.47 135.325C411.927 141.057 413.769 147.71 414.997 155.284C416.43 162.653 417.146 170.739 417.146 179.541C417.146 190.39 416.123 200.318 414.076 209.325C412.029 218.127 409.061 225.701 405.171 232.047C401.487 238.393 396.881 243.306 391.354 246.786C386.032 250.266 380.095 252.006 373.545 252.006C368.018 252.006 363.003 250.982 358.499 248.935C353.996 246.684 350.004 243.408 346.524 239.11C343.044 234.811 340.076 229.796 337.619 224.064ZM289.973 217.535L289.972 217.531C287.293 205.781 285.956 193.117 285.956 179.541C285.956 162.471 288.012 147.02 292.138 133.197L292.142 133.184C296.471 119.374 302.458 107.595 310.117 97.8639C317.781 87.9231 327.01 80.3504 337.8 75.1625C348.592 69.9742 360.513 67.3875 373.545 67.3875C384.294 67.3875 394.14 69.1441 403.07 72.6723C412.187 75.9895 420.276 80.8625 427.328 87.2898C434.588 93.5156 440.696 101.286 445.657 110.585C450.827 119.686 454.644 130.013 457.118 141.555C459.798 153.101 461.134 165.765 461.134 179.541C461.134 196.608 459.078 212.057 454.953 225.878C451.034 239.695 445.251 251.582 437.59 261.521L437.584 261.529C429.917 271.268 420.585 278.736 409.594 283.921C398.801 289.109 386.778 291.695 373.545 291.695C363.201 291.695 353.464 290.039 344.34 286.722L344.327 286.717L344.314 286.712C335.409 283.191 327.33 278.323 320.081 272.109L320.075 272.104L320.068 272.099C312.815 265.674 306.606 257.91 301.439 248.815L301.432 248.804L301.426 248.792C296.467 239.494 292.652 229.073 289.973 217.535ZM409.163 283.018C420.012 277.901 429.224 270.531 436.798 260.91C444.372 251.085 450.104 239.314 453.993 225.599C458.087 211.884 460.134 196.531 460.134 179.541C460.134 165.826 458.803 153.237 456.142 141.773C453.686 130.31 449.899 120.075 444.781 111.068C439.868 101.856 433.83 94.18 426.665 88.0389C419.705 81.6931 411.722 76.8826 402.715 73.6074C393.913 70.1274 384.189 68.3875 373.545 68.3875C360.649 68.3875 348.878 70.9462 338.234 76.0638C327.589 81.1814 318.48 88.653 310.906 98.4787C303.332 108.1 297.395 119.768 293.097 133.483C289.003 147.198 286.956 162.551 286.956 179.541C286.956 193.051 288.286 205.641 290.947 217.309C293.608 228.772 297.395 239.11 302.308 248.321C307.426 257.328 313.567 265.004 320.731 271.35C327.896 277.491 335.879 282.302 344.682 285.782C353.689 289.057 363.31 290.695 373.545 290.695C386.646 290.695 398.519 288.136 409.163 283.018ZM478.351 248.4L602.263 71.0721H634.183V208.632H667.959V248.4H634.183V288.01H586.432V248.4H478.351ZM587.432 247.4V287.01H633.183V247.4H666.959V209.632H633.183V72.0721H602.785L480.27 247.4H587.432ZM591.731 214.545V142.08L540.76 214.545H591.731ZM542.686 213.545H590.731V145.24L542.686 213.545Z" fill="#3B3375"/>
<path d="M646.383 164.88L641.74 165.449L643.266 177.958L647.909 177.389L646.383 164.88Z" fill="white" stroke="#3B3375" stroke-width="0.852228" stroke-linecap="round" stroke-linejoin="round"/>
<path d="M646.629 159.772L647.25 164.846C647.264 164.971 647.229 165.098 647.154 165.199C647.079 165.3 646.968 165.37 646.845 165.393L646.469 165.438L646.399 164.876L641.757 165.443L641.827 166.01L641.441 166.055C641.32 166.057 641.202 166.013 641.11 165.934C641.017 165.855 640.957 165.744 640.94 165.624L640.319 160.545C640.306 160.419 640.34 160.293 640.415 160.192C640.49 160.09 640.601 160.021 640.725 159.998L646.128 159.335C646.251 159.334 646.369 159.378 646.461 159.458C646.554 159.539 646.613 159.65 646.629 159.772Z" fill="white" stroke="#3B3375" stroke-width="0.852228" stroke-linecap="round" stroke-linejoin="round"/>
<path d="M641.977 157.426L644.298 157.142C644.605 157.104 644.915 157.19 645.159 157.382C645.402 157.573 645.56 157.853 645.598 158.161L645.747 159.381L641.104 159.95L640.955 158.73C640.918 158.422 641.004 158.112 641.194 157.867C641.385 157.623 641.665 157.465 641.972 157.427L641.977 157.426Z" fill="#F09956" stroke="#3B3375" stroke-width="0.852228" stroke-linecap="round" stroke-linejoin="round"/>
<path d="M656.205 159.872L655.098 171.551C654.545 171.156 653.898 170.915 653.222 170.85C652.546 170.786 651.865 170.901 651.247 171.185L652.349 159.496C652.397 158.999 652.64 158.542 653.023 158.224C653.407 157.906 653.901 157.753 654.397 157.8H654.512C654.76 157.823 655 157.895 655.22 158.012C655.439 158.129 655.633 158.289 655.791 158.481C655.948 158.674 656.066 158.897 656.137 159.135C656.208 159.374 656.231 159.625 656.205 159.872Z" fill="#F09956" stroke="#3B3375" stroke-width="0.852228" stroke-linecap="round" stroke-linejoin="round"/>
<path d="M655.097 171.551L654.571 177.132L650.72 176.766L651.221 171.185C651.841 170.897 652.527 170.779 653.208 170.843C653.889 170.908 654.541 171.152 655.097 171.551Z" fill="white" stroke="#3B3375" stroke-width="0.852228" stroke-linecap="round" stroke-linejoin="round"/>
<path d="M656.011 161.945L658.019 162.136L657.208 172.163" stroke="#3B3375" stroke-width="0.852228" stroke-linecap="round" stroke-linejoin="round"/>
<path d="M662.509 177.222L658.277 176.675L659.89 163.983L660.391 163.817C660.964 163.626 661.575 163.572 662.173 163.659C662.771 163.746 663.34 163.972 663.836 164.319L664.127 164.525L662.509 177.222Z" fill="#3E337A" stroke="#3B3375" stroke-width="0.852228" stroke-linecap="round" stroke-linejoin="round"/>
<path d="M641.693 176.495H663.958V203.345C663.958 204.099 663.809 204.846 663.521 205.542C663.234 206.239 662.812 206.872 662.28 207.405C661.748 207.938 661.116 208.361 660.421 208.65C659.726 208.938 658.981 209.087 658.229 209.087H647.417C646.664 209.087 645.919 208.938 645.224 208.65C644.529 208.361 643.897 207.938 643.365 207.405C642.834 206.872 642.412 206.239 642.124 205.542C641.836 204.846 641.688 204.099 641.688 203.345V176.495H641.693Z" fill="white" stroke="#3B3375" stroke-width="0.852228" stroke-linecap="round" stroke-linejoin="round"/>
<path d="M96.1384 232.571H127.133C127.133 232.571 130.42 251.18 121.996 257.454H90.4277C93.3551 254.468 95.3411 250.685 96.1384 246.577C97.2852 240.018 96.1384 232.571 96.1384 232.571Z" fill="#F3F2FC" stroke="#3B3375" stroke-miterlimit="10"/>
<path d="M164.312 237.601C164.459 239.319 168.598 251.772 158.317 261.791H127.606C127.606 261.791 135.292 258.07 135.605 249.693C135.918 241.315 132.336 237.601 132.336 237.601H164.312Z" fill="#F7FAFF" stroke="#3B3375" stroke-miterlimit="10"/>
<mask id="mask0" mask-type="alpha" maskUnits="userSpaceOnUse" x="281" y="69" width="182" height="225">
<path d="M462.999 181.137C462.999 243.063 429.062 296.095 372.499 293.263C322.517 293.263 281.999 243.063 281.999 181.137C281.999 119.211 322.517 69.01 372.499 69.01C422.481 69.01 462.999 119.211 462.999 181.137Z" fill="#C4C4C4"/>
</mask>
<g mask="url(#mask0)">
<g clip-path="url(#clip0)">
<rect x="415.871" y="233.033" width="12.6712" height="45.8543" transform="rotate(-19.3693 415.871 233.033)" fill="white"/>
<path d="M402.189 351.519L332.01 327.773L297.336 393.727C295.292 397.419 288.46 398.183 281.818 395.382C278.945 394.173 276.518 392.517 274.794 390.671C273.07 388.825 272.112 386.851 271.984 385.005L304.232 302.627L304.871 300.908L305.19 300.144C307.617 293.905 313.236 289.449 319.941 288.494C320.835 288.367 321.729 288.303 322.623 288.303C323.581 288.303 324.603 288.367 325.561 288.558C325.752 288.558 325.88 288.621 326.071 288.621L393.632 301.099L402.189 351.519Z" fill="white" stroke="#3B3375" stroke-miterlimit="10"/>
<path d="M325.816 291.231C325.816 298.171 320.133 303.836 313.172 303.836C310.171 303.836 307.425 302.818 305.254 301.035L305.573 300.271C308 294.096 313.555 289.704 320.069 288.749C320.963 288.621 321.857 288.558 322.687 288.558C323.645 288.558 324.603 288.621 325.561 288.812C325.752 289.576 325.816 290.404 325.816 291.231Z" fill="#E9E8FA"/>
<path d="M480.159 332.166C478.435 337.068 469.367 345.217 463.939 349.737C463.428 350.119 462.981 350.564 462.534 350.883C458.831 351.774 457.043 352.283 457.043 352.283L430.733 352.538L366.11 353.111C366.11 353.111 363.683 356.676 356.978 320.389C354.36 306.319 340.439 292.377 338.013 291.041C338.013 291.041 386.608 298.68 390.248 299.062C392.291 299.317 398.677 298.489 416.302 299.508C416.621 299.508 416.876 299.444 417.196 299.444C424.156 298.744 429.329 296.77 434.309 294.287C435.65 293.651 436.991 296.897 438.141 296.197C438.652 295.879 438.46 298.362 438.907 298.107L439.865 297.47C448.422 291.995 452.7 293.905 452.7 293.905L467.515 314.595L468.537 315.996L480.159 332.166Z" fill="#3E337A"/>
<path d="M419.686 240.684C416.046 229.989 412.981 222.095 412.023 219.676L419.686 240.684Z" fill="white"/>
<path d="M419.686 240.684C416.046 229.989 412.981 222.095 412.023 219.676" stroke="#3B3375" stroke-miterlimit="10"/>
<path d="M411.704 219.803C411.704 219.294 411.704 218.912 411.704 218.912C411.704 218.339 411.64 217.766 411.576 217.129C410.682 204.524 416.94 202.296 418.728 201.914C420.261 201.596 422.113 201.659 423.39 201.978C423.581 202.041 423.709 202.041 423.901 202.105C424.667 202.359 426.072 202.932 426.774 203.378C435.267 208.598 442.292 224.959 443.122 226.615C444.207 228.779 456.34 257.045 456.34 257.045C456.404 257.236 456.596 257.236 456.787 257.172C457.553 256.727 457.617 256.854 458.894 256.154C459.533 257.936 461.257 260.674 462.726 264.748C464.769 270.414 469.367 305.937 468.537 315.932C468.537 315.996 468.537 316.059 468.537 316.123C468.09 321.216 467.771 324.908 467.707 325.418C467.324 327.901 463.556 328.728 463.556 328.728H463.492H463.301L447.975 327.901H447.783H447.656C447.656 327.901 445.101 327.71 443.569 322.044C443.313 321.025 441.972 314.977 440.056 306.192C439.993 306.001 439.993 305.874 439.929 305.683C439.929 305.619 439.929 305.619 439.865 305.555C437.694 286.202 432.33 276.016 424.795 256.536" fill="white"/>
<path d="M411.704 219.803C411.704 219.294 411.704 218.912 411.704 218.912C411.704 218.339 411.64 217.766 411.576 217.129C410.682 204.524 416.94 202.296 418.728 201.914C420.261 201.596 422.113 201.659 423.39 201.978C423.581 202.041 423.709 202.041 423.901 202.105C424.667 202.359 426.072 202.932 426.774 203.378C435.267 208.598 442.292 224.959 443.122 226.615C444.207 228.779 456.34 257.045 456.34 257.045C456.404 257.236 456.596 257.236 456.787 257.172C457.553 256.727 457.617 256.854 458.894 256.154C459.533 257.936 461.257 260.674 462.726 264.748C464.769 270.414 469.367 305.937 468.537 315.932C468.537 315.996 468.537 316.059 468.537 316.123C468.09 321.216 467.771 324.908 467.707 325.418C467.324 327.901 463.556 328.728 463.556 328.728H463.492H463.301L447.975 327.901H447.783H447.656C447.656 327.901 445.101 327.71 443.569 322.044C443.313 321.025 441.972 314.977 440.056 306.192C439.993 306.001 439.993 305.874 439.929 305.683C439.929 305.619 439.929 305.619 439.865 305.555C437.694 286.202 432.33 276.016 424.795 256.536" stroke="#3B3375" stroke-miterlimit="10"/>
<path d="M426.775 203.378C426.073 202.932 424.668 202.36 423.901 202.105C423.774 202.041 423.582 202.041 423.391 201.978C424.987 201.214 426.456 201.023 427.03 200.959C428.818 200.704 430.926 201.023 432.203 201.468C432.969 201.787 431.82 202.869 432.458 203.314C436.354 206.052 438.397 210.636 440.951 215.601C442.931 219.421 445.677 223.241 446.507 225.278C446.826 226.105 446.762 225.851 446.826 226.105C447.593 227.888 455.894 248.896 458.512 256.281L456.788 257.109C456.66 257.172 456.469 257.172 456.341 256.981C456.341 256.981 444.208 228.779 443.123 226.551C442.292 224.959 435.268 208.598 426.775 203.378Z" fill="white" stroke="#3B3375" stroke-miterlimit="10"/>
<path d="M438.141 296.133C413.364 304.855 403.275 301.481 392.1 299.571C386.353 287.794 380.861 278.435 373.901 259.655C370.58 250.615 369.622 238.838 370.708 226.742C370.708 226.742 347.144 235.145 328.051 235.273C317.578 235.336 311.831 232.089 313.747 217.002C316.046 199.113 322.942 189.309 329.2 170.91C330.158 171.547 330.861 172.247 333.16 172.247C334.309 172.247 335.458 171.929 336.48 171.292L342.227 169.064L342.738 168.873L345.356 167.855C346.059 175.749 337.693 205.352 338.651 205.67C343.313 207.198 365.663 198.349 365.663 198.349C368.6 197.139 375.625 189.5 379.137 188.481C380.414 188.099 382.138 187.845 384.373 187.972C384.437 188.354 384.501 188.736 384.565 189.118C384.692 190.073 384.82 191.091 384.884 192.046C385.076 194.147 385.139 196.184 385.012 198.03C385.012 198.349 384.948 198.603 384.948 198.858C384.884 199.113 384.884 199.431 384.82 199.686C384.501 201.723 384.309 203.505 384.182 204.906C384.182 205.097 384.118 205.352 384.118 205.543C383.926 208.471 384.118 209.999 384.692 210.444C384.756 210.444 384.756 210.508 384.756 210.508C386.225 211.336 389.29 209.235 391.972 206.115C392.93 204.97 394.016 203.314 395.037 201.595L395.101 201.532C396.825 198.667 398.294 195.866 398.358 195.675C398.486 195.993 398.613 196.312 398.741 196.63C399.252 197.967 399.763 199.431 400.21 201.023C400.529 202.105 400.848 203.251 401.104 204.46C401.295 205.161 401.423 205.924 401.615 206.625C401.742 207.134 401.806 207.707 401.934 208.216C402.062 208.789 402.7 209.362 402.764 209.935C402.764 210.126 402.764 210.381 402.828 210.572C402.956 211.463 406.979 238.328 407.873 238.328C408.894 237.819 406.787 235.145 407.362 232.79V232.726C408 230.052 411.832 225.978 411.576 218.975" fill="white"/>
<path d="M438.141 296.133C413.364 304.855 403.275 301.481 392.1 299.571C386.353 287.794 380.861 278.435 373.901 259.655C370.58 250.615 369.622 238.838 370.708 226.742C370.708 226.742 347.144 235.145 328.051 235.273C317.578 235.336 311.831 232.089 313.747 217.002C316.046 199.113 322.942 189.309 329.2 170.91C330.158 171.547 330.861 172.247 333.16 172.247C334.309 172.247 335.458 171.929 336.48 171.292L342.227 169.064L342.738 168.873L345.356 167.855C346.059 175.749 337.693 205.352 338.651 205.67C343.313 207.198 365.663 198.349 365.663 198.349C368.6 197.139 375.625 189.5 379.137 188.481C380.414 188.099 382.138 187.845 384.373 187.972C384.437 188.354 384.501 188.736 384.565 189.118C384.692 190.073 384.82 191.091 384.884 192.046C385.076 194.147 385.139 196.184 385.012 198.03C385.012 198.349 384.948 198.603 384.948 198.858C384.884 199.113 384.884 199.431 384.82 199.686C384.501 201.723 384.309 203.505 384.182 204.906C384.182 205.097 384.118 205.352 384.118 205.543C383.926 208.471 384.118 209.999 384.692 210.444C384.756 210.444 384.756 210.508 384.756 210.508C386.225 211.336 389.29 209.235 391.972 206.115C392.93 204.97 394.016 203.314 395.037 201.595L395.101 201.532C396.825 198.667 398.294 195.866 398.358 195.675C398.486 195.993 398.613 196.312 398.741 196.63C399.252 197.967 399.763 199.431 400.21 201.023C400.529 202.105 400.848 203.251 401.104 204.46C401.295 205.161 401.423 205.924 401.615 206.625C401.742 207.134 401.806 207.707 401.934 208.216C402.062 208.789 402.7 209.362 402.764 209.935C402.764 210.126 402.764 210.381 402.828 210.572C402.956 211.463 406.979 238.328 407.873 238.328C408.894 237.819 406.787 235.145 407.362 232.79V232.726C408 230.052 411.832 225.978 411.576 218.975" stroke="#3B3375" stroke-miterlimit="10" stroke-linecap="round" stroke-linejoin="round"/>
<path d="M398.294 196.121C398.422 196.439 398.55 196.757 398.613 197.012C399.124 198.349 399.571 199.813 400.018 201.341C400.018 201.341 396.889 205.988 396.251 206.752C395.357 207.898 389.865 216.365 383.607 214.837C377.413 213.309 383.862 199.558 384.693 188.354C385.267 192.364 385.459 196.63 384.948 199.813C383.735 206.688 383.799 209.935 384.756 210.444C386.161 211.272 389.163 209.235 391.845 206.243C394.463 203.314 398.103 196.439 398.294 196.121Z" fill="#3B3375" stroke="#3B3375" stroke-width="0.5" stroke-miterlimit="10"/>
<path d="M370.835 215.792C371.027 220.121 370.771 226.806 370.771 226.806L370.835 215.792Z" fill="white"/>
<path d="M370.835 215.792C371.027 220.121 370.771 226.806 370.771 226.806" stroke="#3B3375" stroke-miterlimit="10" stroke-linecap="round" stroke-linejoin="round"/>
<path d="M398.485 195.675C398.294 195.993 394.718 203.06 392.1 206.116C389.418 209.235 386.353 211.336 384.884 210.508C383.926 209.999 383.798 206.689 384.948 199.686C385.012 199.176 385.075 198.604 385.139 198.031C385.395 195.038 385.075 191.41 384.565 187.972C383.862 183.325 382.649 178.996 381.755 176.895C384.245 175.303 386.8 172.948 388.332 170.592C392.419 180.524 396.697 191.155 398.485 195.675Z" stroke="#3B3375" stroke-miterlimit="10" stroke-linecap="round" stroke-linejoin="round"/>
<path d="M388.334 170.529C388.334 170.594 388.269 170.594 388.269 170.659" stroke="#3B3375" stroke-miterlimit="10" stroke-linecap="round" stroke-linejoin="round"/>
<path d="M384.501 187.972C377.477 188.163 370.006 195.739 367.26 197.521L367.068 174.985C367.515 175.43 368.026 175.812 368.537 176.194C368.729 176.322 368.856 176.449 369.048 176.513C371.794 178.359 375.051 179.059 377.669 178.55C378.882 178.295 380.287 177.659 381.692 176.831C382.586 179.059 383.799 183.388 384.501 187.972Z" fill="#E9E8FA" stroke="#3B3375" stroke-miterlimit="10"/>
<path d="M388.269 170.656C386.672 173.011 384.182 175.367 381.692 176.958C380.287 177.85 378.882 178.486 377.669 178.677C374.412 179.314 370.133 177.977 367.068 175.049C367.068 175.049 367.068 175.049 367.004 174.985C366.302 174.285 365.663 173.521 365.153 172.693C364.259 171.229 363.365 169.446 362.534 167.409C360.746 167.155 357.937 166.518 358.958 165.054C359.597 164.162 360.108 163.08 360.555 161.998C359.852 159.833 359.15 157.669 358.639 155.632C358.001 153.467 357.554 151.43 357.17 149.966C356.787 148.311 356.596 147.228 356.596 147.037C357.17 146.592 357.809 145.828 358.767 144.873C360.363 143.345 363.301 141.626 363.812 141.244C367.196 139.143 367.962 137.297 368.154 137.743C369.814 141.69 375.625 146.592 378.754 150.284C380.223 152.13 384.182 161.043 388.269 170.656Z" stroke="#3B3375" stroke-miterlimit="10" stroke-linecap="round" stroke-linejoin="round"/>
<path d="M461.513 255.071C460.619 255.835 457.49 256.663 456.787 257.172C456.66 257.299 456.468 257.236 456.34 257.045C456.34 257.045 444.207 228.843 443.122 226.615C442.292 224.959 435.267 208.535 426.774 203.378C426.072 202.932 424.667 202.359 423.901 202.105C423.773 202.041 423.581 202.041 423.39 201.977C422.113 201.659 420.261 201.595 418.728 201.914C416.94 202.296 410.682 204.524 411.576 217.129C411.64 217.766 411.64 218.338 411.704 218.911C411.959 225.914 415.344 254.753 415.344 254.817C414.705 257.172 412.534 258.509 411.512 258.955C411.512 258.955 402.125 208.726 401.998 208.216C401.87 207.707 401.806 207.134 401.678 206.625C401.551 205.924 401.359 205.161 401.168 204.46C400.912 203.314 400.593 202.168 400.274 201.022C399.827 199.495 399.316 198.03 398.805 196.63C398.677 196.375 398.613 196.057 398.422 195.675C396.634 191.155 392.419 180.523 388.205 170.656C384.118 161.043 380.158 152.13 378.626 150.348C375.497 146.655 369.75 141.753 368.026 137.806C367.834 137.297 367.068 139.207 363.683 141.308C363.683 141.308 363.619 141.308 363.619 141.371C363.556 141.371 363.556 141.435 363.492 141.435C363.364 141.499 363.236 141.626 363.045 141.753C362.981 141.817 362.917 141.817 362.853 141.881C362.598 142.072 362.278 142.263 361.959 142.454C361.831 142.517 361.704 142.581 361.576 142.708C361.257 142.899 360.874 143.154 360.554 143.409C360.427 143.472 360.363 143.536 360.235 143.663C359.788 143.982 359.341 144.363 358.958 144.682C358.83 144.809 358.766 144.873 358.639 145C357.681 145.955 357.042 146.719 356.467 147.165C356.404 147.228 356.34 147.292 356.276 147.292C356.276 147.292 356.212 147.292 356.212 147.356C355.893 147.547 355.446 147.356 355.382 146.974C355.382 146.91 355.382 146.846 355.382 146.783C355.446 146.019 355.573 144.936 355.829 143.727C356.914 138.825 359.98 131.313 365.791 127.047C373.9 121.127 380.542 121.254 384.373 121.827C388.268 122.4 396.123 124.756 401.104 131.567C405.765 137.87 450.146 228.397 451.551 231.644C455.319 240.493 457.937 243.74 461.896 253.734C462.151 254.244 461.96 254.689 461.513 255.071Z" fill="#E9E8FA" stroke="#3B3375" stroke-miterlimit="10"/>
<path d="M363.939 167.6C363.939 167.6 363.3 167.536 362.534 167.409" stroke="#3B3375" stroke-miterlimit="10" stroke-linecap="round" stroke-linejoin="round"/>
<path d="M360.49 161.998C361.767 158.687 362.151 155.122 361.831 153.976" stroke="#3B3375" stroke-miterlimit="10" stroke-linecap="round" stroke-linejoin="round"/>
<path d="M368.856 135.705C369.559 134.878 372.879 129.721 383.16 127.175" stroke="#3B3375" stroke-miterlimit="10" stroke-linecap="round" stroke-linejoin="round"/>
<path d="M390.695 161.298C394.207 161.871 398.167 158.56 397.911 153.531C397.72 149.202 394.08 146.465 391.015 146.846C388.46 147.228 387.439 149.138 387.247 149.711L390.695 161.298Z" fill="white"/>
<path d="M390.695 161.298C394.207 161.871 398.167 158.56 397.911 153.531C397.72 149.202 394.08 146.465 391.015 146.846C388.46 147.228 387.439 149.138 387.247 149.711" stroke="#3B3375" stroke-miterlimit="10" stroke-linecap="round" stroke-linejoin="round"/>
<path d="M393.185 152.831C393.058 153.467 391.844 155.823 390.823 156.587C389.801 157.351 393.568 155.568 393.888 155.377" stroke="#3B3375" stroke-miterlimit="10" stroke-linecap="round" stroke-linejoin="round"/>
<path d="M395.74 162.444C395.868 163.972 394.974 165.436 393.505 166.072C391.653 166.836 389.546 165.945 388.78 164.035C388.013 162.189 388.907 160.088 390.823 159.324" stroke="#3B3375" stroke-miterlimit="10" stroke-linecap="round" stroke-linejoin="round"/>
<path d="M367.579 157.796C368.345 157.669 372.177 158.815 373.199 159.579" stroke="#3B3375" stroke-miterlimit="10" stroke-linecap="round" stroke-linejoin="round"/>
<path d="M358.575 155.632C359.022 155.632 359.916 155.887 359.916 155.887" stroke="#3B3375" stroke-miterlimit="10" stroke-linecap="round" stroke-linejoin="round"/>
<path d="M367.706 150.984C368.536 150.857 371.857 151.112 374.028 152.258" stroke="#3B3375" stroke-miterlimit="10" stroke-linecap="round" stroke-linejoin="round"/>
<path d="M357.106 149.966C358.192 149.775 358.767 149.966 359.022 150.093" stroke="#3B3375" stroke-miterlimit="10" stroke-linecap="round" stroke-linejoin="round"/>
<path d="M368.473 173.139C369.494 173.075 373.198 171.611 374.731 168.81" stroke="#3B3375" stroke-miterlimit="10" stroke-linecap="round" stroke-linejoin="round"/>
<path d="M370.771 174.476C371.793 174.348 372.943 173.584 373.326 173.011" stroke="#3B3375" stroke-miterlimit="10" stroke-linecap="round" stroke-linejoin="round"/>
<path d="M377.541 162.825C377.924 164.162 376.136 165.754 373.582 166.518C371.028 167.218 368.665 166.709 368.346 165.436C367.963 164.099 369.751 162.507 372.305 161.743C374.859 161.043 377.222 161.489 377.541 162.825Z" fill="#E8E7F9"/>
<path d="M388.206 170.783C388.206 170.848 388.141 170.848 388.141 170.913" stroke="#3B3375" stroke-miterlimit="10" stroke-linecap="round" stroke-linejoin="round"/>
<path d="M363.811 167.791C363.811 167.791 363.173 167.727 362.406 167.6" stroke="#3B3375" stroke-miterlimit="10" stroke-linecap="round" stroke-linejoin="round"/>
<path d="M360.362 162.253C361.639 158.942 362.023 155.377 361.703 154.231" stroke="#3B3375" stroke-miterlimit="10" stroke-linecap="round" stroke-linejoin="round"/>
<path d="M342.164 159.388C342.164 163.08 341.078 166.454 339.354 168.81C338.588 169.892 337.63 170.783 336.608 171.356C335.587 171.929 334.437 172.311 333.288 172.311C332.521 172.311 331.691 172.184 330.989 171.865C327.157 170.401 324.348 165.372 324.348 159.388C324.348 152.258 328.307 146.464 333.288 146.464C334.054 146.464 334.884 146.592 335.587 146.91C336.928 147.419 338.205 148.438 339.226 149.711C341.014 152.13 342.164 155.568 342.164 159.388Z" fill="#F1F6FF" stroke="#3E337A" stroke-miterlimit="10" stroke-linecap="round" stroke-linejoin="round"/>
<path d="M347.272 159.26C347.272 160.979 347.016 162.571 346.569 163.971C346.314 164.735 345.995 165.499 345.675 166.136C344.909 167.473 343.951 168.428 342.93 168.937L342.419 169.128L336.672 171.356C337.693 170.719 338.651 169.892 339.417 168.81C341.142 166.454 342.227 163.08 342.227 159.388C342.227 155.568 341.078 152.067 339.226 149.711C338.204 148.374 336.991 147.419 335.586 146.91L339.673 148.374L342.419 149.393L342.674 149.456C343.887 149.966 344.909 151.048 345.739 152.512C346.059 153.085 346.314 153.722 346.506 154.358C346.953 155.823 347.272 157.478 347.272 159.26Z" fill="#3E337A" stroke="#3E337A" stroke-miterlimit="10"/>
<path d="M353.913 159.133C353.913 163.08 352.125 165.372 349.635 166.263L346.314 167.6L345.484 167.918L342.866 168.937C343.951 168.428 344.909 167.473 345.612 166.136C345.995 165.499 346.25 164.799 346.506 163.971C346.953 162.571 347.208 160.979 347.208 159.26C347.208 157.478 346.953 155.823 346.442 154.358C346.25 153.722 345.931 153.085 345.675 152.512C344.909 151.048 343.824 149.966 342.61 149.457L346.506 150.857L349.635 151.939C352.189 152.831 353.913 155.186 353.913 159.133Z" fill="white" stroke="#3B3375" stroke-miterlimit="10" stroke-linecap="round" stroke-linejoin="round"/>
<path d="M362.152 159.388C362.152 159.642 362.152 159.833 362.152 160.088C362.152 160.343 362.152 160.597 362.088 160.852C362.088 160.979 362.088 161.17 362.024 161.298C362.024 161.616 361.96 161.87 361.896 162.125C361.832 162.316 361.832 162.571 361.768 162.762C361.705 162.953 361.705 163.144 361.641 163.335C361.449 164.162 361.194 164.99 360.874 165.754C360.811 165.945 360.747 166.136 360.619 166.327C360.236 167.218 359.725 168.046 359.214 168.81C358.448 169.892 357.49 170.783 356.468 171.356C355.447 171.929 354.297 172.311 353.148 172.311C350.338 172.311 347.848 170.465 346.251 167.536C345.996 167.091 345.74 166.581 345.549 166.072C344.718 164.099 344.271 161.807 344.271 159.388C344.271 156.841 344.782 154.486 345.612 152.512C345.868 151.939 346.187 151.366 346.506 150.857C348.103 148.183 350.53 146.464 353.212 146.464C353.978 146.464 354.68 146.592 355.383 146.846C355.447 146.846 355.447 146.846 355.51 146.91C355.638 146.974 355.766 147.037 355.894 147.037C356.021 147.101 356.085 147.165 356.213 147.228C356.468 147.356 356.66 147.483 356.915 147.61C357.043 147.674 357.107 147.738 357.235 147.801C357.235 147.801 357.298 147.801 357.298 147.865C357.362 147.929 357.49 147.992 357.554 148.056C357.682 148.183 357.809 148.247 357.937 148.374C358.065 148.502 358.192 148.629 358.32 148.756C358.448 148.884 358.576 149.074 358.703 149.202C358.831 149.329 358.959 149.52 359.086 149.711C359.214 149.902 359.406 150.093 359.533 150.284L359.597 150.348C359.661 150.475 359.789 150.602 359.853 150.73C359.917 150.857 359.98 150.984 360.044 151.112C360.172 151.303 360.236 151.494 360.364 151.685C360.491 151.876 360.555 152.13 360.683 152.321C360.811 152.64 360.938 152.958 361.066 153.34C361.13 153.594 361.194 153.785 361.321 154.04C361.385 154.295 361.449 154.549 361.513 154.804C361.513 154.868 361.577 154.931 361.577 154.995C361.641 155.25 361.705 155.504 361.768 155.695C361.768 155.823 361.832 155.95 361.832 156.077C361.896 156.268 361.896 156.459 361.96 156.65C361.96 156.841 362.024 156.969 362.024 157.16C362.024 157.223 362.024 157.223 362.024 157.287C362.024 157.478 362.088 157.605 362.088 157.796C362.088 158.051 362.152 158.242 362.152 158.496C362.152 158.815 362.152 159.133 362.152 159.388Z" fill="#F1F6FF" stroke="#3E337A" stroke-miterlimit="10" stroke-linecap="round" stroke-linejoin="round"/>
<path d="M367.26 159.26C367.26 160.979 367.004 162.571 366.557 163.971C365.791 166.391 364.45 168.173 362.854 168.937L362.343 169.128L356.596 171.356C357.617 170.72 358.575 169.892 359.341 168.81C359.852 168.046 360.363 167.218 360.746 166.327C360.81 166.136 360.874 165.945 361.002 165.754C361.321 164.99 361.576 164.162 361.768 163.335C361.832 163.144 361.832 162.953 361.896 162.762C361.96 162.571 361.96 162.316 362.023 162.125C362.087 161.871 362.087 161.552 362.151 161.298C362.151 161.17 362.151 160.979 362.215 160.852C362.215 160.597 362.279 160.343 362.279 160.088C362.279 159.897 362.279 159.642 362.279 159.451V159.388C362.279 159.133 362.279 158.815 362.279 158.56C362.279 158.305 362.279 158.114 362.215 157.86C362.215 157.669 362.215 157.542 362.151 157.351C362.151 157.287 362.151 157.287 362.151 157.223C362.151 157.032 362.087 156.905 362.087 156.714C362.087 156.523 362.023 156.332 361.96 156.141C361.96 156.014 361.896 155.886 361.896 155.759C361.832 155.504 361.768 155.25 361.704 155.059C361.704 154.995 361.704 154.931 361.64 154.868C361.576 154.613 361.513 154.358 361.449 154.104C361.385 153.849 361.321 153.658 361.193 153.403C361.066 153.085 360.938 152.703 360.81 152.385C360.682 152.13 360.619 151.939 360.491 151.748C360.363 151.557 360.299 151.366 360.172 151.175C360.108 151.048 360.044 150.921 359.98 150.793C359.916 150.666 359.788 150.539 359.725 150.411C359.725 150.411 359.725 150.348 359.661 150.348C359.533 150.157 359.405 149.966 359.214 149.775C359.086 149.584 358.958 149.456 358.831 149.265C358.703 149.138 358.575 148.947 358.447 148.82C358.32 148.692 358.192 148.565 358.064 148.438C357.937 148.311 357.809 148.247 357.681 148.12C357.617 148.056 357.49 147.992 357.426 147.929L357.362 147.865C357.234 147.801 357.17 147.738 357.043 147.674C356.851 147.547 356.596 147.419 356.34 147.292C356.212 147.228 356.149 147.165 356.021 147.101C355.893 147.037 355.765 146.974 355.638 146.974L362.534 149.393C364.322 149.966 365.791 151.876 366.621 154.358C366.94 155.823 367.26 157.478 367.26 159.26Z" fill="#3E337A" stroke="#3E337A" stroke-miterlimit="10"/>
<path d="M373.965 159.069C373.965 163.016 372.177 165.308 369.687 166.199L362.854 168.873C364.451 168.109 365.792 166.263 366.558 163.908C367.005 162.507 367.26 160.916 367.26 159.197C367.26 157.414 367.005 155.759 366.494 154.295C365.664 151.748 364.195 149.902 362.407 149.329L365.919 150.602L369.687 151.939C372.241 152.83 373.965 155.122 373.965 159.069Z" fill="white" stroke="#3B3375" stroke-miterlimit="10" stroke-linecap="round" stroke-linejoin="round"/>
<path d="M365.919 150.603L362.406 149.329L355.51 146.91C355.446 146.91 355.446 146.846 355.382 146.846C354.68 146.592 353.977 146.464 353.211 146.464C350.529 146.464 348.166 148.183 346.506 150.857L342.611 149.457L342.355 149.393L339.609 148.374C340.376 147.037 342.355 142.963 348.613 142.899C351.231 142.899 353.658 143.154 355.829 143.663C356.979 143.918 358.064 144.236 359.022 144.618C360.682 145.255 362.087 146.019 363.173 146.974C364.769 148.247 365.855 150.475 365.919 150.603Z" fill="white" stroke="#3B3375" stroke-miterlimit="10" stroke-linecap="round" stroke-linejoin="round"/>
</g>
</g>
<path d="M560.279 87.4763C557.48 86.3164 555.635 84.458 555.347 82.1469C555.022 79.1449 557.505 76.2553 561.457 74.43C561.066 72.4582 560.285 70.5529 559.283 68.7657C557.875 66.4843 556.046 64.5694 553.854 63.0381C552.269 66.6331 549.506 68.8195 547.317 68.0922C545.015 67.3305 544.126 63.5394 545.209 59.3593C540.807 58.3916 535.871 58.373 530.659 59.2593C531.407 64.7372 529.91 69.4706 526.719 70.4155C523.586 71.3775 519.841 68.4476 517.427 63.5749C515.766 64.367 514.161 65.1763 512.562 66.1725C509.233 68.1869 506.135 70.457 503.472 72.9212C503.539 73.3122 503.605 73.7031 503.616 74.0768C504.332 80.4718 501.994 85.9381 498.472 86.3495C496.999 86.5194 495.501 85.7551 494.266 84.3293C489.485 92.7589 488.569 101.684 492.721 108.568C496.855 115.508 505.269 118.931 515.115 118.651C513.674 115.865 513.514 112.728 514.976 110.146C517.566 105.683 524.176 104.666 529.76 107.846C532.229 109.277 534.041 111.248 535.11 113.426C536.567 112.696 538.024 111.965 539.402 111.087C549.798 104.921 557.151 96.1612 560.279 87.4763ZM540.56 93.217C537.4 91.8236 535.404 89.2399 536.179 87.499C536.954 85.758 540.142 85.4303 543.359 86.8409C546.52 88.2342 548.516 90.8179 547.741 92.5589C546.966 94.2998 543.721 94.6103 540.56 93.217Z" fill="#3E337A"/>
<path d="M533.219 79.7424C523.458 81.778 499.878 96.784 492.209 103.532" stroke="white" stroke-width="1.13514" stroke-miterlimit="10" stroke-linecap="round" stroke-linejoin="round"/>
<path d="M525.735 89.1413C525.735 89.1413 523.708 87.4748 518.787 85.9785" stroke="white" stroke-width="1.13514" stroke-miterlimit="10" stroke-linecap="round" stroke-linejoin="round"/>
<path d="M513.972 78.8319C513.691 83.6265 509.841 91.2273 509.841 91.2273" stroke="white" stroke-width="1.13514" stroke-miterlimit="10" stroke-linecap="round" stroke-linejoin="round"/>
<path d="M510.572 100.221C505.257 97.9874 499.976 97.6788 499.976 97.6788" stroke="white" stroke-width="1.13514" stroke-miterlimit="10" stroke-linecap="round" stroke-linejoin="round"/>
<path d="M497.199 156.938C499.597 155.752 501.747 154.367 503.518 152.805C501.496 151.326 500.54 149.182 501.389 147.402C502.341 145.282 505.57 144.411 508.755 145.317C509.235 143.734 509.285 142.143 508.888 140.602C507.04 133.863 496.756 131.106 485.871 134.406C485.244 137.489 483.233 139.843 481.451 139.61C480.381 139.47 479.608 138.555 479.273 137.218C472.184 141.239 467.976 147.372 469.409 152.626C471.094 158.883 480.053 161.731 489.996 159.504C489.264 158.046 489.319 156.642 490.363 155.847C491.845 154.63 494.849 155.111 497.199 156.938ZM494.344 140.689C493.22 139.914 493.537 137.849 494.986 136.127C496.435 134.406 498.526 133.621 499.594 134.378C500.718 135.152 500.401 137.218 498.952 138.939C497.486 140.717 495.451 141.519 494.344 140.689Z" fill="#3E337A"/>
<path d="M495.819 143.978C495.106 143.885 481.963 144.645 470.497 152.71" stroke="white" stroke-width="1.13514" stroke-miterlimit="10" stroke-linecap="round" stroke-linejoin="round"/>
<path d="M483.207 150.521C481.98 150.086 475.629 149.638 475.629 149.638" stroke="white" stroke-width="1.13514" stroke-miterlimit="10" stroke-linecap="round" stroke-linejoin="round"/>
<path d="M487.777 141.162C487.277 141.998 483.21 146.444 483.21 146.444" stroke="white" stroke-width="1.13514" stroke-miterlimit="10" stroke-linecap="round" stroke-linejoin="round"/>
<path d="M494.267 146.039C490.971 144.481 490.971 144.481 490.971 144.481" stroke="white" stroke-width="1.13514" stroke-miterlimit="10" stroke-linecap="round" stroke-linejoin="round"/>
<path d="M491.221 104.344C483.697 108.172 456.963 138.464 456.442 172.156" stroke="#3E337A" stroke-width="1.13514" stroke-miterlimit="10"/>
<path d="M469.719 153.647C469.719 153.647 459.147 158.153 459.59 174.41" stroke="#3E337A" stroke-width="1.13514" stroke-miterlimit="10"/>
<defs>
<clipPath id="clip0">
<rect width="741" height="637" fill="white" transform="translate(61 8)"/>
</clipPath>
</defs>
</svg>
