<svg width="220" height="226" viewBox="0 0 220 226" fill="none" xmlns="http://www.w3.org/2000/svg">
<path fill-rule="evenodd" clip-rule="evenodd" d="M131 17C130.558 17 130.2 17.3582 130.2 17.8V18.2C130.2 19.3045 129.305 20.2 128.2 20.2H127.8C127.358 20.2 127 20.5581 127 21C127 21.4418 127.358 21.8 127.8 21.8H128.2C129.305 21.8 130.2 22.6954 130.2 23.8V24.2C130.2 24.6418 130.558 25 131 25C131.442 25 131.8 24.6418 131.8 24.2V23.8C131.8 22.6954 132.695 21.8 133.8 21.8H134.2C134.642 21.8 135 21.4418 135 21C135 20.5581 134.642 20.2 134.2 20.2H133.8C132.695 20.2 131.8 19.3045 131.8 18.2V17.8C131.8 17.3582 131.442 17 131 17Z" fill="#E0E7F7"/>
<path d="M129.077 49.2634C129.533 47.8965 131.467 47.8965 131.923 49.2634L133.345 53.524C133.549 54.1363 134.122 54.5491 134.768 54.5491L139.282 54.5492C140.745 54.5492 141.342 56.429 140.148 57.2738L136.566 59.8077C136.026 60.1896 135.8 60.88 136.009 61.5072L137.394 65.6559C137.853 67.0308 136.288 68.1924 135.105 67.3553L131.366 64.711C130.847 64.3438 130.153 64.3438 129.634 64.711L125.895 67.3553C124.712 68.1924 123.147 67.0308 123.606 65.6559L124.991 61.5072C125.2 60.88 124.974 60.1896 124.434 59.8077L120.852 57.2738C119.658 56.429 120.255 54.5492 121.718 54.5492L126.232 54.5491C126.878 54.5491 127.451 54.1363 127.655 53.524L129.077 49.2634Z" fill="#604BE8"/>
<path d="M42.5729 4.40822C43.021 3.02421 44.979 3.02421 45.4271 4.40822L46.2607 6.98328C46.461 7.60209 47.0374 8.02129 47.6878 8.02129H50.3971C51.8489 8.02129 52.4539 9.87791 51.2809 10.7333L49.0796 12.3385C48.5558 12.7205 48.3366 13.3957 48.5363 14.0125L49.3749 16.6029C49.8226 17.9858 48.2385 19.1333 47.064 18.2769L44.8838 16.687C44.3572 16.303 43.6428 16.303 43.1162 16.687L40.936 18.2769C39.7615 19.1333 38.1774 17.9858 38.6251 16.6029L39.4637 14.0125C39.6634 13.3957 39.4442 12.7205 38.9204 12.3385L36.7191 10.7333C35.5461 9.87791 36.1511 8.02129 37.6029 8.02129H40.3122C40.9626 8.02129 41.539 7.60209 41.7393 6.98328L42.5729 4.40822Z" fill="#604BE8"/>
<path d="M191.097 92.9032C191.692 91.0549 194.308 91.0549 194.903 92.9032L195.386 94.399C195.652 95.2252 196.421 95.7852 197.289 95.7852H198.882C200.816 95.7852 201.624 98.2567 200.064 99.399L198.749 100.362C198.053 100.871 197.762 101.769 198.027 102.589L198.523 104.128C199.118 105.973 197.002 107.501 195.438 106.355L194.181 105.435C193.478 104.92 192.522 104.92 191.819 105.435L190.562 106.355C188.998 107.501 186.882 105.973 187.477 104.128L187.973 102.589C188.238 101.769 187.947 100.871 187.251 100.362L185.936 99.399C184.376 98.2567 185.184 95.7852 187.118 95.7852H188.711C189.579 95.7852 190.348 95.2252 190.614 94.399L191.097 92.9032Z" fill="#F19857"/>
<path d="M175 70C175 60.0589 183.059 52 193 52" stroke="#604BE8" stroke-width="4"/>
<path d="M90.3652 27.9999C97.3 29.8588 101.415 36.9876 99.5561 43.9224" stroke="#F19857" stroke-width="3"/>
<path d="M182.482 5.99993C178.902 6.95959 176.778 10.6399 177.738 14.22" stroke="#F19857" stroke-width="3"/>
<path d="M51.9994 77.6142C56.9239 73.9613 63.8773 74.9921 67.5302 79.9166" stroke="#604BE8" stroke-width="4"/>
<path fill-rule="evenodd" clip-rule="evenodd" d="M7.00156 52C6.22836 52 5.60156 52.6268 5.60156 53.4V55.5999C5.60156 56.7045 4.70613 57.5999 3.60156 57.5999H1.4C0.626801 57.5999 0 58.2267 0 58.9999C0 59.7731 0.626802 60.3999 1.4 60.3999H3.60156C4.70613 60.3999 5.60156 61.2954 5.60156 62.3999V64.6C5.60156 65.3732 6.22836 66 7.00156 66C7.77476 66 8.40156 65.3732 8.40156 64.6V62.3999C8.40156 61.2954 9.29699 60.3999 10.4016 60.3999H12.6C13.3732 60.3999 14 59.7731 14 58.9999C14 58.2267 13.3732 57.5999 12.6 57.5999H10.4016C9.29699 57.5999 8.40156 56.7045 8.40156 55.5999V53.4C8.40156 52.6268 7.77476 52 7.00156 52Z" fill="#E0E7F7"/>
<path fill-rule="evenodd" clip-rule="evenodd" d="M59.5016 36C59.0045 36 58.6016 36.4029 58.6016 36.9V37.6C58.6016 38.7045 57.7061 39.6 56.6016 39.6H55.9C55.4029 39.6 55 40.0029 55 40.5C55 40.997 55.4029 41.4 55.9 41.4H56.6016C57.7061 41.4 58.6016 42.2954 58.6016 43.4V44.1C58.6016 44.5971 59.0045 45 59.5016 45C59.9986 45 60.4016 44.5971 60.4016 44.1V43.4C60.4016 42.2954 61.297 41.4 62.4016 41.4H63.1C63.5971 41.4 64 40.997 64 40.5C64 40.0029 63.5971 39.6 63.1 39.6H62.4016C61.297 39.6 60.4016 38.7045 60.4016 37.6V36.9C60.4016 36.4029 59.9986 36 59.5016 36Z" fill="#E0E7F7"/>
<path fill-rule="evenodd" clip-rule="evenodd" d="M209.002 25C208.228 25 207.602 25.6268 207.602 26.4V28.5999C207.602 29.7045 206.706 30.5999 205.602 30.5999H203.4C202.627 30.5999 202 31.2267 202 31.9999C202 32.7731 202.627 33.3999 203.4 33.3999H205.602C206.706 33.3999 207.602 34.2954 207.602 35.3999V37.6C207.602 38.3732 208.228 39 209.002 39C209.775 39 210.402 38.3732 210.402 37.6V35.3999C210.402 34.2954 211.297 33.3999 212.402 33.3999H214.6C215.373 33.3999 216 32.7731 216 31.9999C216 31.2267 215.373 30.5999 214.6 30.5999H212.402C211.297 30.5999 210.402 29.7045 210.402 28.5999V26.4C210.402 25.6268 209.775 25 209.002 25Z" fill="#E0E7F7"/>
<path d="M15.0998 84.7875C15.7022 82.9527 18.2978 82.9526 18.9002 84.7875L20.5613 89.8468C20.8309 90.6679 21.5974 91.2229 22.4615 91.2229L27.7923 91.2229C29.7348 91.2229 30.537 93.7128 28.9599 94.8468L24.6832 97.9216C23.9749 98.4309 23.6784 99.3405 23.9505 100.169L25.5925 105.17C26.1963 107.009 24.0963 108.548 22.5248 107.418L18.1675 104.285C17.47 103.784 16.53 103.784 15.8325 104.285L11.4752 107.418C9.90369 108.548 7.80368 107.009 8.40746 105.17L10.0494 100.169C10.3216 99.3405 10.0251 98.4309 9.31678 97.9216L5.04015 94.8468C3.46299 93.7128 4.26518 91.2229 6.20768 91.2229L11.5385 91.2229C12.4026 91.2229 13.1691 90.6679 13.4387 89.8468L15.0998 84.7875Z" fill="#F19857"/>
<g filter="url(#filter0_d)">
<rect x="76" y="62" width="74" height="74" rx="37" fill="#27AE60"/>
</g>
<path d="M100 100.25L110 109L125 89" stroke="white" stroke-width="7" stroke-linecap="round" stroke-linejoin="round"/>
<defs>
<filter id="filter0_d" x="6" y="12" width="214" height="214" filterUnits="userSpaceOnUse" color-interpolation-filters="sRGB">
<feFlood flood-opacity="0" result="BackgroundImageFix"/>
<feColorMatrix in="SourceAlpha" type="matrix" values="0 0 0 0 0 0 0 0 0 0 0 0 0 0 0 0 0 0 127 0"/>
<feOffset dy="20"/>
<feGaussianBlur stdDeviation="35"/>
<feColorMatrix type="matrix" values="0 0 0 0 0.11111 0 0 0 0 0.0825868 0 0 0 0 0.295833 0 0 0 0.25 0"/>
<feBlend mode="normal" in2="BackgroundImageFix" result="effect1_dropShadow"/>
<feBlend mode="normal" in="SourceGraphic" in2="effect1_dropShadow" result="shape"/>
</filter>
</defs>
</svg>
