<svg width="502" height="920" viewBox="0 0 502 920" fill="none" xmlns="http://www.w3.org/2000/svg">
<path d="M405.82 583.215C424.155 575.329 475.374 557.927 475.966 505.125C476.559 452.323 451.749 425.53 448.387 400.197C445.024 374.865 447.016 372.51 435.189 351.639C423.362 330.768 380.773 314.255 361.802 321.977C342.83 329.699 294.52 357.202 284.169 356.077C273.817 354.953 220.586 350.013 205.01 404.754C190.457 455.87 192.226 503.85 235.76 567.272C279.295 630.693 333.454 626.217 372.48 606.755C408.831 588.625 405.82 583.215 405.82 583.215Z" fill="#F3F7FF"/>
<path d="M73.9242 732.239C72.36 743.06 57.625 750.447 40.2419 749.697C40.585 749.173 40.8699 748.612 41.0966 748.012C43.0469 743.388 41.8523 738.615 38.4188 737.321C34.9852 736.027 30.5703 738.704 28.62 743.328C27.9759 744.818 27.6889 746.334 27.6807 747.742C22.5584 746.297 18.0579 744.221 14.412 741.666C16.2556 739.424 16.7274 736.865 15.3939 735.285C13.924 733.532 10.7229 733.595 7.78432 735.161C5.49237 731.872 4.43196 728.226 4.97209 724.548C5.06248 723.776 5.26919 723.08 5.46586 722.336C5.64034 722.451 5.8148 722.565 5.97926 722.631C10.1928 725.018 14.9182 725.039 16.5392 722.693C18.1601 720.346 16.0187 716.574 11.8052 714.187C11.747 714.149 11.6889 714.111 11.6307 714.073C14.3628 711.997 17.7246 710.293 21.5917 709.086C21.6799 709.269 21.8263 709.489 21.9146 709.672C24.9243 714.72 29.8938 717.602 32.9869 716.054C35.5423 714.819 36.0624 711.045 34.5648 706.988C37.1582 706.9 39.7916 707.005 42.5133 707.292C45.1387 707.599 47.6397 708.032 50.0264 708.64C49.8617 709.779 50.0741 711.041 50.5753 712.242C52.0089 715.509 55.5426 717.284 58.4851 716.22C59.9273 715.668 60.9504 714.551 61.46 713.14C69.9553 718 74.9764 724.989 73.9242 732.239Z" fill="#3E337A"/>
<path d="M76.9847 704.983C77.6048 702.958 75.413 700.492 72.0892 699.474C68.7654 698.457 65.5682 699.274 64.948 701.299C64.3279 703.325 66.5197 705.791 69.8435 706.808C73.1673 707.826 76.3645 707.009 76.9847 704.983Z" fill="#3E337A"/>
<path d="M27.1699 726.958C28.9711 726.683 51.9288 722.607 70.8675 728.657" stroke="white" stroke-width="1.13514" stroke-miterlimit="10" stroke-linecap="round" stroke-linejoin="round"/>
<path d="M36.8145 713.449C39.261 715.551 43.9196 719.352 43.9196 719.352" stroke="white" stroke-width="1.13514" stroke-miterlimit="10" stroke-linecap="round" stroke-linejoin="round"/>
<path d="M43.7903 732.486C50.1413 725.841 50.5144 725.462 50.5144 725.462" stroke="white" stroke-width="1.13514" stroke-miterlimit="10" stroke-linecap="round" stroke-linejoin="round"/>
<path d="M50.6162 718.712C50.9771 719.239 55.8017 725.768 55.8017 725.768" stroke="white" stroke-width="1.13514" stroke-miterlimit="10" stroke-linecap="round" stroke-linejoin="round"/>
<path d="M59.0187 733.987C60.1943 732.637 65.446 727.225 65.446 727.225" stroke="white" stroke-width="1.13514" stroke-miterlimit="10" stroke-linecap="round" stroke-linejoin="round"/>
<path d="M75.7236 704.696C79.4599 706.48 109.939 741.665 120.036 808.261" stroke="#3E337A" stroke-width="1.13514" stroke-miterlimit="10"/>
<path d="M62.6357 731.576C72.9668 733.192 98.4572 732.355 118.643 803.982" stroke="#3E337A" stroke-width="1.13514" stroke-miterlimit="10"/>
<path d="M260.82 892.449C279.155 888.186 330.374 878.778 330.966 850.233C331.559 821.688 306.749 807.204 303.387 793.509C300.024 779.814 302.016 778.541 290.189 767.258C278.362 755.975 235.773 747.048 216.802 751.222C197.83 755.397 149.52 770.265 139.169 769.657C128.817 769.049 75.5861 766.379 60.0105 795.972C45.4574 823.606 47.226 849.544 90.7605 883.83C134.295 918.116 188.454 915.696 227.48 905.175C263.831 895.374 260.82 892.449 260.82 892.449Z" fill="#F3F7FF"/>
<path d="M476.094 58.5433C473.003 57.0003 470.848 54.9865 470.295 52.8308C469.629 50.0391 471.95 47.8375 475.942 46.8608C475.317 44.9964 474.285 43.1247 473.031 41.3222C471.293 38.9989 469.15 36.9365 466.663 35.1605C465.369 38.1608 462.675 39.6729 460.277 38.6301C457.756 37.5362 456.407 33.9276 457.106 30.307C452.338 28.6607 447.104 27.7863 441.676 27.6887C443.057 32.8097 441.977 36.8624 438.698 37.1691C435.48 37.5014 431.197 34.1814 428.116 29.3224C426.441 29.7556 424.827 30.2142 423.239 30.844C419.927 32.1012 416.887 33.6314 414.33 35.4142C414.442 35.782 414.555 36.1498 414.606 36.4921C416.051 42.4433 414.16 47.0178 410.471 46.7807C408.929 46.6798 407.26 45.7232 405.797 44.2095C401.635 51.0596 401.622 59.0328 406.76 66.0258C411.886 73.0673 421.17 77.6476 431.575 79.1027C429.749 76.3145 429.242 73.4281 430.516 71.3297C432.781 67.7129 439.677 67.9344 445.935 71.802C448.706 73.5343 450.837 75.6452 452.204 77.8156C453.67 77.403 455.136 76.9905 456.502 76.4299C466.858 72.6172 473.71 65.913 476.094 58.5433ZM455.812 60.3487C452.313 58.5302 449.921 55.8293 450.555 54.3777C451.19 52.9261 454.534 53.1813 458.095 55.0254C461.593 56.8439 463.986 59.5447 463.352 60.9963C462.717 62.4479 459.311 62.1672 455.812 60.3487Z" fill="#3E337A"/>
<path d="M447.112 49.3331C436.962 49.4934 413.525 59.1078 406.103 63.9432" stroke="white" stroke-width="1.13514" stroke-miterlimit="10" stroke-linecap="round" stroke-linejoin="round"/>
<path d="M439.725 54.142C439.725 54.142 437.571 52.7055 432.584 50.9792" stroke="white" stroke-width="1.13514" stroke-miterlimit="10" stroke-linecap="round" stroke-linejoin="round"/>
<path d="M427.706 43.9101C427.957 48.8892 423.736 56.0587 423.736 56.0587" stroke="white" stroke-width="1.13514" stroke-miterlimit="10" stroke-linecap="round" stroke-linejoin="round"/>
<path d="M424.481 65.4648C419.069 63.2924 413.87 62.3771 413.87 62.3771" stroke="white" stroke-width="1.13514" stroke-miterlimit="10" stroke-linecap="round" stroke-linejoin="round"/>
<path d="M412.557 122.19C414.941 121.541 417.044 120.673 418.732 119.583C416.459 117.92 415.232 115.847 415.932 114.405C416.704 112.678 419.991 112.452 423.418 113.802C423.753 112.472 423.638 111.063 423.059 109.622C420.413 103.302 409.361 99.0941 398.321 100.181C397.992 102.822 396.137 104.577 394.247 104.066C393.113 103.759 392.208 102.813 391.715 101.564C384.724 103.941 380.97 108.69 383.025 113.616C385.45 119.479 395.125 123.542 405.292 123.25C404.372 121.826 404.281 120.584 405.29 120.054C406.711 119.222 409.906 120.162 412.557 122.19ZM407.851 107.223C406.593 106.341 406.707 104.555 408.04 103.267C409.374 101.98 411.479 101.637 412.676 102.493C413.935 103.375 413.821 105.161 412.487 106.448C411.141 107.783 409.097 108.152 407.851 107.223Z" fill="#3E337A"/>
<path d="M409.713 111.651C408.964 111.45 395.427 109.915 384.391 115.038" stroke="white" stroke-width="1.13514" stroke-miterlimit="10" stroke-linecap="round" stroke-linejoin="round"/>
<path d="M397.101 115.945C395.845 115.455 389.523 114.214 389.523 114.214" stroke="white" stroke-width="1.13514" stroke-miterlimit="10" stroke-linecap="round" stroke-linejoin="round"/>
<path d="M401.671 106.651C401.199 107.374 397.103 110.956 397.103 110.956" stroke="white" stroke-width="1.13514" stroke-miterlimit="10" stroke-linecap="round" stroke-linejoin="round"/>
<path d="M408.211 111.04C404.813 109.481 404.813 109.481 404.813 109.481" stroke="white" stroke-width="1.13514" stroke-miterlimit="10" stroke-linecap="round" stroke-linejoin="round"/>
<path d="M405.116 69.3451C397.592 73.1726 370.858 103.465 370.337 137.157" stroke="#3E337A" stroke-width="1.13514" stroke-miterlimit="10"/>
<path d="M383.613 118.647C383.613 118.647 373.041 123.154 373.484 139.411" stroke="#3E337A" stroke-width="1.13514" stroke-miterlimit="10"/>
</svg>
