<svg width="198" height="136" viewBox="0 0 198 136" fill="none" xmlns="http://www.w3.org/2000/svg">
<path d="M99.2469 1.10407L20.7565 19.4698C20.0264 19.6406 19.573 20.371 19.7438 21.1011L46.2078 134.227C46.3792 134.959 47.1137 135.413 47.8455 135.238L129.938 115.619C130.682 115.441 131.132 114.684 130.934 113.946L100.867 2.0737C100.677 1.36623 99.9602 0.937166 99.2469 1.10407Z" fill="#3B3375"/>
<path d="M3.30534 86.8456C4.10609 86.3894 4.59308 85.758 4.59302 85.0485C4.57834 84.1287 3.72094 83.3488 2.46043 82.946C2.50416 82.3352 2.66826 81.7297 2.90353 81.1516C3.24275 80.4088 3.72245 79.7609 4.32619 79.2154C4.93919 80.2424 5.85496 80.7992 6.48791 80.4968C7.15369 80.1797 7.27944 79.0001 6.79594 77.7772C8.08739 77.3187 9.57587 77.1269 11.1811 77.1984C11.1612 78.8826 11.7906 80.2571 12.7884 80.4224C13.7698 80.5951 14.7894 79.5681 15.3347 78.004C15.8656 78.1808 16.38 78.365 16.8999 78.6058C17.9798 79.0893 18.9996 79.6587 19.8953 80.3033C19.8898 80.424 19.8843 80.5447 19.8953 80.658C19.9192 82.6183 20.8295 84.1827 21.9076 84.1743C22.3582 84.1701 22.7813 83.8826 23.1005 83.4049C24.8592 85.773 25.4705 88.4367 24.4765 90.6743C23.4899 92.9282 21.0803 94.2803 18.0997 94.567C18.4298 93.6706 18.3604 92.7161 17.8222 91.9907C16.8736 90.739 14.8415 90.6809 13.2765 91.8529C12.5852 92.3784 12.1128 93.0427 11.8721 93.7415C11.4051 93.5756 10.9381 93.4097 10.4893 93.1962C7.12183 91.7241 4.57515 89.3532 3.30534 86.8456ZM9.46916 87.8375C10.3702 87.2971 10.8755 86.4407 10.5763 85.9437C10.2771 85.4466 9.30296 85.4677 8.38547 86.0155C7.48439 86.5559 6.97918 87.4123 7.27838 87.9093C7.57758 88.4064 8.56809 88.3779 9.46916 87.8375Z" fill="#3E337A"/>
<path d="M11.1764 83.4872C14.1972 83.7346 21.8734 87.3819 24.4401 89.1328" stroke="white" stroke-width="0.339435" stroke-miterlimit="10" stroke-linecap="round" stroke-linejoin="round"/>
<path d="M13.7885 86.0458C13.7885 86.0458 14.3375 85.4657 15.7656 84.8279" stroke="white" stroke-width="0.339435" stroke-miterlimit="10" stroke-linecap="round" stroke-linejoin="round"/>
<path d="M16.9474 82.4861C17.2121 83.925 18.6587 86.0776 18.6587 86.0776" stroke="white" stroke-width="0.339435" stroke-miterlimit="10" stroke-linecap="round" stroke-linejoin="round"/>
<path d="M18.7777 88.824C20.297 87.9485 21.8782 87.6559 21.8782 87.6559" stroke="white" stroke-width="0.339435" stroke-miterlimit="10" stroke-linecap="round" stroke-linejoin="round"/>
<path d="M188.348 43.1966C187.192 42.2252 186.593 41.0643 186.801 39.9215C187.095 38.4444 188.705 37.4415 190.853 37.1653C190.962 36.1685 190.876 35.1448 190.666 34.1442C190.338 32.8475 189.755 31.6623 188.943 30.6051C187.654 32.0782 186.016 32.7043 185.085 32.0302C184.106 31.3227 184.25 29.3856 185.387 27.5589C183.442 26.4386 181.101 25.6899 178.494 25.3305C178.032 28.0492 176.615 30.077 174.959 30.0484C173.328 30.0365 171.987 28.0811 171.568 25.4007C170.661 25.5286 169.778 25.6732 168.87 25.9075C166.989 26.367 165.179 26.9828 163.547 27.7563C163.521 27.9523 163.494 28.1484 163.443 28.3277C162.829 31.4781 160.904 33.7287 159.17 33.3965C158.445 33.2567 157.848 32.6685 157.474 31.8048C153.946 35.0993 152.18 39.209 153.124 43.1067C154.051 47.0286 157.536 49.9185 162.252 51.261C161.984 49.7197 162.376 48.2028 163.455 47.1935C165.351 45.4579 168.641 45.9647 170.818 48.3149C171.777 49.3657 172.343 50.5753 172.525 51.772C173.326 51.6428 174.127 51.5136 174.912 51.3024C180.768 49.9264 185.566 46.8603 188.348 43.1966ZM178.129 42.9727C176.836 41.836 176.274 40.3073 176.901 39.5951C177.529 38.8829 179.092 39.2049 180.409 40.3583C181.702 41.495 182.264 43.0236 181.636 43.7358C181.008 44.448 179.421 44.1094 178.129 42.9727Z" fill="#3E337A"/>
<path d="M176.653 35.4606C171.715 34.9662 158.281 38.5723 153.633 40.634" stroke="white" stroke-width="0.339435" stroke-miterlimit="10" stroke-linecap="round" stroke-linejoin="round"/>
<path d="M171.697 38.8103C171.697 38.8103 170.983 37.7138 168.87 36.2644" stroke="white" stroke-width="0.339435" stroke-miterlimit="10" stroke-linecap="round" stroke-linejoin="round"/>
<path d="M167.652 32.1427C166.803 34.382 163.841 37.4217 163.841 37.4217" stroke="white" stroke-width="0.339435" stroke-miterlimit="10" stroke-linecap="round" stroke-linejoin="round"/>
<path d="M162.846 41.8104C160.656 39.9512 158.195 39.0127 158.195 39.0127" stroke="white" stroke-width="0.339435" stroke-miterlimit="10" stroke-linecap="round" stroke-linejoin="round"/>
<path d="M153.088 40.8361C148.934 41.5321 131.68 51.968 126.39 67.9617" stroke="#3E337A" stroke-width="0.339435" stroke-miterlimit="10"/>
<path d="M24.7448 89.3139C27.1638 90.1898 36.3872 98.3614 37.8138 108.553" stroke="#3E337A" stroke-width="0.339435" stroke-miterlimit="10"/>
<path d="M51.8794 121.015L58.144 4.41485C58.1843 3.66484 58.8259 3.09004 59.5758 3.13209L140.034 7.64297C140.784 7.685 141.357 8.32744 141.314 9.07698L134.579 125.521C134.536 126.268 133.897 126.839 133.15 126.798L53.1614 122.443C52.413 122.403 51.8392 121.763 51.8794 121.015Z" fill="#E9E8FA" stroke="#3B3375"/>
<path d="M29.0498 105.057V30.6591C29.0498 27.8472 31.3293 25.5676 34.1413 25.5676H142.551C145.363 25.5676 147.643 27.8472 147.643 30.6591V105.057C147.643 107.869 145.363 110.148 142.551 110.148H34.1413C31.3294 110.148 29.0498 107.869 29.0498 105.057Z" fill="#E39B62" stroke="#3B3375" stroke-width="0.339435"/>
<path d="M147.643 92.5074L147.643 105.057C147.643 107.869 145.363 110.148 142.551 110.148L34.1413 110.148C31.3294 110.148 29.0498 107.869 29.0498 105.057L29.0498 92.5074L87.0623 63.3963C88.5221 62.6638 90.2447 62.676 91.6939 63.4292L147.643 92.5074Z" fill="white" stroke="#3B3375"/>
<path d="M29.0498 43.2087V30.6591C29.0498 27.8472 31.3293 25.5676 34.1413 25.5676H142.551C145.363 25.5676 147.643 27.8472 147.643 30.6591V43.2087L91.8602 73.6287C90.3657 74.4437 88.5627 74.4579 87.0555 73.6665L29.0498 43.2087Z" fill="#E39B62" stroke="#3B3375"/>
</svg>
