<svg width="400" height="292" viewBox="0 0 400 292" fill="none" xmlns="http://www.w3.org/2000/svg">
<g opacity="0.1">
<path d="M24.6406 291.083H52.9922L76 275.064H48.0938L24.6406 291.083Z" fill="white"/>
<path d="M48.2422 249.848L24.6406 265.867H0L23.4531 249.848H48.2422Z" fill="white"/>
<path opacity="0.6" d="M24.6406 265.867V291.083L48.2422 275.064V249.848L24.6406 265.867Z" fill="white"/>
<path opacity="0.6" d="M23.4531 249.848L0 265.867V238.373L23.4531 223V249.848Z" fill="white"/>
</g>
<g opacity="0.1">
<path d="M364.984 181H324.695L292 203.765H331.656L364.984 181Z" fill="white"/>
<path d="M331.445 239.598L364.984 216.833H400L366.672 239.598H331.445Z" fill="white"/>
<path opacity="0.6" d="M364.984 216.833V181L331.445 203.765V239.598L364.984 216.833Z" fill="white"/>
<path opacity="0.6" d="M366.672 239.598L400 216.833V255.904L366.672 277.75V239.598Z" fill="white"/>
</g>
<g opacity="0.1">
<path d="M202.732 0H259.955L306.392 32.3388H250.068L202.732 0Z" fill="white"/>
<path d="M250.368 83.2425L202.733 50.9037H153L200.336 83.2425H250.368Z" fill="white"/>
<path opacity="0.6" d="M202.732 50.9037V0L250.368 32.3388V83.2425L202.732 50.9037Z" fill="white"/>
<path opacity="0.6" d="M200.336 83.2425L153 50.9037V106.407L200.336 137.44V83.2425Z" fill="white"/>
</g>
</svg>
