<svg width="127" height="165" viewBox="0 0 127 165" fill="none" xmlns="http://www.w3.org/2000/svg">
<path d="M108.738 59.1661C105.648 57.6231 103.493 55.6093 102.94 53.4536C102.274 50.6619 104.595 48.4603 108.587 47.4836C107.961 45.6192 106.929 43.7475 105.675 41.945C103.938 39.6217 101.795 37.5593 99.3072 35.7833C98.0135 38.7836 95.3191 40.2957 92.9215 39.2529C90.4004 38.159 89.0518 34.5504 89.7507 30.9298C84.9822 29.2835 79.7485 28.4091 74.321 28.3115C75.7011 33.4325 74.6218 37.4852 71.3423 37.792C68.1246 38.1242 63.8418 34.8042 60.7607 29.9452C59.0852 30.3784 57.4716 30.837 55.8833 31.4668C52.5711 32.724 49.5315 34.2542 46.9741 36.037C47.0868 36.4048 47.1995 36.7726 47.2504 37.1149C48.696 43.0661 46.805 47.6406 43.116 47.4035C41.5737 47.3026 39.9043 46.346 38.4419 44.8324C34.2795 51.6824 34.2665 59.6556 39.4047 66.6486C44.5309 73.6901 53.8148 78.2704 64.2192 79.7255C62.3933 76.9373 61.8868 74.051 63.16 71.9525C65.4254 68.3357 72.3212 68.5572 78.58 72.4248C81.3508 74.1571 83.4819 76.268 84.8485 78.4384C86.3144 78.0258 87.7803 77.6133 89.1469 77.0527C99.5026 73.24 106.355 66.5358 108.738 59.1661ZM88.4569 60.9715C84.958 59.153 82.5651 56.4521 83.1999 55.0005C83.8347 53.5489 87.1785 53.8041 90.7391 55.6482C94.238 57.4667 96.6308 60.1675 95.9961 61.6191C95.3613 63.0707 91.9557 62.79 88.4569 60.9715Z" fill="#3E337A"/>
<path d="M79.7569 49.9559C69.606 50.1162 46.169 59.7306 38.7475 64.566" stroke="white" stroke-width="1.13514" stroke-miterlimit="10" stroke-linecap="round" stroke-linejoin="round"/>
<path d="M72.3699 54.7648C72.3699 54.7648 70.215 53.3283 65.2285 51.6021" stroke="white" stroke-width="1.13514" stroke-miterlimit="10" stroke-linecap="round" stroke-linejoin="round"/>
<path d="M60.3509 44.5329C60.6017 49.512 56.3801 56.6815 56.3801 56.6815" stroke="white" stroke-width="1.13514" stroke-miterlimit="10" stroke-linecap="round" stroke-linejoin="round"/>
<path d="M57.126 66.0876C51.7133 63.9152 46.5146 62.9999 46.5146 62.9999" stroke="white" stroke-width="1.13514" stroke-miterlimit="10" stroke-linecap="round" stroke-linejoin="round"/>
<path d="M45.2015 122.812C47.5854 122.164 49.6882 121.296 51.376 120.206C49.1037 118.543 47.8767 116.47 48.5766 115.028C49.3483 113.301 52.6351 113.074 56.063 114.424C56.398 113.095 56.2822 111.686 55.7034 110.244C53.0572 103.924 42.0058 99.7169 30.9658 100.804C30.6366 103.445 28.7812 105.2 26.8915 104.689C25.7576 104.382 24.8523 103.435 24.3596 102.186C17.3682 104.563 13.6144 109.312 15.6699 114.239C18.0949 120.102 27.7696 124.165 37.9364 123.873C37.0168 122.449 36.926 121.207 37.9344 120.677C39.3554 119.844 42.55 120.785 45.2015 122.812ZM40.4954 107.846C39.2372 106.964 39.3511 105.178 40.6849 103.89C42.0186 102.603 44.1238 102.259 45.321 103.116C46.5792 103.997 46.4653 105.784 45.1315 107.071C43.7858 108.406 41.7417 108.774 40.4954 107.846Z" fill="#3E337A"/>
<path d="M42.3571 112.274C41.6085 112.073 28.0718 110.538 17.0356 115.661" stroke="white" stroke-width="1.13514" stroke-miterlimit="10" stroke-linecap="round" stroke-linejoin="round"/>
<path d="M29.7452 116.568C28.4897 116.078 22.167 114.837 22.167 114.837" stroke="white" stroke-width="1.13514" stroke-miterlimit="10" stroke-linecap="round" stroke-linejoin="round"/>
<path d="M34.3151 107.274C33.8437 107.997 29.7473 111.579 29.7473 111.579" stroke="white" stroke-width="1.13514" stroke-miterlimit="10" stroke-linecap="round" stroke-linejoin="round"/>
<path d="M40.856 111.662C37.458 110.104 37.458 110.104 37.458 110.104" stroke="white" stroke-width="1.13514" stroke-miterlimit="10" stroke-linecap="round" stroke-linejoin="round"/>
<path d="M37.7604 69.9679C30.2361 73.7954 3.50211 104.088 2.98116 137.78" stroke="#3E337A" stroke-width="1.13514" stroke-miterlimit="10"/>
<path d="M16.2572 119.27C16.2572 119.27 5.68506 123.777 6.12839 140.034" stroke="#3E337A" stroke-width="1.13514" stroke-miterlimit="10"/>
</svg>
