<svg width="383" height="382" viewBox="0 0 383 382" fill="none" xmlns="http://www.w3.org/2000/svg">
<path d="M74.5688 93.8618C73.0045 104.683 58.2696 112.069 40.8864 111.319C41.2295 110.796 41.5144 110.235 41.7411 109.635C43.6914 105.011 42.4968 100.237 39.0633 98.9436C35.6298 97.6496 31.2148 100.326 29.2645 104.951C28.6205 106.441 28.3334 107.957 28.3252 109.365C23.2029 107.92 18.7025 105.844 15.0566 103.289C16.9002 101.047 17.3719 98.4878 16.0384 96.9074C14.5685 95.1545 11.3674 95.2183 8.42886 96.7842C6.1369 93.495 5.07649 89.849 5.61662 86.171C5.70701 85.399 5.91372 84.7031 6.1104 83.9591C6.28487 84.0734 6.45933 84.1877 6.62379 84.2539C10.8373 86.6409 15.5627 86.6615 17.1837 84.3153C18.8047 81.9691 16.6632 78.1966 12.4497 75.8096C12.3915 75.7715 12.3334 75.7334 12.2752 75.6953C15.0073 73.62 18.3691 71.9157 22.2363 70.7089C22.3245 70.8914 22.4709 71.112 22.5591 71.2945C25.5688 76.3426 30.5384 79.225 33.6314 77.6771C36.1868 76.4421 36.7069 72.6679 35.2094 68.6107C37.8027 68.5227 40.4362 68.6273 43.1578 68.9144C45.7832 69.2215 48.2842 69.655 50.6709 70.2629C50.5062 71.402 50.7186 72.6635 51.2199 73.8648C52.6534 77.1318 56.1871 78.9071 59.1296 77.8425C60.5718 77.2912 61.5949 76.1742 62.1046 74.7624C70.5998 79.6226 75.6209 86.6122 74.5688 93.8618Z" fill="#3E337A"/>
<path d="M77.6292 66.6063C78.2493 64.5811 76.0576 62.1145 72.7337 61.0972C69.4099 60.0798 66.2127 60.8968 65.5926 62.9221C64.9724 64.9473 67.1642 67.4138 70.488 68.4312C73.8118 69.4486 77.0091 68.6315 77.6292 66.6063Z" fill="#3E337A"/>
<path d="M27.8145 88.5803C29.6156 88.3058 52.5734 84.2293 71.5121 90.2799" stroke="white" stroke-width="1.13514" stroke-miterlimit="10" stroke-linecap="round" stroke-linejoin="round"/>
<path d="M37.459 75.0723C39.9056 77.1743 44.5642 80.9751 44.5642 80.9751" stroke="white" stroke-width="1.13514" stroke-miterlimit="10" stroke-linecap="round" stroke-linejoin="round"/>
<path d="M44.4348 94.1093C50.7858 87.464 51.1589 87.085 51.1589 87.085" stroke="white" stroke-width="1.13514" stroke-miterlimit="10" stroke-linecap="round" stroke-linejoin="round"/>
<path d="M51.2607 80.3347C51.6217 80.8622 56.4463 87.3905 56.4463 87.3905" stroke="white" stroke-width="1.13514" stroke-miterlimit="10" stroke-linecap="round" stroke-linejoin="round"/>
<path d="M59.6633 95.6096C60.8388 94.2601 66.0906 88.848 66.0906 88.848" stroke="white" stroke-width="1.13514" stroke-miterlimit="10" stroke-linecap="round" stroke-linejoin="round"/>
<path d="M76.3682 66.3191C80.1045 68.1024 110.583 103.287 120.681 169.884" stroke="#3E337A" stroke-width="1.13514" stroke-miterlimit="10"/>
<path d="M63.2803 93.1992C73.6113 94.8148 99.1017 93.9774 119.287 165.604" stroke="#3E337A" stroke-width="1.13514" stroke-miterlimit="10"/>
<path d="M261.465 254.072C279.799 249.809 331.018 240.401 331.611 211.856C332.203 183.311 307.394 168.827 304.031 155.132C300.669 141.437 302.66 140.164 290.833 128.881C279.006 117.598 236.417 108.671 217.446 112.845C198.475 117.02 150.165 131.888 139.813 131.28C129.462 130.672 76.2306 128.002 60.655 157.595C46.102 185.228 47.8705 211.167 91.405 245.453C134.939 279.739 189.098 277.319 228.124 266.798C264.476 256.997 261.465 254.072 261.465 254.072Z" fill="#F3F7FF"/>
</svg>
