<svg width="36" height="36" viewBox="0 0 36 36" fill="none" xmlns="http://www.w3.org/2000/svg">
<path d="M14.5359 5.99999C16.0755 3.33333 19.9245 3.33333 21.4641 6L30.1244 21C31.664 23.6667 29.7395 27 26.6603 27H9.33974C6.26054 27 4.33604 23.6667 5.87564 21L14.5359 5.99999Z" fill="#FFF8ED"/>
<path d="M15.4019 7.5C16.5566 5.5 19.4434 5.5 20.5981 7.5L28.3923 21C29.547 23 28.1036 25.5 25.7942 25.5H10.2058C7.89637 25.5 6.45299 23 7.6077 21L15.4019 7.5Z" fill="#FF9F04"/>
<path d="M16.4272 11.1H19.1812L18.6882 19.226H16.9372L16.4272 11.1ZM16.4102 22.048C16.4102 21.674 16.5405 21.368 16.8012 21.13C17.0732 20.8806 17.4132 20.756 17.8212 20.756C18.2292 20.756 18.5635 20.8806 18.8242 21.13C19.0848 21.368 19.2152 21.674 19.2152 22.048C19.2152 22.422 19.0848 22.7393 18.8242 23C18.5635 23.2493 18.2292 23.374 17.8212 23.374C17.4132 23.374 17.0732 23.2493 16.8012 23C16.5405 22.7393 16.4102 22.422 16.4102 22.048Z" fill="white"/>
</svg>
